<svg width="18" height="18" viewBox="0 0 18 18" fill="none" xmlns="http://www.w3.org/2000/svg">
<path fill-rule="evenodd" clip-rule="evenodd" d="M9 16.5C4.86 16.5 1.5 13.1475 1.5 9C1.5 4.86 4.86 1.5 9 1.5C13.1475 1.5 16.5 4.86 16.5 9C16.5 13.1475 13.1475 16.5 9 16.5ZM11.3925 11.7825C11.4825 11.835 11.58 11.865 11.685 11.865C11.8725 11.865 12.06 11.7675 12.165 11.5875C12.3225 11.325 12.24 10.98 11.97 10.815L9.3 9.225V5.76C9.3 5.445 9.045 5.1975 8.7375 5.1975C8.43 5.1975 8.175 5.445 8.175 5.76V9.5475C8.175 9.7425 8.28 9.9225 8.4525 10.0275L11.3925 11.7825Z" fill="#130F26"/>
</svg>
