<svg width="52" height="66" viewBox="0 0 52 66" fill="none" xmlns="http://www.w3.org/2000/svg">
    <path
        d="M15.666 8.88889C15.666 7.06184 16.3918 5.30963 17.6837 4.01771C18.9756 2.72579 20.7279 2 22.5549 2H29.4438C31.2708 2 33.0231 2.72579 34.315 4.01771C35.6069 5.30963 36.3327 7.06184 36.3327 8.88889V15.7778H15.666V8.88889Z"
        stroke="white" stroke-width="3" stroke-linecap="round" stroke-linejoin="round" />
    <path
        d="M15.6664 8.88892H8.77756C6.95051 8.88892 5.1983 9.61471 3.90638 10.9066C2.61446 12.1985 1.88867 13.9508 1.88867 15.7778V57.1111C1.88867 58.9382 2.61446 60.6904 3.90638 61.9823C5.1983 63.2742 6.95051 64 8.77756 64H43.222C45.0491 64 46.8013 63.2742 48.0932 61.9823C49.3851 60.6904 50.1109 58.9382 50.1109 57.1111V15.7778C50.1109 13.9508 49.3851 12.1985 48.0932 10.9066C46.8013 9.61471 45.0491 8.88892 43.222 8.88892H36.3331"
        stroke="white" stroke-width="3" stroke-linecap="round" stroke-linejoin="round" />
</svg>