<svg width="33" height="33" viewBox="0 0 33 33" fill="none" xmlns="http://www.w3.org/2000/svg">
<path fill-rule="evenodd" clip-rule="evenodd" d="M22.565 3.80685L22.5663 4.83758C26.354 5.13443 28.856 7.71539 28.86 11.6734L28.875 23.2589C28.8804 27.5742 26.1693 30.2294 21.8237 30.2362L11.2088 30.25C6.89039 30.2555 4.14537 27.5371 4.13994 23.2094L4.12501 11.76C4.11958 7.77586 6.53335 5.20178 10.321 4.85407L10.3196 3.82334C10.3183 3.21864 10.7663 2.76375 11.3636 2.76375C11.9609 2.76237 12.4089 3.21589 12.4103 3.82059L12.4117 4.78261L20.4757 4.77162L20.4743 3.8096C20.4729 3.2049 20.9209 2.75138 21.5183 2.75C22.102 2.74863 22.5636 3.20215 22.565 3.80685ZM6.21704 12.1847L26.7707 12.1572V11.6762C26.7124 8.72139 25.2299 7.17116 22.569 6.94028L22.5704 7.9985C22.5704 8.58945 22.1102 9.05809 21.5264 9.05809C20.9291 9.05947 20.4797 8.5922 20.4797 8.00125L20.4784 6.88806L12.4144 6.89905L12.4157 8.01087C12.4157 8.6032 11.9691 9.07046 11.3718 9.07046C10.7744 9.07184 10.3251 8.60595 10.3251 8.01362L10.3237 6.9554C7.67643 7.22064 6.21161 8.77636 6.21568 11.7572L6.21704 12.1847ZM20.9549 18.4309V18.446C20.9685 19.0782 21.4843 19.5578 22.1102 19.5441C22.7211 19.529 23.2085 19.0054 23.1949 18.3732C23.1664 17.7685 22.6763 17.2751 22.0667 17.2765C21.4422 17.2902 20.9535 17.7987 20.9549 18.4309ZM22.0762 24.6016C21.4518 24.5878 20.9481 24.067 20.9467 23.4348C20.9332 22.8026 21.4341 22.279 22.0586 22.2639H22.0722C22.7102 22.2639 23.2275 22.7847 23.2275 23.4306C23.2288 24.0766 22.7129 24.6002 22.0762 24.6016ZM15.3617 18.4529C15.3888 19.0851 15.9061 19.5785 16.5305 19.551C17.1414 19.5221 17.6288 18.9999 17.6017 18.3677C17.5867 17.7492 17.0844 17.2682 16.4735 17.2696C15.849 17.2971 15.3603 17.8207 15.3617 18.4529ZM16.536 24.5397C15.9115 24.5672 15.3956 24.0738 15.3671 23.4416C15.3671 22.8095 15.8545 22.2872 16.479 22.2584C17.0899 22.257 17.5935 22.738 17.6071 23.3551C17.6356 23.9886 17.1469 24.5109 16.536 24.5397ZM9.76845 18.501C9.79561 19.1332 10.3128 19.6279 10.9373 19.5991C11.5482 19.5716 12.0356 19.048 12.0071 18.4158C11.9935 17.7973 11.4912 17.3163 10.879 17.3177C10.2545 17.3452 9.7671 17.8688 9.76845 18.501ZM10.9428 24.5466C10.3183 24.5754 9.80239 24.0807 9.77388 23.4485C9.77253 22.8163 10.2613 22.2927 10.8857 22.2652C11.4966 22.2639 12.0003 22.7449 12.0139 23.3633C12.0424 23.9955 11.555 24.5191 10.9428 24.5466Z" fill="white"/>
</svg>
