<svg width="33" height="33" viewBox="0 0 33 33" fill="none" xmlns="http://www.w3.org/2000/svg">
<path fill-rule="evenodd" clip-rule="evenodd" d="M10.7387 2.75H22.2626C26.51 2.75 28.875 5.1975 28.875 9.39125V23.595C28.875 27.8575 26.51 30.25 22.2626 30.25H10.7387C6.55875 30.25 4.125 27.8575 4.125 23.595V9.39125C4.125 5.1975 6.55875 2.75 10.7387 2.75ZM11.11 9.1575V9.14375H15.2199C15.8125 9.14375 16.2938 9.625 16.2938 10.2149C16.2938 10.8212 15.8125 11.3025 15.2199 11.3025H11.11C10.5174 11.3025 10.0375 10.8212 10.0375 10.23C10.0375 9.63875 10.5174 9.1575 11.11 9.1575ZM11.11 17.5175H21.89C22.4813 17.5175 22.9625 17.0362 22.9625 16.445C22.9625 15.8538 22.4813 15.3711 21.89 15.3711H11.11C10.5174 15.3711 10.0375 15.8538 10.0375 16.445C10.0375 17.0362 10.5174 17.5175 11.11 17.5175ZM11.11 23.8013H21.89C22.4386 23.7463 22.8525 23.2774 22.8525 22.7288C22.8525 22.165 22.4386 21.6975 21.89 21.6425H11.11C10.6975 21.6013 10.2987 21.7938 10.0787 22.1513C9.85875 22.495 9.85875 22.9488 10.0787 23.3063C10.2987 23.65 10.6975 23.8563 11.11 23.8013Z" fill="white"/>
</svg>
