<svg width="33" height="33" viewBox="0 0 33 33" fill="none" xmlns="http://www.w3.org/2000/svg">
<path fill-rule="evenodd" clip-rule="evenodd" d="M6.24238 2.75H10.8899C12.8286 2.75 14.3824 4.33125 14.3824 6.27138V10.9587C14.3824 12.9113 12.8286 14.4787 10.8899 14.4787H6.24238C4.31738 14.4787 2.74988 12.9113 2.74988 10.9587V6.27138C2.74988 4.33125 4.31738 2.75 6.24238 2.75ZM6.24238 18.5208H10.8899C12.8286 18.5208 14.3824 20.0897 14.3824 22.0422V26.7296C14.3824 28.6683 12.8286 30.2496 10.8899 30.2496H6.24238C4.31738 30.2496 2.74988 28.6683 2.74988 26.7296V22.0422C2.74988 20.0897 4.31738 18.5208 6.24238 18.5208ZM26.7575 2.75H22.11C20.1713 2.75 18.6175 4.33125 18.6175 6.27138V10.9587C18.6175 12.9113 20.1713 14.4787 22.11 14.4787H26.7575C28.6825 14.4787 30.25 12.9113 30.25 10.9587V6.27138C30.25 4.33125 28.6825 2.75 26.7575 2.75ZM22.11 18.5208H26.7575C28.6825 18.5208 30.25 20.0897 30.25 22.0422V26.7296C30.25 28.6683 28.6825 30.2496 26.7575 30.2496H22.11C20.1713 30.2496 18.6175 28.6683 18.6175 26.7296V22.0422C18.6175 20.0897 20.1713 18.5208 22.11 18.5208Z" fill="white"/>
</svg>
