<svg width="40" height="40" viewBox="0 0 40 40" fill="none" xmlns="http://www.w3.org/2000/svg">
<path fill-rule="evenodd" clip-rule="evenodd" d="M19.8102 3.33337H28.209C32.4084 3.33337 35.8334 6.66671 35.8334 10.7334V29.2667C35.8334 33.35 32.4084 36.6667 28.1746 36.6667H19.793C15.5935 36.6667 12.1514 33.35 12.1514 29.2834V21.2834H22.822L20.0683 23.95C19.552 24.45 19.552 25.2667 20.0683 25.7667C20.3265 26.0167 20.6707 26.1334 21.0149 26.1334C21.3419 26.1334 21.6861 26.0167 21.9443 25.7667L26.9698 20.9167C27.228 20.6834 27.3657 20.35 27.3657 20C27.3657 19.6667 27.228 19.3334 26.9698 19.1L21.9443 14.25C21.428 13.75 20.5847 13.75 20.0683 14.25C19.552 14.75 19.552 15.5667 20.0683 16.0667L22.822 18.7167H12.1514V10.75C12.1514 6.66671 15.5935 3.33337 19.8102 3.33337ZM4.16669 19.9999C4.16669 19.2999 4.75874 18.7165 5.46919 18.7165H12.1509V21.2832H5.46919C4.75874 21.2832 4.16669 20.7165 4.16669 19.9999Z" fill="white"/>
</svg>
