<svg width="56" height="63" viewBox="0 0 56 63" fill="none" xmlns="http://www.w3.org/2000/svg">
<path d="M32.5096 20.8907L39.8851 28.2662C40.2224 28.6035 40.7687 28.6035 41.1052 28.2662L48.4807 20.8907C48.818 20.5534 48.818 20.007 48.4807 19.6705L41.1052 12.295C40.7679 11.9577 40.2216 11.9577 39.8851 12.295L32.5096 19.6705C32.1723 20.007 32.1723 20.5534 32.5096 20.8907Z" fill="white"/>
<path d="M21.3299 23.9582L25.0091 20.2806L36.4394 8.85025C36.7767 8.51296 36.7767 7.96659 36.4394 7.63012L29.0623 0.252969C28.725 -0.0843231 28.1786 -0.0843231 27.8421 0.252969L20.1097 7.98538C19.948 8.14708 19.8566 8.36677 19.8566 8.59544V23.3481C19.8566 24.1166 20.786 24.5021 21.3299 23.9582Z" fill="white"/>
<path d="M13.51 25.9754C14.0539 26.5193 14.9833 26.1339 14.9833 25.3653V15.1959C14.9833 14.4274 14.0539 14.042 13.51 14.5859L8.42533 19.6706C8.08804 20.0079 8.08804 20.5542 8.42533 20.8907L13.51 25.9754Z" fill="white"/>
<path d="M27.8437 24.3355L20.4666 31.711C20.1293 32.0483 20.1293 32.5947 20.4666 32.9319L27.8421 40.3075C28.1794 40.6448 28.7258 40.6448 29.0622 40.3075L36.4394 32.9319C36.7767 32.5947 36.7767 32.0483 36.4394 31.711L29.0639 24.3355C28.7274 23.999 28.181 23.999 27.8437 24.3355Z" fill="white"/>
<path d="M5.16512 49.7263L8.1885 45.892H6.25295L2.75426 50.3576H2.70607V45.892H0.963257V55.7192H2.70607V52.8518L4.11894 51.0967L6.77563 55.7192H8.69893L5.16512 49.7263Z" fill="white"/>
<path d="M11.4782 50.8983C11.4782 50.2188 10.9914 49.7198 10.3601 49.7198C9.72881 49.7198 9.24207 50.2188 9.24207 50.8983C9.24207 51.5656 9.72881 52.0646 10.3601 52.0646C10.9914 52.0646 11.4782 51.5656 11.4782 50.8983Z" fill="white"/>
<path d="M18.0688 50.3274L16.7433 49.7712C15.9291 49.4372 15.1802 49.1522 15.1802 48.3796C15.1802 47.6617 15.787 47.2256 16.7188 47.2256C17.56 47.2256 18.2273 47.5384 18.8528 48.07L19.7479 46.9642C18.9786 46.1859 17.8663 45.7106 16.7188 45.7106C14.8013 45.7106 13.4194 46.9161 13.4194 48.4817C13.4194 49.9182 14.4386 50.6843 15.4056 51.0869L16.7491 51.67C17.6417 52.0489 18.2754 52.307 18.2754 53.1155C18.2754 53.8816 17.6686 54.3839 16.5629 54.3839C15.649 54.3839 14.7057 53.933 14.0025 53.2625L12.9866 54.459C13.9184 55.3753 15.1982 55.8988 16.5269 55.8988C18.7328 55.8988 20.055 54.5701 20.055 52.9775C20.055 51.554 19.2375 50.8141 18.0688 50.3274Z" fill="white"/>
<path d="M24.1473 45.892L20.9435 55.7192H22.723L23.4915 53.0568H26.7877L27.5497 55.7192H29.3946L26.1907 45.892H24.1473ZM23.8852 51.6888L24.2315 50.4899C24.5443 49.4503 24.8326 48.338 25.1029 47.2501H25.1633C25.4516 48.329 25.7407 49.4503 26.0527 50.4899L26.3957 51.6888H23.8852Z" fill="white"/>
<path d="M32.6369 45.892H30.8932V55.7192H36.7179V54.2524H32.6369V45.892Z" fill="white"/>
<path d="M44.0321 51.5418C44.0321 53.6815 43.2023 54.3847 42.0002 54.3847C40.8102 54.3847 40.0107 53.6815 40.0107 51.5418V45.892H38.2679V51.4095C38.2679 54.6371 39.7224 55.8997 42.001 55.8997C44.2787 55.8997 45.7095 54.6371 45.7095 51.4095V45.892H44.0329V51.5418H44.0321Z" fill="white"/>
<path d="M48.5329 55.7192H51.2435C54.1648 55.7192 55.9436 54.018 55.9436 50.7668C55.9436 47.5155 54.164 45.892 51.1529 45.892H48.5321V55.7192H48.5329ZM50.2766 47.304H51.0402C53.0174 47.304 54.1534 48.3502 54.1534 50.766C54.1534 53.1825 53.0174 54.3063 51.0402 54.3063H50.2766V47.304Z" fill="white"/>
<path d="M2.09763 61.8664H2.63664V62.0093C2.63419 62.1808 2.58192 62.3188 2.48065 62.4233C2.37939 62.5336 2.25035 62.5883 2.09436 62.5883C1.99963 62.5883 1.91877 62.5679 1.85099 62.5262C1.78239 62.4911 1.72685 62.4454 1.68438 62.3899C1.63212 62.3311 1.59781 62.2543 1.58066 62.1596C1.56106 62.0648 1.55126 61.8827 1.55126 61.614C1.55126 61.3453 1.56106 61.1624 1.58066 61.0652C1.59781 60.9729 1.63212 60.897 1.68357 60.8382C1.72604 60.7818 1.78157 60.7353 1.85017 60.6977C1.91796 60.6617 1.99881 60.6421 2.09273 60.6397C2.22095 60.6421 2.32957 60.6805 2.41859 60.754C2.50434 60.8316 2.56314 60.9255 2.59581 61.0358H3.01967C2.9772 60.8079 2.87593 60.6168 2.71586 60.4617C2.55497 60.3081 2.34753 60.2305 2.09354 60.2281C1.88611 60.2305 1.71297 60.282 1.57413 60.3816C1.43284 60.4804 1.32994 60.5923 1.26624 60.7181C1.22622 60.7843 1.19682 60.8708 1.17722 60.9778C1.15925 61.0848 1.15027 61.2971 1.15027 61.6132C1.15027 61.9252 1.15925 62.1359 1.17722 62.2453C1.18702 62.3041 1.19927 62.3523 1.21315 62.3915C1.22867 62.4291 1.24664 62.4683 1.26542 62.5091C1.32912 62.6349 1.43203 62.7459 1.57331 62.8415C1.71215 62.9411 1.88529 62.9934 2.09273 62.9983C2.36142 62.9934 2.58519 62.8995 2.76241 62.7165C2.93882 62.5328 3.02947 62.3041 3.03355 62.0313V61.4768H2.09518V61.8664H2.09763Z" fill="white"/>
<path d="M4.72491 62.9771H6.41138V62.5884H5.12509V61.7864H6.22354V61.4197H5.12509V60.6406H6.41138V60.2518H4.72491V62.9771Z" fill="white"/>
<path d="M8.98316 61.4221C8.85739 61.4058 8.75857 61.3911 8.68589 61.3788C8.55603 61.3535 8.46048 61.3086 8.40168 61.2441C8.34288 61.1804 8.31266 61.1093 8.31266 61.0309C8.31511 60.9003 8.35921 60.8014 8.44496 60.7353C8.52745 60.6716 8.62953 60.6397 8.75285 60.6397C8.99051 60.6446 9.20856 60.7149 9.40702 60.8496L9.62998 60.5107C9.38742 60.3302 9.1024 60.2363 8.77409 60.2289C8.50131 60.2314 8.29142 60.3049 8.14279 60.4494C7.99007 60.5956 7.9133 60.7876 7.9133 61.026C7.9133 61.2245 7.97455 61.3927 8.09624 61.5316C8.21465 61.6663 8.38698 61.7529 8.61402 61.7913C8.7406 61.81 8.85739 61.8272 8.96356 61.8419C9.1955 61.8827 9.30983 62.0052 9.30738 62.2086C9.30248 62.4569 9.12853 62.5835 8.78552 62.5884C8.4956 62.5859 8.24569 62.4953 8.03498 62.3164L7.77283 62.6276C8.05377 62.8758 8.38943 63 8.78062 63C9.38497 62.9926 9.69368 62.728 9.70675 62.207C9.70675 62.0134 9.64794 61.8435 9.53116 61.6982C9.41355 61.5487 9.23062 61.4572 8.98316 61.4221Z" fill="white"/>
<path d="M11.0731 60.6177H11.7967V62.9771H12.1961V60.6177H12.9205V60.2518H11.0731V60.6177Z" fill="white"/>
<path d="M14.8103 60.2518H14.4109V62.9771H14.8103V60.2518Z" fill="white"/>
<path d="M18.2248 60.719C18.1636 60.5932 18.0631 60.4813 17.9243 60.3825C17.7846 60.2828 17.609 60.2314 17.3991 60.2289C17.1917 60.2314 17.0186 60.282 16.8797 60.3817C16.7384 60.4797 16.6364 60.5916 16.5718 60.7165C16.5318 60.7827 16.5024 60.8692 16.4828 60.977C16.4649 61.0848 16.4559 61.2964 16.4559 61.614C16.4559 61.926 16.4649 62.1367 16.4828 62.2462C16.4926 62.305 16.5049 62.3531 16.5188 62.3923C16.5343 62.4299 16.5522 62.4691 16.571 62.51C16.6347 62.6357 16.7376 62.7468 16.8789 62.8423C17.0178 62.942 17.1909 62.9942 17.3983 62.9991C17.6082 62.9942 17.783 62.942 17.9235 62.8423C18.0623 62.746 18.1628 62.6357 18.224 62.51C18.2689 62.4438 18.2991 62.3564 18.3163 62.2462C18.3318 62.1367 18.34 61.926 18.34 61.614C18.34 61.298 18.3318 61.0856 18.3163 60.9787C18.3 60.8717 18.2697 60.7851 18.2248 60.719ZM17.9137 62.1596C17.8941 62.2543 17.8589 62.3311 17.8067 62.3899C17.7667 62.4462 17.7136 62.492 17.6474 62.5263C17.5772 62.5671 17.4947 62.5884 17.3991 62.5884C17.3044 62.5884 17.2236 62.5679 17.1558 62.5263C17.0872 62.4912 17.0316 62.4454 16.9892 62.3899C16.9369 62.3311 16.9026 62.2543 16.8855 62.1596C16.8659 62.0649 16.856 61.8827 16.856 61.614C16.856 61.3454 16.8659 61.1624 16.8855 61.0652C16.9026 60.9729 16.9369 60.897 16.9892 60.8382C17.0316 60.7818 17.0872 60.7353 17.1558 60.6977C17.2236 60.6618 17.3044 60.6422 17.3991 60.6397C17.4947 60.6422 17.5772 60.6618 17.6474 60.6977C17.7136 60.7353 17.7667 60.7818 17.8067 60.8382C17.8589 60.897 17.8949 60.9729 17.9137 61.0652C17.9316 61.1624 17.9406 61.3454 17.9406 61.614C17.9406 61.8827 17.9316 62.0649 17.9137 62.1596Z" fill="white"/>
<path d="M21.6091 62.189H21.6018L20.4062 60.2518H20.0297V62.9771H20.429V61.0391H20.4364L21.6304 62.9771H22.0085V60.2518H21.6091V62.189Z" fill="white"/>
<path d="M24.4823 60.2518L23.5226 62.9771H23.9465L24.149 62.3679H25.1503L25.3553 62.9771H25.7767L24.8171 60.2518H24.4823ZM24.2642 62.0012L24.6464 60.8088H24.6538L25.036 62.0012H24.2642Z" fill="white"/>
<path d="M28.8597 62.189H28.8532L27.6576 60.2518H27.2803V62.9771H27.6805V61.0391H27.6878L28.881 62.9771H29.2599V60.2518H28.8597V62.189Z" fill="white"/>
<path d="M32.7757 60.7116C32.5969 60.4078 32.329 60.2543 31.9713 60.2518H31.0476V62.9771H31.9443C32.142 62.9771 32.3094 62.9322 32.4458 62.8424C32.5838 62.7591 32.6908 62.6529 32.7684 62.5247C32.7978 62.4757 32.8223 62.4291 32.8427 62.385C32.8623 62.3393 32.8762 62.2862 32.886 62.2282C32.9064 62.1122 32.917 61.9081 32.917 61.6149C32.917 61.3397 32.9105 61.1461 32.8974 61.0334C32.8803 60.9207 32.8402 60.8137 32.7757 60.7116ZM32.5013 62.1278C32.4891 62.2176 32.4605 62.2919 32.4164 62.3507C32.3151 62.5092 32.1518 62.5884 31.9272 62.5884H31.4486V60.6398H31.9272C32.1305 60.6349 32.2873 60.7116 32.3984 60.8701C32.4531 60.9338 32.4874 61.0171 32.5013 61.1192C32.5119 61.2221 32.5176 61.3911 32.5176 61.6288C32.5176 61.873 32.5119 62.0387 32.5013 62.1278Z" fill="white"/>
<path d="M36.2866 60.719C36.2254 60.5932 36.1249 60.4813 35.9861 60.3825C35.8465 60.2828 35.6709 60.2314 35.461 60.2289C35.2535 60.2314 35.0804 60.282 34.9416 60.3817C34.8003 60.4797 34.6982 60.5916 34.6337 60.7165C34.5937 60.7827 34.5643 60.8692 34.5447 60.977C34.5267 61.0848 34.5177 61.2964 34.5177 61.614C34.5177 61.926 34.5267 62.1367 34.5447 62.2462C34.5545 62.305 34.5667 62.3531 34.5806 62.3923C34.5961 62.4299 34.6141 62.4691 34.6329 62.51C34.6966 62.6357 34.7995 62.7468 34.9407 62.8423C35.0796 62.942 35.2527 62.9942 35.4602 62.9991C35.67 62.9942 35.8448 62.942 35.9853 62.8423C36.1241 62.746 36.2246 62.6357 36.2858 62.51C36.3308 62.4438 36.361 62.3564 36.3781 62.2462C36.3936 62.1367 36.4018 61.926 36.4018 61.614C36.4018 61.298 36.3936 61.0856 36.3781 60.9787C36.3618 60.8717 36.3307 60.7851 36.2866 60.719ZM35.9755 62.1596C35.9559 62.2543 35.9208 62.3311 35.8685 62.3899C35.8285 62.4462 35.7754 62.492 35.7093 62.5263C35.639 62.5671 35.5565 62.5884 35.461 62.5884C35.3662 62.5884 35.2854 62.5679 35.2176 62.5263C35.149 62.4912 35.0935 62.4454 35.051 62.3899C34.9987 62.3311 34.9644 62.2543 34.9473 62.1596C34.9277 62.0649 34.9179 61.8827 34.9179 61.614C34.9179 61.3454 34.9277 61.1624 34.9473 61.0652C34.9644 60.9729 34.9987 60.897 35.051 60.8382C35.0935 60.7818 35.149 60.7353 35.2176 60.6977C35.2854 60.6618 35.3662 60.6422 35.461 60.6397C35.5565 60.6422 35.639 60.6618 35.7093 60.6977C35.7754 60.7353 35.8285 60.7818 35.8685 60.8382C35.9208 60.897 35.9567 60.9729 35.9755 61.0652C35.9935 61.1624 36.0024 61.3454 36.0024 61.614C36.0024 61.8827 35.9935 62.0649 35.9755 62.1596Z" fill="white"/>
<path d="M41.1378 61.4221C41.012 61.4058 40.9132 61.3911 40.8405 61.3788C40.7106 61.3535 40.6151 61.3086 40.5563 61.2441C40.4975 61.1804 40.4673 61.1093 40.4673 61.0309C40.4697 60.9003 40.5138 60.8014 40.5996 60.7353C40.682 60.6716 40.7841 60.6397 40.9075 60.6397C41.1451 60.6446 41.3632 60.7149 41.5616 60.8496L41.7846 60.5107C41.542 60.3302 41.257 60.2363 40.9287 60.2289C40.6559 60.2314 40.446 60.3049 40.2974 60.4494C40.1447 60.5956 40.0679 60.7876 40.0679 61.026C40.0679 61.2245 40.1292 61.3927 40.2508 61.5316C40.3693 61.6663 40.5416 61.7529 40.7686 61.7913C40.8952 61.81 41.012 61.8272 41.1182 61.8419C41.3501 61.8827 41.4644 62.0052 41.462 62.2086C41.4571 62.4569 41.2831 62.5835 40.9401 62.5884C40.6502 62.5859 40.4003 62.4953 40.1896 62.3164L39.9274 62.6276C40.2084 62.8758 40.544 63 40.9352 63C41.5396 62.9926 41.8483 62.728 41.8613 62.207C41.8613 62.0134 41.8025 61.8435 41.6858 61.6982C41.5682 61.5487 41.3852 61.4572 41.1378 61.4221Z" fill="white"/>
<path d="M44.1873 60.2518L43.2277 62.9771H43.6515L43.8541 62.3679H44.8553L45.0603 62.9771H45.4817L44.5221 60.2518H44.1873ZM43.97 62.0012L44.3522 60.8088H44.3596L44.7418 62.0012H43.97Z" fill="white"/>
<path d="M47.3854 60.2518H46.9861V62.9771H48.6725V62.5884H47.3854V60.2518Z" fill="white"/>
<path d="M51.6919 62.0102C51.6894 62.1956 51.6388 62.3377 51.5391 62.4348C51.4379 62.5369 51.3088 62.5884 51.1529 62.5884C50.9969 62.5884 50.8695 62.5369 50.7706 62.4348C50.6694 62.3377 50.6171 62.1956 50.6147 62.0102V60.2518H50.2145V62.0551C50.2169 62.3417 50.3084 62.5688 50.4897 62.7362C50.6669 62.9093 50.8882 62.9967 51.1529 63C51.4224 62.9975 51.6445 62.9093 51.8209 62.7362C51.9957 62.568 52.0863 62.3409 52.0912 62.0543V60.2518H51.6919V62.0102Z" fill="white"/>
<path d="M55.5515 60.7116C55.3727 60.4078 55.1048 60.2543 54.7471 60.2518H53.8234V62.9771H54.7201C54.9178 62.9771 55.0852 62.9322 55.2216 62.8424C55.3596 62.7591 55.4666 62.6529 55.5442 62.5247C55.5736 62.4757 55.5981 62.4291 55.6185 62.385C55.6381 62.3393 55.652 62.2862 55.6618 62.2282C55.6822 62.1122 55.6928 61.9081 55.6928 61.6149C55.6928 61.3397 55.6863 61.1461 55.6732 61.0334C55.6561 60.9207 55.6161 60.8137 55.5515 60.7116ZM55.2771 62.1278C55.2649 62.2176 55.2363 62.2919 55.1922 62.3507C55.0909 62.5092 54.9276 62.5884 54.703 62.5884H54.2244V60.6398H54.703C54.9064 60.6349 55.0632 60.7116 55.1742 60.8701C55.2289 60.9338 55.2632 61.0171 55.2771 61.1192C55.2877 61.2221 55.2935 61.3911 55.2935 61.6288C55.2935 61.873 55.2877 62.0387 55.2771 62.1278Z" fill="white"/>
</svg>
