<svg width="36" height="27" viewBox="0 0 36 27" fill="none" xmlns="http://www.w3.org/2000/svg">
    <path
        d="M35.5 0.798616C35.5 0.35836 35.144 0.00180989 34.7054 0.00180989L34.7027 0.00226298V1.28626e-07L16.5026 1.28626e-07V0.00633473C16.2933 0.00740581 16.0929 0.0912843 15.945 0.239732C15.797 0.38818 15.7135 0.589194 15.7126 0.799069L15.7121 3.66866C15.7117 3.68223 15.708 3.69445 15.708 3.70802C15.708 4.14782 16.0636 4.50437 16.5026 4.50483H34.7027L34.7054 4.50528C35.1445 4.50528 35.5 4.14828 35.5 3.70847V0.798616ZM35.5 7.54092C35.5 7.10067 35.144 6.74412 34.7054 6.74412L34.7027 6.74457V6.74231H16.5026V6.74864C16.2933 6.74971 16.0929 6.83359 15.945 6.98204C15.797 7.13049 15.7135 7.3315 15.7126 7.54138L15.7121 10.4114C15.7117 10.425 15.708 10.4372 15.708 10.4508C15.708 10.8906 16.0636 11.2471 16.5026 11.2476H34.7027H34.7054C35.1445 11.2476 35.5 10.8906 35.5 10.4508V7.54092ZM11.2159 0.796806C11.216 0.692151 11.1955 0.588511 11.1555 0.491811C11.1156 0.395111 11.0571 0.307249 10.9833 0.233246C10.9095 0.159244 10.8219 0.100555 10.7255 0.0605327C10.6291 0.0205105 10.5257 -5.93512e-05 10.4213 1.28626e-07C10.4019 1.28626e-07 10.3834 0.00452508 10.3645 0.00588251H0.851413C0.832463 0.00452508 0.813963 1.28626e-07 0.794562 1.28626e-07C0.355545 1.28626e-07 0 0.357002 0 0.796806V10.4503C0 10.8901 0.355545 11.2471 0.794562 11.2471H10.4213C10.8604 11.2471 11.2159 10.8901 11.2159 10.4503V0.796806ZM35.5 16.5515C35.5 16.1112 35.144 15.7547 34.7054 15.7547L34.7027 15.7551V15.7529H16.5026V15.7592C16.2933 15.7603 16.0929 15.8441 15.945 15.9926C15.797 16.141 15.7135 16.3421 15.7126 16.5519L15.7121 19.422C15.7117 19.4355 15.708 19.4478 15.708 19.4613C15.708 19.9011 16.0636 20.2581 16.5026 20.2581H34.7027H34.7054C35.1445 20.2581 35.5 19.9011 35.5 19.4613V16.5515ZM35.5 23.2938C35.5 22.8535 35.144 22.497 34.7054 22.497L34.7027 22.4974V22.4952H16.5026V22.5015C16.2933 22.5026 16.0929 22.5865 15.945 22.7349C15.797 22.8834 15.7135 23.0844 15.7126 23.2942L15.7121 26.1638C15.7117 26.1774 15.708 26.1896 15.708 26.2032C15.708 26.643 16.0636 27 16.5026 27H34.7027H34.7054C35.1445 27 35.5 26.643 35.5 26.2032V23.2938ZM11.2159 16.5497C11.2159 16.1094 10.8604 15.7524 10.4213 15.7524C10.4019 15.7524 10.3834 15.7569 10.3645 15.7583H0.851413C0.832463 15.7569 0.813963 15.7524 0.794562 15.7524C0.355545 15.7524 0 16.1094 0 16.5497V26.2032C0 26.643 0.355996 27 0.794562 27H10.4213C10.8604 27 11.2159 26.643 11.2159 26.2032V16.5497Z"
        fill="white" />
</svg>