<svg width="349" height="349" viewBox="0 0 349 349" fill="none" xmlns="http://www.w3.org/2000/svg">
<path d="M349 266.915H0V267.09H349V266.915Z" fill="#EBEBEB"/>
<path d="M314.03 278.146H290.912V278.32H314.03V278.146Z" fill="#EBEBEB"/>
<path d="M231.192 280.045H225.126V280.219H231.192V280.045Z" fill="#EBEBEB"/>
<path d="M290.214 271.669H256.941V271.843H290.214V271.669Z" fill="#EBEBEB"/>
<path d="M53.1457 272.841H36.6171V273.016H53.1457V272.841Z" fill="#EBEBEB"/>
<path d="M77.4012 272.841H59.3579V273.016H77.4012V272.841Z" fill="#EBEBEB"/>
<path d="M136.885 275.787H91.7661V275.961H136.885V275.787Z" fill="#EBEBEB"/>
<path d="M165.426 235.784H30.6491C29.5933 235.783 28.5813 235.362 27.8354 234.615C27.0895 233.867 26.6705 232.855 26.6705 231.799V42.3407C26.6797 41.2909 27.1027 40.2872 27.8477 39.5475C28.5926 38.8077 29.5993 38.3918 30.6491 38.39H165.426C166.483 38.39 167.497 38.8099 168.244 39.5574C168.992 40.3048 169.412 41.3186 169.412 42.3756V231.799C169.412 232.856 168.992 233.87 168.244 234.617C167.497 235.365 166.483 235.784 165.426 235.784ZM30.6491 38.5296C29.6396 38.5315 28.672 38.9338 27.9588 39.6483C27.2456 40.3628 26.845 41.3311 26.845 42.3407V231.799C26.845 232.808 27.2456 233.777 27.9588 234.491C28.672 235.206 29.6396 235.608 30.6491 235.61H165.426C166.436 235.608 167.404 235.206 168.119 234.492C168.833 233.777 169.235 232.809 169.237 231.799V42.3407C169.235 41.3305 168.833 40.3622 168.119 39.6479C167.404 38.9336 166.436 38.5315 165.426 38.5296H30.6491Z" fill="#EBEBEB"/>
<path d="M122.457 78.9229H49.1252V138.023H122.457V78.9229Z" fill="#EBEBEB"/>
<path d="M118.513 134.086V82.8596H53.055V134.086H118.513Z" fill="#FAFAFA"/>
<path d="M110.884 109.146V106.696H60.6911V109.146H110.884Z" fill="#E0E0E0"/>
<path d="M110.884 114.723V112.273H60.6911V114.723H110.884Z" fill="#E0E0E0"/>
<path d="M110.884 120.293V117.843H60.6911V120.293H110.884Z" fill="#E0E0E0"/>
<path d="M98.2993 125.87V123.42H73.276V125.87H98.2993Z" fill="#E0E0E0"/>
<path d="M60.726 82.8596C60.7261 83.8656 60.5271 84.8616 60.1407 85.7904C59.7542 86.7193 59.1879 87.5625 58.4743 88.2715C57.7607 88.9806 56.9139 89.5416 55.9826 89.9221C55.0513 90.3026 54.054 90.4952 53.048 90.4887C51.66 90.4921 50.2979 90.113 49.1113 89.3929V78.9229H59.5813C60.3149 80.1061 60.7108 81.4675 60.726 82.8596Z" fill="#EBEBEB"/>
<path d="M122.457 78.9229V89.3929C120.998 90.2706 119.287 90.6349 117.597 90.4278C115.906 90.2207 114.334 89.454 113.13 88.2499C111.926 87.0458 111.159 85.4735 110.952 83.7832C110.745 82.093 111.109 80.3821 111.987 78.9229H122.457Z" fill="#EBEBEB"/>
<path d="M60.726 134.093C60.7284 135.478 60.3519 136.837 59.6371 138.023H49.1671V127.553C50.3252 126.859 51.6463 126.485 52.996 126.468C54.3456 126.452 55.6756 126.793 56.8503 127.458C58.0251 128.123 59.0027 129.087 59.6835 130.252C60.3643 131.418 60.724 132.743 60.726 134.093Z" fill="#EBEBEB"/>
<path d="M122.457 127.546V138.016H111.987C111.267 136.832 110.888 135.472 110.891 134.086C110.893 132.734 111.253 131.407 111.934 130.24C112.616 129.073 113.594 128.107 114.771 127.442C115.947 126.776 117.279 126.435 118.631 126.452C119.982 126.469 121.305 126.844 122.464 127.539L122.457 127.546Z" fill="#EBEBEB"/>
<path d="M92.2048 96.3822C92.7798 92.8396 90.3741 89.5016 86.8316 88.9265C83.289 88.3515 79.951 90.7572 79.3759 94.2997C78.8009 97.8423 81.2066 101.18 84.7491 101.755C88.2917 102.33 91.6297 99.9247 92.2048 96.3822Z" fill="#E0E0E0"/>
<path d="M181.717 182.981H36.6171V188.202H181.717V182.981Z" fill="#EBEBEB"/>
<path d="M180.461 188.202H133.318V266.915H180.461V188.202Z" fill="#F5F5F5"/>
<path d="M85.5538 188.202H38.4109V266.915H85.5538V188.202Z" fill="#F5F5F5"/>
<path d="M40.0233 188.202H38.4109V266.915H40.0233V188.202Z" fill="#EBEBEB"/>
<path d="M134.93 188.202H133.318V266.915H134.93V188.202Z" fill="#EBEBEB"/>
<path d="M63.169 170.396H54.4999L55.1979 182.981H62.471L63.169 170.396Z" fill="#F0F0F0"/>
<path d="M138.434 177.522H93.1411V182.981H138.434V177.522Z" fill="#F0F0F0"/>
<path d="M138.441 178.165H117.557V182.346H138.441V178.165Z" fill="#FAFAFA"/>
<path d="M237.816 241.662C250.028 241.662 259.928 231.761 259.928 219.549C259.928 207.336 250.028 197.436 237.816 197.436C225.603 197.436 215.703 207.336 215.703 219.549C215.703 231.761 225.603 241.662 237.816 241.662Z" fill="white"/>
<path d="M237.816 241.934C233.388 241.935 229.059 240.623 225.377 238.165C221.695 235.706 218.825 232.21 217.13 228.12C215.434 224.03 214.99 219.529 215.853 215.186C216.716 210.843 218.847 206.854 221.978 203.723C225.108 200.592 229.097 198.459 233.439 197.595C237.781 196.73 242.283 197.173 246.373 198.867C250.464 200.561 253.96 203.431 256.42 207.112C258.88 210.793 260.193 215.121 260.193 219.549C260.188 225.483 257.829 231.172 253.633 235.369C249.438 239.565 243.749 241.926 237.816 241.934ZM237.816 197.716C233.496 197.716 229.273 198.997 225.681 201.397C222.089 203.797 219.29 207.208 217.637 211.2C215.984 215.191 215.552 219.583 216.395 223.819C217.239 228.056 219.319 231.948 222.375 235.002C225.43 238.056 229.322 240.136 233.559 240.978C237.796 241.819 242.188 241.386 246.178 239.732C250.169 238.078 253.58 235.277 255.979 231.685C258.378 228.092 259.657 223.869 259.656 219.549C259.65 213.759 257.347 208.208 253.253 204.114C249.158 200.02 243.606 197.719 237.816 197.716Z" fill="#19A8E4"/>
<path d="M241.375 207.013H234.256V232.085H241.375V207.013Z" fill="#19A8E4"/>
<path d="M250.352 223.116V215.996H225.28V223.116H250.352Z" fill="#19A8E4"/>
<path d="M88.0248 52.3989L87.5502 51.8893C90.7813 48.8349 94.8812 46.8593 99.2836 46.2355L99.3813 46.9335C95.1209 47.5344 91.1524 49.4442 88.0248 52.3989Z" fill="#19A8E4"/>
<path d="M82.8596 60.028L82.2104 59.7767C82.9151 57.9986 83.854 56.3225 85.0024 54.793L85.5609 55.2118C84.4534 56.692 83.5452 58.3113 82.8596 60.028Z" fill="#19A8E4"/>
<path d="M102.334 86.7684C112.912 86.7684 121.487 78.1933 121.487 67.6153C121.487 57.0373 112.912 48.4622 102.334 48.4622C91.7558 48.4622 83.1807 57.0373 83.1807 67.6153C83.1807 78.1933 91.7558 86.7684 102.334 86.7684Z" fill="#19A8E4"/>
<path d="M113.774 58.988C113.036 58.2222 112.153 57.6112 111.177 57.1906C110.2 56.77 109.15 56.5484 108.086 56.5387C107.023 56.5289 105.969 56.7312 104.984 57.1338C104 57.5364 103.106 58.1311 102.355 58.8833C101.604 58.1314 100.71 57.5367 99.7268 57.1343C98.7432 56.7318 97.6893 56.5295 96.6266 56.5392C95.5639 56.549 94.5138 56.7706 93.5378 57.191C92.5618 57.6115 91.6795 58.2224 90.9424 58.988C89.498 60.5504 88.7198 62.6146 88.7732 64.7418C88.8267 66.8689 89.7075 68.8914 91.2286 70.3793L100.303 79.4533C100.575 79.7256 100.898 79.9416 101.254 80.0889C101.609 80.2363 101.991 80.3121 102.376 80.3121C102.761 80.3121 103.142 80.2363 103.498 80.0889C103.853 79.9416 104.176 79.7256 104.449 79.4533L113.523 70.3793C115.039 68.8868 115.913 66.8618 115.96 64.7347C116.007 62.6075 115.223 60.546 113.774 58.988Z" fill="white"/>
<path d="M102.334 75.9843C102.193 75.9795 102.057 75.9323 101.944 75.8488C101.83 75.7654 101.745 75.6496 101.699 75.5167L97.6571 63.6995L95.968 68.6414C95.92 68.7787 95.8303 68.8976 95.7114 68.9814C95.5925 69.0653 95.4504 69.1099 95.3049 69.109H88.5413C88.3561 69.109 88.1786 69.0355 88.0477 68.9046C87.9168 68.7737 87.8433 68.5961 87.8433 68.411C87.8433 68.2259 87.9168 68.0484 88.0477 67.9175C88.1786 67.7866 88.3561 67.713 88.5413 67.713H94.8233L97.015 61.3124C97.0625 61.1752 97.1515 61.0563 97.2697 60.9721C97.3879 60.8879 97.5295 60.8427 97.6746 60.8427C97.8197 60.8427 97.9613 60.8879 98.0795 60.9721C98.1977 61.0563 98.2867 61.1752 98.3342 61.3124L102.445 73.3389L106.438 63.9368C106.488 63.817 106.571 63.7136 106.677 63.6384C106.784 63.5632 106.908 63.5191 107.038 63.5111C107.169 63.5035 107.299 63.5329 107.414 63.5959C107.529 63.6588 107.623 63.7528 107.687 63.867L109.795 67.706H116.154C116.339 67.706 116.517 67.7796 116.648 67.9105C116.779 68.0414 116.852 68.2189 116.852 68.404C116.852 68.5892 116.779 68.7667 116.648 68.8976C116.517 69.0285 116.339 69.102 116.154 69.102H109.391C109.266 69.1031 109.143 69.0706 109.035 69.008C108.927 68.9454 108.837 68.8549 108.776 68.7461L107.122 65.7865L102.976 75.5585C102.922 75.6847 102.833 75.7923 102.719 75.8681C102.605 75.9438 102.471 75.9842 102.334 75.9843Z" fill="#19A8E4"/>
<path d="M208.604 266.078H135.754C134.567 266.091 133.39 265.857 132.298 265.391C131.207 264.925 130.224 264.236 129.412 263.37C128.601 262.503 127.979 261.477 127.585 260.357C127.192 259.237 127.036 258.048 127.127 256.864L138.902 82.364C139.108 79.8719 140.232 77.5453 142.058 75.8361C143.883 74.1269 146.278 73.1573 148.779 73.1155H221.643C222.833 73.1019 224.013 73.3368 225.107 73.8051C226.202 74.2734 227.186 74.9648 227.998 75.8352C228.81 76.7056 229.432 77.7358 229.823 78.86C230.214 79.9842 230.366 81.1776 230.27 82.364L218.474 256.864C218.262 259.349 217.135 261.667 215.311 263.369C213.488 265.072 211.098 266.037 208.604 266.078Z" fill="#263238"/>
<path d="M224.756 144.179H222.92C222.588 144.183 222.258 144.118 221.953 143.987C221.647 143.856 221.372 143.663 221.145 143.42C220.919 143.177 220.745 142.889 220.636 142.575C220.527 142.261 220.485 141.928 220.512 141.596L222.767 108.239C222.819 107.541 223.132 106.889 223.642 106.411C224.153 105.932 224.824 105.663 225.524 105.656H227.36C227.692 105.652 228.022 105.718 228.327 105.848C228.633 105.979 228.908 106.172 229.134 106.415C229.361 106.658 229.535 106.946 229.644 107.26C229.753 107.574 229.795 107.908 229.768 108.239L227.513 141.596C227.461 142.294 227.148 142.946 226.638 143.425C226.127 143.903 225.456 144.172 224.756 144.179Z" fill="#263238"/>
<path d="M137.841 121.927H136.012C135.742 121.93 135.473 121.878 135.224 121.772C134.975 121.667 134.75 121.51 134.565 121.314C134.379 121.117 134.236 120.883 134.145 120.629C134.054 120.374 134.018 120.103 134.037 119.833L134.854 107.785C134.905 107.22 135.164 106.693 135.58 106.307C135.996 105.92 136.54 105.701 137.108 105.691H138.944C139.214 105.69 139.481 105.744 139.729 105.85C139.976 105.956 140.2 106.113 140.384 106.309C140.569 106.506 140.711 106.738 140.802 106.992C140.893 107.246 140.93 107.516 140.912 107.785L140.096 119.833C140.045 120.399 139.787 120.926 139.371 121.313C138.954 121.7 138.409 121.919 137.841 121.927Z" fill="#19A8E4"/>
<path d="M136.389 143.439H134.553C134.283 143.442 134.016 143.388 133.767 143.282C133.519 143.176 133.295 143.02 133.11 142.823C132.926 142.627 132.783 142.394 132.693 142.139C132.603 141.885 132.566 141.614 132.585 141.345L133.402 129.298C133.453 128.732 133.712 128.205 134.128 127.819C134.544 127.432 135.088 127.213 135.656 127.204H137.506C137.776 127.202 138.043 127.256 138.291 127.362C138.539 127.469 138.762 127.625 138.947 127.821C139.131 128.018 139.274 128.251 139.364 128.504C139.455 128.758 139.493 129.028 139.474 129.298L138.658 141.345C138.607 141.914 138.347 142.443 137.928 142.83C137.508 143.217 136.96 143.434 136.389 143.439Z" fill="#19A8E4"/>
<path d="M207.062 266.078H134.211C133.024 266.091 131.847 265.857 130.756 265.391C129.664 264.925 128.681 264.236 127.87 263.37C127.058 262.503 126.436 261.477 126.043 260.357C125.649 259.237 125.493 258.048 125.584 256.864L137.366 82.3641C137.579 79.871 138.712 77.5464 140.544 75.8421C142.376 74.1379 144.776 73.176 147.278 73.1435H220.1C221.288 73.1302 222.465 73.3643 223.558 73.8309C224.65 74.2976 225.633 74.9864 226.445 75.8538C227.256 76.7211 227.878 77.7478 228.271 78.8686C228.664 79.9895 228.82 81.1799 228.728 82.3641L216.938 256.864C216.726 259.35 215.598 261.67 213.773 263.372C211.949 265.074 209.557 266.038 207.062 266.078Z" fill="#19A8E4"/>
<path opacity="0.3" d="M126.352 254.91L137.855 84.6255H227.939L216.436 254.91H126.352Z" fill="white"/>
<path opacity="0.1" d="M161.915 254.91L194.065 84.6255H214.244L182.094 254.91H161.915Z" fill="white"/>
<path opacity="0.1" d="M146.671 254.91L178.821 84.6255H189.046L156.896 254.91H146.671Z" fill="white"/>
<path d="M174.598 77.4222H192.166C192.313 77.4197 192.459 77.448 192.594 77.5054C192.729 77.5627 192.85 77.6477 192.95 77.755C193.05 77.8623 193.126 77.9894 193.174 78.128C193.222 78.2667 193.24 78.4138 193.227 78.56C193.203 78.8675 193.065 79.155 192.841 79.3666C192.616 79.5782 192.321 79.6987 192.013 79.7047H174.444C174.297 79.7062 174.152 79.677 174.017 79.6188C173.882 79.5607 173.76 79.475 173.66 79.3672C173.56 79.2594 173.484 79.1319 173.436 78.9929C173.389 78.8539 173.371 78.7064 173.383 78.56C173.408 78.2531 173.546 77.9664 173.77 77.7559C173.995 77.5455 174.29 77.4265 174.598 77.4222Z" fill="white"/>
<path d="M170.94 282.865L164.784 283.451L162.564 269.247L168.72 268.653L170.94 282.865Z" fill="#FFB573"/>
<path d="M164.079 280.443L170.528 278.439C170.64 278.401 170.761 278.407 170.868 278.456C170.975 278.506 171.058 278.595 171.101 278.704L173.195 283.821C173.247 283.958 173.27 284.104 173.262 284.251C173.255 284.397 173.217 284.541 173.152 284.672C173.086 284.803 172.994 284.919 172.881 285.013C172.769 285.107 172.638 285.176 172.497 285.217C170.165 285.915 167.946 286.075 165.133 287.311C161.845 288.707 160.47 290.577 156.931 290.577C154.398 290.577 153.825 288.253 154.9 287.932C159.786 286.452 159.144 285.238 162.69 281.42C163.059 280.977 163.538 280.64 164.079 280.443Z" fill="#263238"/>
<path opacity="0.2" d="M162.564 269.247L163.709 276.576L169.872 275.982L168.727 268.653L162.564 269.247Z" fill="black"/>
<path d="M167.017 89.7628C158.941 88.8136 150.908 89.4487 142.846 91.0123C141.502 91.273 140.277 91.9548 139.347 92.9588C138.417 93.9628 137.831 95.2368 137.673 96.5963C136.801 104.316 135.803 121.62 139.698 147.432L172.699 144.64C172.762 139.956 169.432 118.618 172.183 96.4776C172.295 95.696 172.25 94.8998 172.05 94.136C171.85 93.3721 171.498 92.6561 171.017 92.0303C170.535 91.4044 169.933 90.8813 169.247 90.4918C168.56 90.1024 167.802 89.8545 167.017 89.7628Z" fill="white"/>
<path d="M147.801 96.3799L148.981 98.7391C149.036 98.8581 149.124 98.9592 149.233 99.0308C149.343 99.1024 149.471 99.1416 149.602 99.1439L150.88 99.2137C151.107 99.2236 151.332 99.1546 151.515 99.0183L153.713 97.378L150.998 95.4026L147.801 96.3799Z" fill="#263238"/>
<path d="M150.921 98.5367C150.456 98.321 149.929 98.2789 149.435 98.418C148.395 102.083 147.257 112.601 147.138 117.264C150.293 126.457 151.326 127.385 151.326 127.385L152.925 116.322C152.925 116.322 151.131 105.007 150.921 98.5367Z" fill="#263238"/>
<path d="M160.03 73.8484C159.277 78.3994 158.634 86.7126 161.901 89.6512C159.507 92.164 156.373 95.0746 150.998 95.4027C145.624 95.7307 146.454 92.0104 147.815 90.0211C152.834 88.6809 152.59 84.9397 151.606 81.4427L160.03 73.8484Z" fill="#FFB573"/>
<path d="M163.269 89.2533C162.889 89.0891 162.494 88.9606 162.09 88.8694C161.991 88.8432 161.886 88.8502 161.791 88.8893C161.697 88.9284 161.618 88.9974 161.566 89.0858C161.049 89.9652 159.472 93.895 150.998 95.4026C152.394 96.2263 154.244 98.781 155.04 100.009C157.58 98.6902 164.19 94.7465 163.562 89.6441C163.549 89.5599 163.516 89.4801 163.465 89.4119C163.414 89.3437 163.346 89.2892 163.269 89.2533Z" fill="#F5F5F5"/>
<path d="M147.864 90.2305C147.882 90.1511 147.88 90.0684 147.858 89.9901C147.836 89.9118 147.794 89.8403 147.737 89.782C147.68 89.7237 147.61 89.6806 147.532 89.6566C147.454 89.6325 147.372 89.6282 147.292 89.6442C146.999 89.7011 146.709 89.7781 146.426 89.8745C146.361 89.9001 146.3 89.9354 146.245 89.9792C145.596 90.5795 142.057 95.6888 145.372 99.821C146.07 98.6972 148.479 96.1495 150.998 95.4027C148.611 94.3277 147.439 92.3245 147.864 90.2305Z" fill="#F5F5F5"/>
<path opacity="0.2" d="M156.596 76.9476L151.613 81.4427C151.853 82.2546 152.021 83.0861 152.115 83.9276C154.042 83.5995 156.631 81.4148 156.771 79.3906C156.865 78.5725 156.806 77.744 156.596 76.9476Z" fill="black"/>
<path d="M149.937 60.0909C145.638 61.773 145.358 65.3049 145.749 69.1649C146.14 73.0248 150.342 70.4701 151.277 68.055C152.213 65.64 155.891 57.7595 149.937 60.0909Z" fill="#263238"/>
<path d="M163.653 67.7898C162.459 73.8694 162.062 77.478 158.586 80.277C153.344 84.465 146.245 80.8494 145.617 74.5813C145.051 68.9345 147.097 59.9233 153.358 58.1644C154.723 57.7623 156.17 57.7236 157.555 58.0518C158.94 58.3801 160.215 59.0641 161.255 60.0361C162.295 61.0082 163.063 62.2348 163.483 63.5946C163.904 64.9544 163.962 66.4004 163.653 67.7898Z" fill="#FFB573"/>
<path d="M163.402 72.8224C158.285 73.0946 159.367 70.1909 160.296 68.5227C161.224 66.8545 159.332 64.0974 160.568 62.6665C158.362 63.546 156.038 62.82 153.085 60.7679C150.796 59.1695 147.927 65.5562 145.135 62.3524C142.497 59.33 144.947 54.7721 151.284 54.0392C157.622 53.3063 158.774 57.7875 162.934 57.3896C167.094 56.9917 165.649 60.4189 164.833 61.1169C168.323 61.3472 170.228 64.6837 163.402 72.8224Z" fill="#263238"/>
<path d="M164.03 61.5427C164.83 61.1036 165.499 60.4586 165.967 59.6745C166.434 58.8903 166.684 57.9954 166.689 57.0825C168.071 59.5045 167.925 62.2546 164.03 61.5427Z" fill="#263238"/>
<path d="M150.768 74.2812C151.324 74.3774 151.894 74.3603 152.443 74.2307C152.993 74.1012 153.51 73.8619 153.965 73.5273C153.979 73.5143 153.989 73.4986 153.997 73.4812C154.004 73.4638 154.008 73.4451 154.008 73.4261C154.008 73.4072 154.004 73.3885 153.997 73.3711C153.989 73.3537 153.979 73.338 153.965 73.3249C153.938 73.2989 153.901 73.2844 153.864 73.2844C153.826 73.2844 153.79 73.2989 153.762 73.3249C153.253 73.6858 152.667 73.9234 152.051 74.0191C151.434 74.1148 150.804 74.0659 150.21 73.8763C150.172 73.8669 150.132 73.8716 150.097 73.8896C150.062 73.9076 150.035 73.9376 150.021 73.9741C150.01 74.0111 150.014 74.0509 150.033 74.0849C150.051 74.1188 150.082 74.1442 150.119 74.1555C150.331 74.2167 150.548 74.2588 150.768 74.2812Z" fill="#263238"/>
<path d="M164.889 74.686C163.933 75.9177 162.532 76.7248 160.987 76.9336C158.956 77.1988 158.278 75.3072 159.13 73.5413C159.905 71.9499 161.922 69.8977 163.793 70.4492C165.663 71.0006 166.061 73.1504 164.889 74.686Z" fill="#FFB573"/>
<path d="M162.871 206.866C163.116 188.642 165.447 145.233 165.447 145.233L139.719 147.404C139.719 147.404 144.835 192.139 147.92 210.733C151.131 230.061 160.98 275.34 160.98 275.34L171.45 274.447C171.45 274.447 167.625 220.959 162.871 206.866Z" fill="#263238"/>
<path d="M160.351 275.626L172.769 274.572L172.28 270.566L159.339 271.431L160.351 275.626Z" fill="#19A8E4"/>
<path d="M154.481 68.1527C154.418 68.6483 154.097 69.0252 153.783 68.9903C153.469 68.9554 153.253 68.5227 153.323 68.0201C153.392 67.5176 153.706 67.1476 154.021 67.1825C154.335 67.2174 154.551 67.6572 154.481 68.1527Z" fill="#263238"/>
<path d="M148.786 67.706C148.723 68.2086 148.402 68.5785 148.088 68.5436C147.773 68.5087 147.557 68.076 147.627 67.5804C147.697 67.0848 148.011 66.7079 148.325 66.7428C148.639 66.7777 148.855 67.1825 148.786 67.706Z" fill="#263238"/>
<path d="M150.391 68.2924C149.55 69.584 148.541 70.7577 147.39 71.7824C148.13 72.5571 149.658 72.3477 149.658 72.3477L150.391 68.2924Z" fill="#ED893E"/>
<path opacity="0.4" d="M145.184 67.8317C145.079 68.6274 145.882 69.2905 146.992 69.4301C148.102 69.5697 149.128 68.9624 149.225 68.1667" fill="#19A8E4"/>
<path opacity="0.4" d="M151.78 68.5715C151.626 69.3603 152.401 70.0722 153.49 70.2816C154.579 70.491 155.647 69.9326 155.794 69.1509" fill="#19A8E4"/>
<path d="M153.923 70.498C153.797 70.505 153.672 70.505 153.546 70.498C153.009 70.4339 152.505 70.2074 152.101 69.8489C151.925 69.6981 151.787 69.5073 151.7 69.2923C151.612 69.0773 151.577 68.8446 151.599 68.6134C151.244 68.4592 150.867 68.3649 150.482 68.3342C150.094 68.2376 149.689 68.2376 149.302 68.3342C149.204 69.1858 148.143 69.7721 146.957 69.6255C146.42 69.5669 145.915 69.3424 145.512 68.9834C145.336 68.8319 145.199 68.6409 145.112 68.4261C145.025 68.2114 144.99 67.9789 145.009 67.7479L145.344 67.7898C145.33 67.9683 145.359 68.1476 145.428 68.3127C145.498 68.4778 145.605 68.624 145.742 68.7391C146.094 69.0486 146.533 69.2412 146.999 69.2905C148.004 69.4231 148.897 68.9555 148.988 68.2575C149.037 67.8666 149.847 67.8945 150.517 67.9783C151.187 68.062 151.982 68.2505 151.913 68.6344C151.898 68.8129 151.926 68.9924 151.996 69.1576C152.065 69.3228 152.173 69.4689 152.311 69.5837C152.666 69.889 153.104 70.0835 153.569 70.143C154.034 70.2025 154.507 70.1246 154.928 69.9187C155.091 69.843 155.233 69.7293 155.342 69.5872C155.451 69.445 155.525 69.2786 155.556 69.102V68.9345L164.17 70.0443L164.128 70.3794L155.835 69.3114C155.775 69.5057 155.676 69.6857 155.544 69.8405C155.412 69.9953 155.25 70.1217 155.068 70.2119C154.715 70.3986 154.322 70.4968 153.923 70.498Z" fill="#263238"/>
<path d="M156.673 65.961C156.723 65.9612 156.771 65.9466 156.813 65.9192C156.88 65.8797 156.93 65.8152 156.951 65.7395C156.972 65.6638 156.962 65.583 156.924 65.5143C156.708 65.1083 156.395 64.7621 156.012 64.5064C155.63 64.2507 155.19 64.0934 154.733 64.0485C154.654 64.0447 154.577 64.0718 154.518 64.124C154.46 64.1762 154.424 64.2493 154.418 64.3277C154.415 64.4043 154.441 64.4794 154.492 64.5369C154.543 64.5943 154.614 64.6294 154.691 64.6348C155.053 64.6774 155.399 64.8077 155.7 65.0145C156 65.2212 156.246 65.4983 156.415 65.8214C156.441 65.8659 156.479 65.9023 156.525 65.9269C156.57 65.9515 156.621 65.9633 156.673 65.961Z" fill="#263238"/>
<path d="M146.943 65.1723C146.991 65.177 147.04 65.17 147.085 65.1517C147.13 65.1335 147.17 65.1046 147.201 65.0676C147.427 64.772 147.719 64.5335 148.053 64.371C148.388 64.2086 148.756 64.1268 149.128 64.1323C149.166 64.1361 149.205 64.1323 149.242 64.121C149.279 64.1097 149.314 64.0912 149.343 64.0666C149.373 64.0419 149.398 64.0116 149.416 63.9773C149.434 63.9431 149.445 63.9056 149.449 63.867C149.454 63.8294 149.451 63.7912 149.441 63.7546C149.431 63.718 149.414 63.6838 149.39 63.6539C149.367 63.624 149.338 63.5991 149.305 63.5806C149.272 63.562 149.235 63.5503 149.197 63.5459C148.729 63.5337 148.263 63.6315 147.839 63.8315C147.415 64.0315 147.043 64.3281 146.754 64.6977C146.705 64.757 146.68 64.8336 146.687 64.9108C146.693 64.9879 146.73 65.0593 146.789 65.1095C146.835 65.1422 146.887 65.1637 146.943 65.1723Z" fill="#263238"/>
<path d="M184.307 203.928C178.967 176.482 177.767 155.019 172.699 144.598L147.774 147.39C147.774 147.39 162.62 188.286 169.872 205.743C177.404 223.891 192.271 254.896 192.271 254.896H204.723C204.723 254.896 193.102 216.429 184.307 203.928Z" fill="#263238"/>
<path d="M105.3 100.03L102.606 98.3273C102.169 98.0456 101.647 97.9243 101.13 97.9841C100.614 98.0439 100.133 98.2812 99.7721 98.6554L97.9433 100.582C97.7463 100.79 97.5941 101.036 97.4961 101.305C97.398 101.574 97.3562 101.86 97.3732 102.146C97.3902 102.432 97.4657 102.712 97.595 102.967C97.7242 103.223 97.9046 103.449 98.1248 103.632L99.43 104.749C100.565 105.711 101.89 106.424 103.318 106.843L107.262 108.009L109.851 105.217C110.64 102.306 105.3 100.03 105.3 100.03Z" fill="#FFB573"/>
<path d="M145.184 98.7252C144.207 101.112 143.25 103.332 142.21 105.6C141.17 107.869 140.116 110.11 138.951 112.336C137.785 114.563 136.543 116.775 135.133 118.995C134.435 120.098 133.66 121.201 132.78 122.311C131.835 123.534 130.758 124.651 129.57 125.64C128.785 126.281 127.919 126.817 126.994 127.231C126.701 127.343 126.429 127.455 126.108 127.553L125.619 127.685C125.373 127.746 125.124 127.79 124.872 127.818C124.021 127.914 123.16 127.852 122.331 127.636C121.295 127.346 120.311 126.897 119.414 126.303C118.742 125.884 118.1 125.417 117.494 124.907C115.48 123.148 113.623 121.217 111.945 119.135C110.319 117.18 108.783 115.219 107.31 113.216C105.838 111.212 104.421 109.244 102.969 107.143L110.689 102.159C113.125 106.092 115.821 109.858 118.758 113.432C120.108 115.088 121.595 116.626 123.204 118.032C123.516 118.287 123.844 118.52 124.188 118.73C124.446 118.904 124.705 118.974 124.523 118.911C124.278 118.844 124.021 118.83 123.769 118.869C123.668 118.879 123.567 118.897 123.469 118.925H123.413C123.378 118.925 123.378 118.925 123.371 118.925C123.53 118.822 123.682 118.707 123.825 118.583C124.462 118.005 125.04 117.364 125.549 116.671C126.142 115.875 126.736 114.982 127.301 114.053C128.457 112.123 129.51 110.133 130.456 108.092C131.433 105.998 132.376 103.904 133.248 101.727C134.121 99.5488 134.951 97.3361 135.656 95.2212L145.184 98.7252Z" fill="#19A8E4"/>
<g opacity="0.6">
<path d="M145.184 98.7252C144.207 101.112 143.25 103.332 142.21 105.6C141.17 107.869 140.116 110.11 138.951 112.336C137.785 114.563 136.543 116.775 135.133 118.995C134.435 120.098 133.66 121.201 132.78 122.311C131.835 123.534 130.758 124.651 129.57 125.64C128.785 126.281 127.919 126.817 126.994 127.231C126.701 127.343 126.429 127.455 126.108 127.553L125.619 127.685C125.373 127.746 125.124 127.79 124.872 127.818C124.021 127.914 123.16 127.852 122.331 127.636C121.295 127.346 120.311 126.897 119.414 126.303C118.742 125.884 118.1 125.417 117.494 124.907C115.48 123.148 113.623 121.217 111.945 119.135C110.319 117.18 108.783 115.219 107.31 113.216C105.838 111.212 104.421 109.244 102.969 107.143L110.689 102.159C113.125 106.092 115.821 109.858 118.758 113.432C120.108 115.088 121.595 116.626 123.204 118.032C123.516 118.287 123.844 118.52 124.188 118.73C124.446 118.904 124.705 118.974 124.523 118.911C124.278 118.844 124.021 118.83 123.769 118.869C123.668 118.879 123.567 118.897 123.469 118.925H123.413C123.378 118.925 123.378 118.925 123.371 118.925C123.53 118.822 123.682 118.707 123.825 118.583C124.462 118.005 125.04 117.364 125.549 116.671C126.142 115.875 126.736 114.982 127.301 114.053C128.457 112.123 129.51 110.133 130.456 108.092C131.433 105.998 132.376 103.904 133.248 101.727C134.121 99.5488 134.951 97.3361 135.656 95.2212L145.184 98.7252Z" fill="white"/>
</g>
<path d="M163.458 88.0108C160.84 92.8968 151.522 111.512 150.391 123.002C146.266 112.532 147.166 89.3719 147.166 89.3719C144.226 89.6585 141.342 90.3636 138.602 91.4659C137.719 91.8288 136.953 92.4291 136.39 93.2004C135.827 93.9716 135.488 94.8836 135.412 95.8354C134.609 107.819 134.987 119.852 136.543 131.761C139.439 154.307 142.127 189.367 142.127 189.367C142.127 189.367 165.196 188.404 182.995 184.649C180.824 167.415 173.397 138.532 173.327 130.798C173.244 120.845 173.474 101.385 173.788 93.2598C173.841 92.1127 173.481 90.9846 172.774 90.0795C172.068 89.1744 171.061 88.552 169.935 88.3249C167.8 87.9292 165.621 87.8236 163.458 88.0108Z" fill="#19A8E4"/>
<path opacity="0.7" d="M163.458 88.0108C160.84 92.8968 151.522 111.513 150.391 123.002C146.266 112.532 147.166 89.3719 147.166 89.3719C144.226 89.6585 141.342 90.3636 138.602 91.4659C137.719 91.8288 136.953 92.4292 136.39 93.2004C135.827 93.9716 135.488 94.8836 135.412 95.8354C134.609 107.819 134.987 119.852 136.543 131.761C139.439 154.307 142.127 189.367 142.127 189.367C142.127 189.367 165.196 188.404 182.995 184.649C180.824 167.415 173.397 138.532 173.327 130.798C173.244 120.845 173.474 101.378 173.788 93.2528C173.854 92.1406 173.525 91.0408 172.86 90.147C172.195 89.2533 171.236 88.6229 170.151 88.3668C167.948 87.9349 165.694 87.8151 163.458 88.0108Z" fill="white"/>
<path d="M158.02 185.626C154.014 163.52 150.838 131.084 150.579 127.183H150.935C151.194 131.084 154.377 163.479 158.376 185.584L158.02 185.626Z" fill="white"/>
<path d="M156.024 146.301H134.749C134.319 146.281 133.907 146.123 133.575 145.85C133.243 145.577 133.008 145.204 132.906 144.786L125.793 111.722C125.741 111.541 125.733 111.351 125.769 111.167C125.805 110.982 125.884 110.809 125.999 110.661C126.115 110.513 126.265 110.395 126.435 110.316C126.606 110.237 126.792 110.2 126.98 110.207H148.248C148.679 110.225 149.092 110.383 149.426 110.656C149.759 110.929 149.995 111.303 150.098 111.722L157.21 144.786C157.263 144.967 157.271 145.157 157.235 145.341C157.199 145.526 157.12 145.699 157.004 145.847C156.889 145.995 156.739 146.113 156.569 146.192C156.398 146.271 156.212 146.308 156.024 146.301Z" fill="white"/>
<path d="M155.361 146.58H133.723C133.285 146.56 132.866 146.398 132.528 146.12C132.189 145.842 131.95 145.463 131.845 145.037L124.607 111.415C124.555 111.231 124.548 111.037 124.585 110.849C124.622 110.661 124.703 110.485 124.822 110.335C124.94 110.184 125.092 110.064 125.266 109.984C125.44 109.903 125.63 109.865 125.821 109.872H147.459C147.897 109.893 148.316 110.054 148.654 110.332C148.993 110.61 149.232 110.99 149.337 111.415L156.568 145.037C156.622 145.221 156.63 145.415 156.594 145.603C156.558 145.791 156.477 145.967 156.359 146.118C156.241 146.268 156.089 146.389 155.916 146.469C155.742 146.55 155.552 146.588 155.361 146.58Z" fill="#19A8E4"/>
<path d="M157.839 127.608L152.457 127.406C151.81 127.384 151.166 127.498 150.566 127.741L147.774 128.858C147.512 128.962 147.273 129.117 147.073 129.315C146.872 129.513 146.714 129.75 146.607 130.01C146.5 130.271 146.447 130.55 146.451 130.832C146.455 131.114 146.515 131.392 146.629 131.65L147.746 134.065C147.971 134.533 148.351 134.91 148.821 135.131C149.292 135.352 149.824 135.405 150.328 135.279L153.406 134.512C153.406 134.512 159.186 134.051 159.395 131.022L157.839 127.608Z" fill="#FFB573"/>
<path d="M172.699 91.0052C174.032 93.0992 175.254 95.0118 176.454 97.0639C177.655 99.116 178.835 101.147 179.944 103.269C181.054 105.391 182.108 107.583 183.064 109.928C183.561 111.156 183.985 112.412 184.335 113.69C184.785 115.248 184.992 116.865 184.949 118.486V118.758C184.951 118.804 184.951 118.851 184.949 118.897C184.949 119.149 184.879 119.4 184.83 119.651C184.782 119.902 184.719 120.098 184.649 120.349C184.579 120.6 184.502 120.733 184.426 120.929C184.159 121.532 183.816 122.1 183.406 122.618C182.836 123.33 182.188 123.976 181.473 124.544C180.375 125.409 179.208 126.182 177.983 126.855C175.828 128.033 173.61 129.091 171.338 130.023C169.139 130.959 166.948 131.81 164.742 132.613C162.536 133.416 160.365 134.191 158.069 134.958L155.41 126.164C157.504 125.591 159.64 124.886 161.727 124.174C163.814 123.462 165.915 122.667 167.897 121.836C169.842 121.032 171.739 120.116 173.579 119.093C174.355 118.663 175.095 118.17 175.791 117.62C175.974 117.481 176.138 117.319 176.28 117.138C176.22 117.206 176.172 117.284 176.14 117.369C176.14 117.432 176.105 117.473 176.07 117.55C176.043 117.632 176.022 117.716 176.008 117.801C175.978 117.909 175.96 118.019 175.952 118.13C175.952 118.171 175.952 118.178 175.952 118.164V118.116C175.903 117.453 175.774 116.799 175.568 116.168C175.289 115.254 174.958 114.357 174.577 113.481C173.723 111.549 172.759 109.668 171.687 107.848C170.598 105.977 169.439 104.107 168.197 102.264C166.955 100.421 165.684 98.5855 164.407 96.9103L172.699 91.0052Z" fill="#19A8E4"/>
<g opacity="0.7">
<path d="M172.699 91.0052C174.032 93.0992 175.254 95.0118 176.454 97.0639C177.655 99.116 178.835 101.147 179.944 103.269C181.054 105.391 182.108 107.583 183.064 109.928C183.561 111.156 183.985 112.412 184.335 113.69C184.785 115.248 184.992 116.865 184.949 118.486V118.758C184.951 118.804 184.951 118.851 184.949 118.897C184.949 119.149 184.879 119.4 184.83 119.651C184.782 119.902 184.719 120.098 184.649 120.349C184.579 120.6 184.502 120.733 184.426 120.929C184.159 121.532 183.816 122.1 183.406 122.618C182.836 123.33 182.188 123.976 181.473 124.544C180.375 125.409 179.208 126.182 177.983 126.855C175.828 128.033 173.61 129.091 171.338 130.023C169.139 130.959 166.948 131.81 164.742 132.613C162.536 133.416 160.365 134.191 158.069 134.958L155.41 126.164C157.504 125.591 159.64 124.886 161.727 124.174C163.814 123.462 165.915 122.667 167.897 121.836C169.842 121.032 171.739 120.116 173.579 119.093C174.355 118.663 175.095 118.17 175.791 117.62C175.974 117.481 176.138 117.319 176.28 117.138C176.22 117.206 176.172 117.284 176.14 117.369C176.14 117.432 176.105 117.473 176.07 117.55C176.043 117.632 176.022 117.716 176.008 117.801C175.978 117.909 175.96 118.019 175.952 118.13C175.952 118.171 175.952 118.178 175.952 118.164V118.116C175.903 117.453 175.774 116.799 175.568 116.168C175.289 115.254 174.958 114.357 174.577 113.481C173.723 111.549 172.759 109.668 171.687 107.848C170.598 105.977 169.439 104.107 168.197 102.264C166.955 100.421 165.684 98.5855 164.407 96.9103L172.699 91.0052Z" fill="white"/>
</g>
<path d="M165.635 115.226C165.589 115.225 165.543 115.213 165.503 115.19C165.463 115.166 165.429 115.133 165.405 115.093C165.385 115.063 165.37 115.028 165.364 114.992C165.357 114.956 165.357 114.919 165.365 114.883C165.373 114.848 165.388 114.814 165.409 114.784C165.43 114.754 165.457 114.729 165.489 114.709L166.578 114.011C167.594 113.37 168.392 112.436 168.865 111.332C169.339 110.227 169.466 109.005 169.23 107.827L167.038 96.7289C166.878 95.8991 166.442 95.1476 165.802 94.5961C165.161 94.0446 164.354 93.7252 163.509 93.6897C162.665 93.6542 161.833 93.9046 161.148 94.4004C160.464 94.8961 159.967 95.6083 159.737 96.4218L156.631 107.304C156.292 108.454 156.311 109.68 156.685 110.82C157.059 111.959 157.77 112.958 158.725 113.683L159.758 114.465C159.816 114.511 159.854 114.577 159.863 114.65C159.872 114.724 159.852 114.798 159.807 114.856C159.785 114.885 159.758 114.908 159.727 114.926C159.695 114.944 159.661 114.956 159.625 114.96C159.59 114.965 159.553 114.962 159.519 114.953C159.484 114.943 159.451 114.927 159.423 114.905L158.446 114.13C157.396 113.34 156.612 112.249 156.197 111.002C155.782 109.755 155.755 108.412 156.122 107.15L159.235 96.2682C159.502 95.339 160.074 94.5265 160.858 93.9612C161.642 93.3958 162.594 93.1103 163.56 93.1506C164.526 93.1908 165.45 93.5545 166.185 94.1831C166.92 94.8118 167.422 95.669 167.611 96.6172L169.802 107.722C170.061 109.009 169.923 110.345 169.405 111.551C168.888 112.758 168.016 113.779 166.906 114.479L165.81 115.177C165.786 115.197 165.758 115.211 165.728 115.219C165.698 115.228 165.666 115.23 165.635 115.226Z" fill="#263238"/>
<path d="M167.311 96.9592L159.472 96.6312C159.435 96.6294 159.399 96.6204 159.366 96.6046C159.333 96.5889 159.303 96.5668 159.279 96.5396C159.254 96.5124 159.235 96.4806 159.223 96.446C159.21 96.4114 159.205 96.3747 159.207 96.338C159.214 96.2652 159.248 96.1976 159.302 96.1485C159.356 96.0994 159.427 96.0724 159.5 96.0728L167.332 96.4008C167.368 96.4026 167.404 96.4116 167.437 96.4273C167.471 96.443 167.5 96.4651 167.525 96.4924C167.55 96.5196 167.569 96.5514 167.581 96.586C167.593 96.6206 167.599 96.6573 167.597 96.694C167.596 96.7303 167.588 96.7662 167.573 96.7993C167.558 96.8325 167.536 96.8623 167.51 96.887C167.483 96.9117 167.452 96.9309 167.417 96.9433C167.383 96.9557 167.347 96.9611 167.311 96.9592Z" fill="#263238"/>
<path d="M163.499 93.7065C163.427 93.7048 163.358 93.6758 163.306 93.6253C163.254 93.5748 163.224 93.5066 163.22 93.4343C163.22 92.0383 162.787 89.6162 161.482 89.0858C161.446 89.0736 161.413 89.0542 161.384 89.0288C161.356 89.0033 161.333 88.9723 161.317 88.9377C161.301 88.9031 161.293 88.8655 161.292 88.8275C161.291 88.7894 161.298 88.7515 161.312 88.7162C161.327 88.6809 161.348 88.6489 161.375 88.6221C161.402 88.5954 161.435 88.5745 161.47 88.5607C161.506 88.547 161.544 88.5406 161.582 88.5421C161.62 88.5435 161.657 88.5528 161.692 88.5692C163.625 89.365 163.786 93.0085 163.786 93.4552C163.786 93.5288 163.757 93.5995 163.707 93.6528C163.656 93.7061 163.587 93.7378 163.513 93.7414L163.499 93.7065Z" fill="#263238"/>
<path d="M139.523 103.192H139.467C139.395 103.177 139.332 103.134 139.292 103.073C139.251 103.011 139.236 102.936 139.251 102.864C140.172 98.2785 143.983 91.0402 147.341 88.9043C147.371 88.8853 147.405 88.8725 147.441 88.8668C147.477 88.861 147.513 88.8624 147.548 88.8708C147.583 88.8793 147.616 88.8946 147.645 88.9159C147.674 88.9373 147.699 88.9642 147.718 88.9951C147.738 89.025 147.752 89.0587 147.759 89.0942C147.766 89.1298 147.765 89.1663 147.757 89.2016C147.749 89.2369 147.734 89.2702 147.713 89.2995C147.692 89.3288 147.665 89.3535 147.634 89.372C144.388 91.4241 140.689 98.446 139.795 102.962C139.784 103.026 139.751 103.084 139.701 103.126C139.651 103.168 139.588 103.192 139.523 103.192Z" fill="#263238"/>
<path d="M141.813 103.911C141.38 105.021 140.417 105.691 139.719 105.405C139.021 105.119 138.748 104.009 139.181 102.871C139.614 101.734 140.577 101.091 141.275 101.385C141.973 101.678 142.252 102.801 141.813 103.911Z" fill="white"/>
<path d="M160.24 114.723C160.24 115.24 159.919 115.652 159.577 115.638C159.235 115.624 158.969 115.191 158.99 114.667C159.011 114.144 159.311 113.732 159.654 113.753C159.996 113.774 160.261 114.2 160.24 114.723Z" fill="white"/>
<path d="M166.257 114.975C166.257 115.491 165.942 115.903 165.593 115.889C165.244 115.875 164.993 115.442 165.014 114.919C165.035 114.395 165.328 113.99 165.712 114.004C166.096 114.018 166.278 114.472 166.257 114.975Z" fill="white"/>
<path d="M284.623 105.293L283.925 105.251C284.042 103.765 283.848 102.271 283.356 100.864C282.864 99.4572 282.085 98.1676 281.068 97.0775C280.052 95.9874 278.82 95.1205 277.45 94.5318C276.081 93.943 274.604 93.6454 273.113 93.6576V92.9596C274.7 92.9462 276.271 93.2625 277.729 93.8885C279.186 94.5146 280.497 95.4367 281.58 96.5963C282.662 97.756 283.491 99.1279 284.015 100.625C284.539 102.122 284.746 103.712 284.623 105.293Z" fill="#19A8E4"/>
<path d="M284.992 108.22L284.587 113.999L285.285 114.048L285.69 108.269L284.992 108.22Z" fill="#19A8E4"/>
<path d="M273.113 95.4026H224.951C222.321 95.4459 219.801 96.4659 217.882 98.2643C215.962 100.063 214.78 102.511 214.565 105.133L214.125 111.617C214.026 112.865 214.187 114.12 214.599 115.302C215.01 116.484 215.664 117.567 216.518 118.482C217.371 119.398 218.406 120.125 219.557 120.619C220.707 121.112 221.948 121.36 223.199 121.347H271.361L280.701 127.106L282.18 105.133C282.281 103.885 282.121 102.631 281.71 101.449C281.299 100.267 280.646 99.1834 279.793 98.2679C278.94 97.3523 277.905 96.6247 276.755 96.1313C275.605 95.638 274.365 95.3898 273.113 95.4026Z" fill="#19A8E4"/>
<path d="M270.67 104.693H226.061V106.312H270.67V104.693Z" fill="white"/>
<path d="M270.28 110.438H237.159V112.057H270.28V110.438Z" fill="white"/>
<path d="M200.661 130.093H249.884C251.164 130.079 252.432 130.333 253.609 130.836C254.785 131.34 255.844 132.084 256.717 133.02C257.589 133.956 258.258 135.064 258.678 136.272C259.099 137.481 259.263 138.764 259.16 140.04L258.714 146.671C258.493 149.35 257.284 151.851 255.322 153.689C253.36 155.528 250.785 156.571 248.097 156.617H198.867L188.523 162.515L190.044 140.04C190.264 137.36 191.473 134.858 193.435 133.019C195.397 131.181 197.973 130.138 200.661 130.093Z" fill="white"/>
<path opacity="0.15" d="M200.661 130.093H249.884C251.164 130.079 252.432 130.333 253.609 130.836C254.785 131.34 255.844 132.084 256.717 133.02C257.589 133.956 258.258 135.064 258.678 136.272C259.099 137.481 259.263 138.764 259.16 140.04L258.714 146.671C258.493 149.35 257.284 151.851 255.322 153.689C253.36 155.528 250.785 156.571 248.097 156.617H198.867L188.523 162.515L190.044 140.04C190.264 137.36 191.473 134.858 193.435 133.019C195.397 131.181 197.973 130.138 200.661 130.093Z" fill="#19A8E4"/>
<path opacity="0.5" d="M247.385 139.593H201.764V141.254H247.385V139.593Z" fill="#19A8E4"/>
<path opacity="0.5" d="M219.395 145.463H201.366V147.124H219.395V145.463Z" fill="#19A8E4"/>
<path opacity="0.5" d="M235.331 145.463H223.814V147.124H235.331V145.463Z" fill="#19A8E4"/>
</svg>
