<svg width="178" height="196" viewBox="0 0 178 196" fill="none" xmlns="http://www.w3.org/2000/svg">
<path d="M102.189 65.2652L125.991 88.0233C127.08 89.0641 128.843 89.0641 129.929 88.0233L153.731 65.2652C154.819 64.2245 154.819 62.5386 153.731 61.5003L129.929 38.7422C128.84 37.7014 127.077 37.7014 125.991 38.7422L102.189 61.5003C101.101 62.5386 101.101 64.2245 102.189 65.2652Z" fill="#19A8E4"/>
<path d="M66.1106 74.7303L77.9839 63.3828L114.872 28.1128C115.96 27.0721 115.96 25.3862 114.872 24.348L91.0644 1.5848C89.9759 0.54404 88.2127 0.54404 87.1268 1.5848L62.173 25.4442C61.6511 25.9431 61.356 26.621 61.356 27.3266V72.8479C61.356 75.2192 64.3553 76.4086 66.1106 74.7303Z" fill="#19A8E4"/>
<path d="M40.8746 80.9547C42.63 82.633 45.6293 81.4436 45.6293 79.0723V47.6932C45.6293 45.3219 42.63 44.1325 40.8746 45.8108L24.4654 61.5003C23.3769 62.5411 23.3769 64.227 24.4654 65.2652L40.8746 80.9547Z" fill="#19A8E4"/>
<path d="M87.132 75.8946L63.3247 98.6527C62.2362 99.6934 62.2362 101.379 63.3247 102.42L87.1267 125.178C88.2152 126.219 89.9785 126.219 91.0643 125.178L114.872 102.42C115.96 101.379 115.96 99.6934 114.872 98.6527L91.0696 75.8946C89.9837 74.8563 88.2205 74.8563 87.132 75.8946Z" fill="#19A8E4"/>
<path d="M13.9442 154.241L23.7012 142.41H17.4548L6.1639 156.189H6.00839V142.41H0.384033V172.733H6.00839V163.885L10.568 158.47L19.1416 172.733H25.3484L13.9442 154.241Z" fill="#19A8E4"/>
<path d="M34.3173 157.858C34.3173 155.761 32.7465 154.221 30.7092 154.221C28.6719 154.221 27.1011 155.761 27.1011 157.858C27.1011 159.916 28.6719 161.456 30.7092 161.456C32.7465 161.456 34.3173 159.916 34.3173 157.858Z" fill="#19A8E4"/>
<path d="M55.5866 156.096L51.309 154.38C48.6814 153.349 46.2645 152.47 46.2645 150.086C46.2645 147.871 48.2228 146.525 51.23 146.525C53.9446 146.525 56.0979 147.49 58.1168 149.131L61.0054 145.719C58.5227 143.317 54.933 141.851 51.23 141.851C45.0416 141.851 40.5822 145.57 40.5822 150.401C40.5822 154.834 43.8714 157.197 46.9919 158.44L51.3275 160.239C54.2082 161.408 56.2534 162.205 56.2534 164.699C56.2534 167.063 54.2952 168.613 50.7266 168.613C47.7773 168.613 44.7332 167.222 42.464 165.153L39.1853 168.845C42.1925 171.672 46.3225 173.288 50.6106 173.288C57.7294 173.288 61.9964 169.187 61.9964 164.273C61.9964 159.881 59.3582 157.598 55.5866 156.096Z" fill="#19A8E4"/>
<path d="M75.2033 142.41L64.8639 172.733H70.6068L73.0869 164.518H83.7242L86.1832 172.733H92.137L81.7976 142.41H75.2033ZM74.3573 160.297L75.4748 156.598C76.4842 153.39 77.4146 149.957 78.287 146.601H78.482C79.4124 149.93 80.3454 153.39 81.3522 156.598L82.4591 160.297H74.3573Z" fill="#19A8E4"/>
<path d="M102.6 142.41H96.9734V172.733H115.77V168.207H102.6V142.41Z" fill="#19A8E4"/>
<path d="M139.375 159.843C139.375 166.446 136.697 168.615 132.817 168.615C128.977 168.615 126.397 166.446 126.397 159.843V142.41H120.773V159.435C120.773 169.394 125.467 173.29 132.82 173.29C140.171 173.29 144.788 169.394 144.788 159.435V142.41H139.377V159.843H139.375Z" fill="#19A8E4"/>
<path d="M153.9 172.733H162.647C172.075 172.733 177.815 167.484 177.815 157.452C177.815 147.42 172.072 142.41 162.355 142.41H153.897V172.733H153.9ZM159.527 146.767H161.991C168.372 146.767 172.038 149.995 172.038 157.449C172.038 164.906 168.372 168.374 161.991 168.374H159.527V146.767Z" fill="#19A8E4"/>
<path d="M4.04484 191.701H5.78434V192.142C5.77643 192.671 5.60775 193.097 5.28094 193.42C4.95412 193.76 4.5377 193.929 4.0343 193.929C3.72857 193.929 3.46765 193.866 3.24889 193.737C3.0275 193.629 2.84828 193.488 2.71123 193.316C2.54255 193.135 2.43186 192.898 2.37651 192.606C2.31325 192.314 2.28163 191.752 2.28163 190.922C2.28163 190.093 2.31325 189.529 2.37651 189.229C2.43186 188.944 2.54255 188.71 2.7086 188.528C2.84565 188.355 3.02487 188.211 3.24626 188.095C3.46501 187.984 3.72594 187.924 4.02903 187.916C4.44282 187.924 4.79335 188.042 5.08063 188.269C5.35737 188.508 5.54713 188.798 5.65256 189.138H7.02043C6.88338 188.435 6.55657 187.846 6.03999 187.367C5.52078 186.893 4.85133 186.654 4.03166 186.646C3.36222 186.654 2.80348 186.812 2.35542 187.12C1.89947 187.425 1.56738 187.77 1.36181 188.158C1.23266 188.362 1.13778 188.629 1.07452 188.959C1.01654 189.29 0.987549 189.945 0.987549 190.92C0.987549 191.883 1.01654 192.533 1.07452 192.87C1.10615 193.052 1.14569 193.201 1.19049 193.322C1.24057 193.437 1.29855 193.558 1.35917 193.684C1.56475 194.072 1.89683 194.415 2.35279 194.71C2.80084 195.017 3.35959 195.179 4.02903 195.194C4.89614 195.179 5.61829 194.889 6.19022 194.324C6.75951 193.757 7.05206 193.052 7.06524 192.21V190.499H4.03694V191.701H4.04484Z" fill="#19A8E4"/>
<path d="M12.5236 195.128H17.9661V193.929H13.815V191.454H17.3599V190.323H13.815V187.919H17.9661V186.719H12.5236V195.128Z" fill="#19A8E4"/>
<path d="M26.2656 190.33C25.8597 190.28 25.5408 190.235 25.3062 190.197C24.8872 190.119 24.5788 189.98 24.389 189.781C24.1993 189.584 24.1017 189.365 24.1017 189.123C24.1097 188.72 24.252 188.415 24.5287 188.211C24.7949 188.014 25.1244 187.916 25.5223 187.916C26.2893 187.931 26.993 188.148 27.6334 188.564L28.353 187.518C27.5702 186.961 26.6504 186.671 25.5909 186.649C24.7106 186.656 24.0332 186.883 23.5535 187.329C23.0607 187.78 22.8129 188.372 22.8129 189.108C22.8129 189.72 23.0106 190.24 23.4033 190.668C23.7855 191.084 24.3416 191.351 25.0743 191.469C25.4828 191.527 25.8597 191.58 26.2023 191.626C26.9508 191.752 27.3198 192.13 27.3119 192.757C27.2961 193.523 26.7347 193.914 25.6278 193.929C24.6921 193.921 23.8856 193.642 23.2056 193.09L22.3596 194.05C23.2663 194.816 24.3495 195.199 25.6119 195.199C27.5623 195.176 28.5585 194.36 28.6007 192.752C28.6007 192.155 28.4109 191.631 28.0341 191.182C27.6545 190.721 27.0642 190.439 26.2656 190.33Z" fill="#19A8E4"/>
<path d="M33.0101 187.848H35.3453V195.128H36.6341V187.848H38.9718V186.719H33.0101V187.848Z" fill="#19A8E4"/>
<path d="M45.0705 186.719H43.7817V195.128H45.0705V186.719Z" fill="#19A8E4"/>
<path d="M56.09 188.161C55.8924 187.772 55.5682 187.427 55.1202 187.122C54.6695 186.815 54.1028 186.656 53.4255 186.649C52.756 186.656 52.1973 186.812 51.7492 187.12C51.2933 187.422 50.9638 187.767 50.7556 188.153C50.6265 188.357 50.5316 188.624 50.4683 188.957C50.4103 189.29 50.3813 189.942 50.3813 190.922C50.3813 191.885 50.4103 192.535 50.4683 192.873C50.5 193.054 50.5395 193.203 50.5843 193.324C50.6344 193.44 50.6923 193.561 50.753 193.687C50.9585 194.075 51.2906 194.418 51.7466 194.713C52.1946 195.02 52.7534 195.181 53.4228 195.196C54.1002 195.181 54.6642 195.02 55.1175 194.713C55.5656 194.415 55.8897 194.075 56.0874 193.687C56.2324 193.483 56.3299 193.213 56.3852 192.873C56.4353 192.535 56.4617 191.885 56.4617 190.922C56.4617 189.947 56.4353 189.292 56.3852 188.962C56.3325 188.632 56.235 188.365 56.09 188.161ZM55.0859 192.606C55.0226 192.898 54.9093 193.135 54.7406 193.316C54.6115 193.49 54.4402 193.631 54.2267 193.737C54 193.863 53.7338 193.929 53.4255 193.929C53.1197 193.929 52.8588 193.866 52.6401 193.737C52.4187 193.629 52.2394 193.488 52.1024 193.316C51.9337 193.135 51.823 192.898 51.7677 192.606C51.7044 192.314 51.6728 191.752 51.6728 190.922C51.6728 190.093 51.7044 189.529 51.7677 189.229C51.823 188.944 51.9337 188.71 52.1024 188.528C52.2394 188.355 52.4187 188.211 52.6401 188.095C52.8588 187.984 53.1197 187.924 53.4255 187.916C53.7338 187.924 54 187.984 54.2267 188.095C54.4402 188.211 54.6115 188.355 54.7406 188.528C54.9093 188.71 55.0253 188.944 55.0859 189.229C55.1439 189.529 55.1729 190.093 55.1729 190.922C55.1729 191.752 55.1439 192.314 55.0859 192.606Z" fill="#19A8E4"/>
<path d="M67.0119 192.697H66.9882L63.1297 186.719H61.9147V195.128H63.2035V189.148H63.2272L67.0804 195.128H68.3007V186.719H67.0119V192.697Z" fill="#19A8E4"/>
<path d="M76.284 186.719L73.1871 195.128H74.555L75.2086 193.248H78.4399L79.1014 195.128H80.4614L77.3646 186.719H76.284ZM75.5803 192.117L76.8137 188.438H76.8374L78.0709 192.117H75.5803Z" fill="#19A8E4"/>
<path d="M90.4107 192.697H90.3896L86.5311 186.719H85.3135V195.128H86.6049V189.148H86.6286L90.4792 195.128H91.7022V186.719H90.4107V192.697Z" fill="#19A8E4"/>
<path d="M103.048 188.138C102.471 187.2 101.607 186.727 100.452 186.719H97.4714V195.128H100.365C101.003 195.128 101.543 194.99 101.984 194.713C102.429 194.456 102.774 194.128 103.025 193.732C103.12 193.581 103.199 193.437 103.264 193.301C103.328 193.16 103.373 192.996 103.404 192.818C103.47 192.46 103.504 191.83 103.504 190.925C103.504 190.076 103.483 189.479 103.441 189.131C103.386 188.783 103.257 188.453 103.048 188.138ZM102.163 192.508C102.123 192.785 102.031 193.014 101.889 193.196C101.562 193.684 101.035 193.929 100.31 193.929H98.7655V187.916H100.31C100.966 187.901 101.472 188.138 101.831 188.627C102.007 188.823 102.118 189.08 102.163 189.395C102.197 189.713 102.216 190.235 102.216 190.968C102.216 191.721 102.197 192.233 102.163 192.508Z" fill="#19A8E4"/>
<path d="M114.379 188.161C114.181 187.772 113.857 187.427 113.409 187.122C112.958 186.815 112.392 186.656 111.714 186.649C111.045 186.656 110.486 186.812 110.038 187.12C109.582 187.422 109.253 187.767 109.044 188.153C108.915 188.357 108.82 188.624 108.757 188.957C108.699 189.29 108.67 189.942 108.67 190.922C108.67 191.885 108.699 192.535 108.757 192.873C108.789 193.054 108.828 193.203 108.873 193.324C108.923 193.44 108.981 193.561 109.042 193.687C109.247 194.075 109.579 194.418 110.035 194.713C110.483 195.02 111.042 195.181 111.712 195.196C112.389 195.181 112.953 195.02 113.406 194.713C113.854 194.415 114.179 194.075 114.376 193.687C114.521 193.483 114.619 193.213 114.674 192.873C114.724 192.535 114.75 191.885 114.75 190.922C114.75 189.947 114.724 189.292 114.674 188.962C114.621 188.632 114.521 188.365 114.379 188.161ZM113.375 192.606C113.311 192.898 113.198 193.135 113.029 193.316C112.9 193.49 112.729 193.631 112.516 193.737C112.289 193.863 112.023 193.929 111.714 193.929C111.409 193.929 111.148 193.866 110.929 193.737C110.707 193.629 110.528 193.488 110.391 193.316C110.223 193.135 110.112 192.898 110.056 192.606C109.993 192.314 109.962 191.752 109.962 190.922C109.962 190.093 109.993 189.529 110.056 189.229C110.112 188.944 110.223 188.71 110.391 188.528C110.528 188.355 110.707 188.211 110.929 188.095C111.148 187.984 111.409 187.924 111.714 187.916C112.023 187.924 112.289 187.984 112.516 188.095C112.729 188.211 112.9 188.355 113.029 188.528C113.198 188.71 113.314 188.944 113.375 189.229C113.433 189.529 113.462 190.093 113.462 190.922C113.462 191.752 113.433 192.314 113.375 192.606Z" fill="#19A8E4"/>
<path d="M130.034 190.33C129.628 190.28 129.31 190.235 129.075 190.197C128.656 190.119 128.348 189.98 128.158 189.781C127.968 189.584 127.871 189.365 127.871 189.123C127.878 188.72 128.021 188.415 128.298 188.211C128.564 188.014 128.893 187.916 129.291 187.916C130.058 187.931 130.762 188.148 131.402 188.564L132.122 187.518C131.339 186.961 130.419 186.671 129.36 186.649C128.479 186.656 127.802 186.883 127.322 187.329C126.829 187.78 126.582 188.372 126.582 189.108C126.582 189.72 126.779 190.24 127.172 190.668C127.554 191.084 128.11 191.351 128.843 191.469C129.252 191.527 129.628 191.58 129.971 191.626C130.72 191.752 131.089 192.13 131.081 192.757C131.065 193.523 130.504 193.914 129.397 193.929C128.461 193.921 127.654 193.642 126.974 193.09L126.128 194.05C127.035 194.816 128.118 195.199 129.381 195.199C131.331 195.176 132.327 194.36 132.37 192.752C132.37 192.155 132.18 191.631 131.803 191.182C131.423 190.721 130.833 190.439 130.034 190.33Z" fill="#19A8E4"/>
<path d="M139.876 186.719L136.779 195.128H138.147L138.8 193.248H142.032L142.693 195.128H144.053L140.956 186.719H139.876ZM139.175 192.117L140.408 188.438H140.432L141.665 192.117H139.175Z" fill="#19A8E4"/>
<path d="M150.197 186.719H148.908V195.128H154.35V193.929H150.197V186.719Z" fill="#19A8E4"/>
<path d="M164.094 192.145C164.086 192.717 163.923 193.155 163.601 193.455C163.275 193.77 162.858 193.929 162.355 193.929C161.851 193.929 161.44 193.77 161.121 193.455C160.794 193.155 160.626 192.717 160.618 192.145V186.719H159.326V192.283C159.334 193.168 159.63 193.868 160.215 194.385C160.787 194.919 161.501 195.189 162.355 195.199C163.224 195.191 163.941 194.919 164.511 194.385C165.075 193.866 165.367 193.165 165.383 192.281V186.719H164.094V192.145Z" fill="#19A8E4"/>
<path d="M176.55 188.138C175.973 187.2 175.108 186.727 173.954 186.719H170.973V195.128H173.867C174.505 195.128 175.045 194.99 175.485 194.713C175.93 194.456 176.276 194.128 176.526 193.732C176.621 193.581 176.7 193.437 176.766 193.301C176.829 193.16 176.874 192.996 176.906 192.818C176.972 192.46 177.006 191.83 177.006 190.925C177.006 190.076 176.985 189.479 176.943 189.131C176.887 188.783 176.758 188.453 176.55 188.138ZM175.664 192.508C175.625 192.785 175.532 193.014 175.39 193.196C175.063 193.684 174.536 193.929 173.811 193.929H172.267V187.916H173.811C174.468 187.901 174.974 188.138 175.332 188.627C175.509 188.823 175.619 189.08 175.664 189.395C175.699 189.713 175.717 190.235 175.717 190.968C175.717 191.721 175.699 192.233 175.664 192.508Z" fill="#19A8E4"/>
</svg>
