<svg width="30" height="26" viewBox="0 0 30 26" fill="none" xmlns="http://www.w3.org/2000/svg">
    <path fill-rule="evenodd" clip-rule="evenodd"
        d="M18.1348 6.99675C18.1348 10.7421 15.07 13.7435 11.2455 13.7435C7.42247 13.7435 4.35625 10.7421 4.35625 6.99675C4.35625 3.25142 7.42247 0.25 11.2455 0.25C15.07 0.25 18.1348 3.25142 18.1348 6.99675ZM0.833984 21.3829C0.833984 17.9159 5.63015 17.0485 11.2455 17.0485C16.8914 17.0485 21.6571 17.9458 21.6571 21.4155C21.6571 24.8826 16.8609 25.75 11.2455 25.75C5.59965 25.75 0.833984 24.8527 0.833984 21.3829ZM20.913 7.11906C20.913 9.02634 20.328 10.806 19.3023 12.2843C19.1955 12.4364 19.2898 12.6414 19.4755 12.6739C19.7334 12.716 19.9981 12.7418 20.2684 12.7472C22.9576 12.8165 25.3709 11.121 26.0377 8.56751C27.026 4.77874 24.1261 1.37686 20.432 1.37686C20.0314 1.37686 19.6474 1.41758 19.2732 1.49224C19.2219 1.5031 19.1664 1.52754 19.1387 1.57098C19.1027 1.62664 19.129 1.69858 19.165 1.7461C20.2754 3.27056 20.913 5.12626 20.913 7.11906ZM25.3668 15.4116C27.1743 15.7578 28.3623 16.4623 28.8544 17.4899C29.2716 18.3316 29.2716 19.309 28.8544 20.1506C28.1017 21.7416 25.6731 22.2534 24.7291 22.385C24.5337 22.4122 24.377 22.2493 24.3978 22.0565C24.8802 17.6474 21.0447 15.5568 20.0522 15.0763C20.0106 15.0532 20.0009 15.0206 20.0051 14.9989C20.0078 14.9853 20.0258 14.9636 20.0577 14.9595C22.2049 14.9188 24.5143 15.208 25.3668 15.4116Z"
        fill="white" />
</svg>