<svg width="33" height="33" viewBox="0 0 33 33" fill="none" xmlns="http://www.w3.org/2000/svg">
<rect width="33" height="33" rx="5" fill="#71D4FE" fill-opacity="0.27"/>
<path fill-rule="evenodd" clip-rule="evenodd" d="M13.9913 19.8405C17.834 19.8405 21.1184 20.4227 21.1184 22.7488C21.1184 25.0748 17.8559 25.6738 13.9913 25.6738C10.1476 25.6738 6.86426 25.0967 6.86426 22.7696C6.86426 20.4425 10.1257 19.8405 13.9913 19.8405Z" stroke="#19A8E4" stroke-width="1.5" stroke-linecap="round" stroke-linejoin="round"/>
<path fill-rule="evenodd" clip-rule="evenodd" d="M13.9916 16.5207C11.4687 16.5207 9.42285 14.4759 9.42285 11.953C9.42285 9.43005 11.4687 7.38525 13.9916 7.38525C16.5135 7.38525 18.5593 9.43005 18.5593 11.953C18.5687 14.4665 16.5374 16.5113 14.0239 16.5207H13.9916Z" stroke="#19A8E4" stroke-width="1.5" stroke-linecap="round" stroke-linejoin="round"/>
<path d="M21.1699 15.335C22.8376 15.1006 24.122 13.6694 24.1251 11.9371C24.1251 10.2298 22.8803 8.81312 21.248 8.54541" stroke="#19A8E4" stroke-width="1.5" stroke-linecap="round" stroke-linejoin="round"/>
<path d="M23.3701 19.3461C24.9857 19.5867 26.1139 20.1534 26.1139 21.32C26.1139 22.1232 25.5826 22.644 24.7243 22.97" stroke="#19A8E4" stroke-width="1.5" stroke-linecap="round" stroke-linejoin="round"/>
</svg>
