<svg width="33" height="33" viewBox="0 0 33 33" fill="none" xmlns="http://www.w3.org/2000/svg">
    <rect width="33" height="33" rx="5" fill="#71D4FE" fill-opacity="0.27" />
    <path
        d="M12 6.5C12 5.83696 12.281 5.20107 12.781 4.73223C13.2811 4.26339 13.9594 4 14.6667 4H17.3333C18.0406 4 18.7189 4.26339 19.219 4.73223C19.719 5.20107 20 5.83696 20 6.5V9H12V6.5Z"
        stroke="#19A8E4" stroke-width="1.5" stroke-linecap="round" stroke-linejoin="round" />
    <path
        d="M12.1429 6H9.57143C8.88944 6 8.23539 6.27656 7.75315 6.76884C7.27092 7.26113 7 7.92881 7 8.625V24.375C7 25.0712 7.27092 25.7389 7.75315 26.2312C8.23539 26.7234 8.88944 27 9.57143 27H22.4286C23.1106 27 23.7646 26.7234 24.2468 26.2312C24.7291 25.7389 25 25.0712 25 24.375V8.625C25 7.92881 24.7291 7.26113 24.2468 6.76884C23.7646 6.27656 23.1106 6 22.4286 6H19.8571"
        stroke="#19A8E4" stroke-width="1.5" stroke-linecap="round" stroke-linejoin="round" />
</svg>