<svg width="76" height="76" viewBox="0 0 76 76" fill="none" xmlns="http://www.w3.org/2000/svg">
<path fill-rule="evenodd" clip-rule="evenodd" d="M58.9381 28.0775C58.9381 32.0265 59.9819 34.354 62.2787 37.0363C64.0193 39.0124 64.5756 41.549 64.5756 44.3009C64.5756 47.0497 63.6724 49.6591 61.8631 51.7777C59.4944 54.3174 56.1538 55.9388 52.7444 56.2207C47.8039 56.6419 42.8602 56.9966 37.8509 56.9966C32.8384 56.9966 27.8979 56.7844 22.9573 56.2207C19.5448 55.9388 16.2042 54.3174 13.8386 51.7777C12.0293 49.6591 11.123 47.0497 11.123 44.3009C11.123 41.549 11.6824 39.0124 13.4199 37.0363C15.7886 34.354 16.7636 32.0265 16.7636 28.0775V26.7379C16.7636 21.4494 18.0823 17.9913 20.7979 14.606C24.8354 9.66895 31.3072 6.70801 37.7102 6.70801H37.9915C44.532 6.70801 51.2132 9.81146 55.1819 14.9606C57.7569 18.2763 58.9381 21.5887 58.9381 26.7379V28.0775ZM28.6482 63.4961C28.6482 61.9127 30.1013 61.1875 31.445 60.8771C33.0169 60.5446 42.5949 60.5446 44.1667 60.8771C45.5105 61.1875 46.9636 61.9127 46.9636 63.4961C46.8854 65.0035 46.0011 66.3398 44.7792 67.1885C43.1949 68.4236 41.3355 69.2058 39.3918 69.4876C38.3168 69.627 37.2606 69.6301 36.2231 69.4876C34.2762 69.2058 32.4169 68.4236 30.8356 67.1854C29.6106 66.3398 28.7263 65.0035 28.6482 63.4961Z" fill="#3F3F3F"/>
<circle cx="54" cy="15" r="8" fill="#FF4E4E"/>
</svg>
