<svg width="606" height="310" viewBox="0 0 606 310" fill="none" xmlns="http://www.w3.org/2000/svg">
    <path
        d="M-3.45461e-05 303C-3.10675e-05 263.209 7.83731 223.809 23.0645 187.047C38.2917 150.285 60.6105 116.883 88.7466 88.7467C116.883 60.6105 150.285 38.2917 187.047 23.0645C223.809 7.83737 263.209 3.10675e-05 303 3.45461e-05C342.791 3.80247e-05 382.191 7.83738 418.953 23.0646C455.715 38.2917 489.117 60.6105 517.253 88.7467C545.39 116.883 567.708 150.285 582.936 187.047C598.163 223.809 606 263.21 606 303L485.184 303C485.184 279.075 480.471 255.385 471.316 233.281C462.16 211.178 448.741 191.094 431.823 174.177C414.906 157.259 394.822 143.84 372.719 134.684C350.615 125.529 326.925 120.816 303 120.816C279.075 120.816 255.385 125.529 233.281 134.684C211.178 143.84 191.094 157.259 174.177 174.177C157.259 191.094 143.84 211.178 134.684 233.281C125.529 255.385 120.816 279.075 120.816 303L-3.45461e-05 303Z"
        fill="#F94144" />
    <path
        d="M-3.45461e-05 303C-2.96996e-05 247.563 15.2091 193.188 43.9714 145.796C72.7337 98.4035 113.947 59.8105 163.123 34.2185C212.3 8.62649 267.555 -2.98355 322.873 0.652441C378.191 4.28849 431.451 23.0312 476.855 54.8399L407.533 153.79C380.233 134.664 348.21 123.395 314.949 121.209C281.688 119.022 248.465 126.003 218.897 141.391C189.329 156.778 164.549 179.983 147.255 208.478C129.961 236.974 120.816 269.667 120.816 303L-3.45461e-05 303Z"
        fill="#F8961E" />
    <path
        d="M-3.45461e-05 303C-3.02002e-05 253.289 12.2307 204.342 35.6138 160.474C58.9969 116.606 92.8139 79.1653 134.083 51.4525C175.353 23.7397 222.807 6.60641 272.261 1.56333C321.715 -3.47982 371.651 3.72215 417.664 22.5342L371.944 134.365C344.277 123.054 314.253 118.724 284.518 121.756C254.782 124.788 226.25 135.09 201.436 151.753C176.622 168.416 156.289 190.928 142.23 217.304C128.17 243.68 120.816 273.111 120.816 303L-3.45461e-05 303Z"
        fill="#2D9CDB" />
    <path
        d="M-3.45461e-05 303C-3.10675e-05 263.209 7.83731 223.809 23.0645 187.047C38.2917 150.285 60.6105 116.883 88.7466 88.7467C116.883 60.6105 150.285 38.2917 187.047 23.0645C223.809 7.83737 263.209 3.10675e-05 303 3.45461e-05L303 120.816C279.075 120.816 255.385 125.529 233.281 134.684C211.178 143.84 191.094 157.259 174.177 174.177C157.259 191.094 143.84 211.178 134.684 233.281C125.529 255.385 120.816 279.075 120.816 303L-3.45461e-05 303Z"
        fill="#F3722C" />
    <path
        d="M-3.45461e-05 303C-2.97162e-05 247.753 15.1051 193.557 43.6817 146.274C72.2583 98.9913 113.219 60.4216 162.132 34.7366C211.046 9.05154 266.051 -2.77121 321.199 0.547094C376.347 3.86534 429.537 22.1984 475.018 53.5633L406.429 153.022C379.083 134.163 347.101 123.14 313.942 121.145C280.784 119.15 247.711 126.259 218.301 141.702C188.891 157.146 164.263 180.336 147.081 208.766C129.898 237.195 120.816 269.782 120.816 303L-3.45461e-05 303Z"
        fill="#90BE6D" />
    <path
        d="M109.183 70.0969C161.413 26.6319 226.737 1.98477 294.662 0.11478C362.586 -1.75515 429.167 19.2606 483.71 59.7861L411.655 156.764C378.86 132.397 338.827 119.761 297.986 120.885C257.146 122.01 217.868 136.829 186.464 162.963L109.183 70.0969Z"
        fill="#F9C74F" />
    <path
        d="M255.702 50.4545H258.365L262.996 61.7614H263.166L267.797 50.4545H270.46V65H268.372V54.4744H268.237L263.947 64.9787H262.214L257.925 54.4673H257.79V65H255.702V50.4545ZM278.075 65.2202C277.053 65.2202 276.16 64.9858 275.398 64.517C274.636 64.0483 274.044 63.3925 273.622 62.5497C273.201 61.7069 272.99 60.7221 272.99 59.5952C272.99 58.4635 273.201 57.474 273.622 56.6264C274.044 55.7789 274.636 55.1207 275.398 54.652C276.16 54.1832 277.053 53.9489 278.075 53.9489C279.098 53.9489 279.991 54.1832 280.753 54.652C281.515 55.1207 282.107 55.7789 282.529 56.6264C282.95 57.474 283.161 58.4635 283.161 59.5952C283.161 60.7221 282.95 61.7069 282.529 62.5497C282.107 63.3925 281.515 64.0483 280.753 64.517C279.991 64.9858 279.098 65.2202 278.075 65.2202ZM278.083 63.4375C278.745 63.4375 279.295 63.2623 279.73 62.9119C280.166 62.5616 280.488 62.0952 280.696 61.5128C280.909 60.9304 281.016 60.2888 281.016 59.5881C281.016 58.892 280.909 58.2528 280.696 57.6705C280.488 57.0833 280.166 56.6122 279.73 56.2571C279.295 55.902 278.745 55.7244 278.083 55.7244C277.415 55.7244 276.861 55.902 276.421 56.2571C275.985 56.6122 275.661 57.0833 275.448 57.6705C275.239 58.2528 275.135 58.892 275.135 59.5881C275.135 60.2888 275.239 60.9304 275.448 61.5128C275.661 62.0952 275.985 62.5616 276.421 62.9119C276.861 63.2623 277.415 63.4375 278.083 63.4375ZM289.615 65.2131C288.734 65.2131 287.948 64.9882 287.257 64.5384C286.57 64.0838 286.031 63.4375 285.638 62.5994C285.249 61.7566 285.055 60.7457 285.055 59.5668C285.055 58.3878 285.252 57.3793 285.645 56.5412C286.042 55.7031 286.587 55.0616 287.278 54.6165C287.97 54.1714 288.753 53.9489 289.629 53.9489C290.306 53.9489 290.851 54.0625 291.263 54.2898C291.679 54.5123 292.001 54.7727 292.229 55.071C292.461 55.3693 292.64 55.6321 292.768 55.8594H292.896V50.4545H295.02V65H292.946V63.3026H292.768C292.64 63.5346 292.456 63.7997 292.214 64.098C291.978 64.3963 291.651 64.6567 291.234 64.8793C290.818 65.1018 290.278 65.2131 289.615 65.2131ZM290.084 63.402C290.694 63.402 291.211 63.241 291.632 62.919C292.058 62.5923 292.38 62.1402 292.598 61.5625C292.82 60.9848 292.932 60.3125 292.932 59.5455C292.932 58.7879 292.823 58.125 292.605 57.5568C292.387 56.9886 292.068 56.5459 291.646 56.2287C291.225 55.9115 290.704 55.7528 290.084 55.7528C289.444 55.7528 288.912 55.9186 288.486 56.25C288.059 56.5814 287.738 57.0336 287.52 57.6065C287.307 58.1795 287.2 58.8258 287.2 59.5455C287.2 60.2746 287.309 60.9304 287.527 61.5128C287.745 62.0952 288.067 62.5568 288.493 62.8977C288.924 63.2339 289.454 63.402 290.084 63.402ZM302.752 65.2202C301.677 65.2202 300.752 64.9905 299.975 64.5312C299.204 64.0672 298.607 63.4162 298.186 62.5781C297.769 61.7353 297.561 60.7481 297.561 59.6165C297.561 58.4991 297.769 57.5142 298.186 56.6619C298.607 55.8097 299.194 55.1444 299.947 54.6662C300.704 54.188 301.59 53.9489 302.603 53.9489C303.219 53.9489 303.815 54.0507 304.393 54.2543C304.971 54.4579 305.489 54.7775 305.948 55.2131C306.408 55.6487 306.77 56.2145 307.035 56.9105C307.3 57.6018 307.433 58.4422 307.433 59.4318V60.1847H298.761V58.5938H305.352C305.352 58.035 305.238 57.5402 305.011 57.1094C304.784 56.6738 304.464 56.3305 304.052 56.0795C303.645 55.8286 303.167 55.7031 302.617 55.7031C302.021 55.7031 301.5 55.8499 301.055 56.1435C300.615 56.4323 300.274 56.8111 300.032 57.2798C299.795 57.7438 299.677 58.2481 299.677 58.7926V60.0355C299.677 60.7647 299.805 61.3849 300.061 61.8963C300.321 62.4077 300.683 62.7983 301.147 63.0682C301.611 63.3333 302.153 63.4659 302.774 63.4659C303.176 63.4659 303.543 63.4091 303.874 63.2955C304.206 63.1771 304.492 63.0019 304.734 62.7699C304.975 62.5379 305.16 62.2514 305.288 61.9105L307.298 62.2727C307.137 62.8646 306.848 63.383 306.431 63.8281C306.019 64.2685 305.501 64.6117 304.876 64.858C304.256 65.0994 303.548 65.2202 302.752 65.2202ZM309.789 65V54.0909H311.841V55.8239H311.955C312.154 55.2367 312.504 54.7751 313.006 54.4389C313.513 54.098 314.086 53.9276 314.725 53.9276C314.858 53.9276 315.014 53.9323 315.194 53.9418C315.378 53.9512 315.523 53.9631 315.627 53.9773V56.0085C315.542 55.9848 315.39 55.9588 315.172 55.9304C314.955 55.8973 314.737 55.8807 314.519 55.8807C314.017 55.8807 313.57 55.9872 313.177 56.2003C312.788 56.4086 312.481 56.6998 312.253 57.0739C312.026 57.4432 311.912 57.8646 311.912 58.3381V65H309.789ZM320.542 65.2415C319.85 65.2415 319.225 65.1136 318.667 64.858C318.108 64.5975 317.665 64.2211 317.339 63.7287C317.017 63.2363 316.856 62.6326 316.856 61.9176C316.856 61.3021 316.974 60.7955 317.211 60.3977C317.448 60 317.767 59.6851 318.17 59.4531C318.572 59.2211 319.022 59.0459 319.519 58.9276C320.016 58.8092 320.523 58.7192 321.039 58.6577C321.692 58.5819 322.223 58.5204 322.63 58.473C323.037 58.4209 323.333 58.3381 323.518 58.2244C323.702 58.1108 323.795 57.9261 323.795 57.6705V57.6207C323.795 57.0005 323.619 56.5199 323.269 56.179C322.923 55.8381 322.407 55.6676 321.721 55.6676C321.006 55.6676 320.442 55.8262 320.03 56.1435C319.623 56.456 319.341 56.804 319.185 57.1875L317.189 56.733C317.426 56.0701 317.772 55.535 318.226 55.1278C318.686 54.7159 319.214 54.4176 319.81 54.233C320.407 54.0436 321.034 53.9489 321.692 53.9489C322.128 53.9489 322.59 54.0009 323.077 54.1051C323.57 54.2045 324.029 54.3892 324.455 54.6591C324.886 54.929 325.239 55.3149 325.513 55.8168C325.788 56.3139 325.925 56.9602 325.925 57.7557V65H323.851V63.5085H323.766C323.629 63.7831 323.423 64.053 323.148 64.3182C322.874 64.5833 322.521 64.8035 322.09 64.9787C321.659 65.1539 321.143 65.2415 320.542 65.2415ZM321.003 63.5369C321.59 63.5369 322.092 63.4209 322.509 63.1889C322.93 62.9569 323.25 62.6539 323.468 62.2798C323.69 61.901 323.802 61.4962 323.802 61.0653V59.6591C323.726 59.7348 323.579 59.8059 323.361 59.8722C323.148 59.9337 322.904 59.9882 322.63 60.0355C322.355 60.0781 322.088 60.1184 321.827 60.1562C321.567 60.1894 321.349 60.2178 321.174 60.2415C320.762 60.2936 320.385 60.3812 320.045 60.5043C319.708 60.6274 319.439 60.8049 319.235 61.0369C319.036 61.2642 318.937 61.5672 318.937 61.946C318.937 62.4716 319.131 62.8693 319.519 63.1392C319.907 63.4044 320.402 63.5369 321.003 63.5369ZM332.838 65.2131C331.957 65.2131 331.171 64.9882 330.48 64.5384C329.793 64.0838 329.253 63.4375 328.86 62.5994C328.472 61.7566 328.278 60.7457 328.278 59.5668C328.278 58.3878 328.474 57.3793 328.867 56.5412C329.265 55.7031 329.81 55.0616 330.501 54.6165C331.192 54.1714 331.976 53.9489 332.852 53.9489C333.529 53.9489 334.073 54.0625 334.485 54.2898C334.902 54.5123 335.224 54.7727 335.451 55.071C335.683 55.3693 335.863 55.6321 335.991 55.8594H336.119V50.4545H338.242V65H336.169V63.3026H335.991C335.863 63.5346 335.678 63.7997 335.437 64.098C335.2 64.3963 334.874 64.6567 334.457 64.8793C334.04 65.1018 333.5 65.2131 332.838 65.2131ZM333.306 63.402C333.917 63.402 334.433 63.241 334.855 62.919C335.281 62.5923 335.603 62.1402 335.82 61.5625C336.043 60.9848 336.154 60.3125 336.154 59.5455C336.154 58.7879 336.045 58.125 335.828 57.5568C335.61 56.9886 335.29 56.5459 334.869 56.2287C334.447 55.9115 333.927 55.7528 333.306 55.7528C332.667 55.7528 332.134 55.9186 331.708 56.25C331.282 56.5814 330.96 57.0336 330.742 57.6065C330.529 58.1795 330.423 58.8258 330.423 59.5455C330.423 60.2746 330.532 60.9304 330.749 61.5128C330.967 62.0952 331.289 62.5568 331.715 62.8977C332.146 63.2339 332.677 63.402 333.306 63.402ZM345.868 65.2202C344.846 65.2202 343.953 64.9858 343.191 64.517C342.429 64.0483 341.837 63.3925 341.415 62.5497C340.994 61.7069 340.783 60.7221 340.783 59.5952C340.783 58.4635 340.994 57.474 341.415 56.6264C341.837 55.7789 342.429 55.1207 343.191 54.652C343.953 54.1832 344.846 53.9489 345.868 53.9489C346.891 53.9489 347.784 54.1832 348.546 54.652C349.308 55.1207 349.9 55.7789 350.322 56.6264C350.743 57.474 350.954 58.4635 350.954 59.5952C350.954 60.7221 350.743 61.7069 350.322 62.5497C349.9 63.3925 349.308 64.0483 348.546 64.517C347.784 64.9858 346.891 65.2202 345.868 65.2202ZM345.876 63.4375C346.538 63.4375 347.088 63.2623 347.523 62.9119C347.959 62.5616 348.281 62.0952 348.489 61.5128C348.702 60.9304 348.809 60.2888 348.809 59.5881C348.809 58.892 348.702 58.2528 348.489 57.6705C348.281 57.0833 347.959 56.6122 347.523 56.2571C347.088 55.902 346.538 55.7244 345.876 55.7244C345.208 55.7244 344.654 55.902 344.214 56.2571C343.778 56.6122 343.454 57.0833 343.241 57.6705C343.032 58.2528 342.928 58.892 342.928 59.5881C342.928 60.2888 343.032 60.9304 343.241 61.5128C343.454 62.0952 343.778 62.5616 344.214 62.9119C344.654 63.2623 345.208 63.4375 345.876 63.4375Z"
        fill="white" />
    <path
        d="M73.0514 246.742L72.1039 248.87L60.945 238.172L61.9763 235.856L77.3932 236.99L76.4457 239.118L63.8988 238.033L63.8526 238.137L73.0514 246.742ZM68.0067 244.068L71.0804 237.165L72.7673 237.916L69.6937 244.819L68.0067 244.068ZM80.1769 231.279C79.7475 232.243 79.1593 232.977 78.4123 233.479C77.663 233.974 76.8184 234.236 75.8785 234.263C74.9386 234.29 73.9691 234.081 72.9699 233.637C71.9577 233.186 71.1492 232.598 70.5444 231.873C69.9353 231.145 69.5664 230.338 69.4377 229.452C69.3089 228.565 69.4535 227.653 69.8714 226.714C70.2084 225.957 70.6494 225.345 71.1944 224.877C71.7351 224.408 72.3372 224.103 73.0007 223.963C73.6662 223.819 74.3495 223.862 75.0508 224.091L74.2102 225.979C73.6968 225.875 73.1886 225.934 72.6856 226.155C72.1845 226.373 71.7963 226.791 71.5209 227.409C71.2802 227.95 71.212 228.487 71.3165 229.021C71.4185 229.548 71.6812 230.041 72.1044 230.499C72.5233 230.955 73.0875 231.341 73.7969 231.657C74.5235 231.98 75.1999 232.149 75.8258 232.164C76.4517 232.178 76.9991 232.049 77.468 231.775C77.9389 231.498 78.2966 231.084 78.5412 230.535C78.7049 230.167 78.7861 229.804 78.7849 229.446C78.7813 229.082 78.6971 228.741 78.5325 228.424C78.3697 228.103 78.1271 227.821 77.8047 227.579L78.6453 225.691C79.259 226.047 79.7409 226.513 80.091 227.089C80.4411 227.665 80.63 228.311 80.6579 229.029C80.6878 229.742 80.5274 230.492 80.1769 231.279ZM84.8358 220.815C84.3986 221.797 83.8123 222.549 83.0769 223.072C82.3391 223.588 81.5017 223.868 80.5647 223.912C79.6252 223.95 78.6386 223.739 77.6048 223.279C76.584 222.824 75.7691 222.233 75.1599 221.506C74.5528 220.774 74.1838 219.967 74.0532 219.085C73.9244 218.199 74.0661 217.292 74.4782 216.367C74.7286 215.804 75.0643 215.301 75.4852 214.856C75.9062 214.411 76.409 214.067 76.9938 213.825C77.5785 213.583 78.2427 213.482 78.9864 213.523C79.7258 213.562 80.5475 213.782 81.4515 214.185L82.1393 214.491L78.6121 222.413L77.1587 221.766L79.8395 215.745C79.3291 215.518 78.8309 215.42 78.3448 215.453C77.8544 215.483 77.4108 215.636 77.014 215.91C76.6191 216.18 76.31 216.566 76.0866 217.067C75.844 217.612 75.7662 218.148 75.8534 218.674C75.9381 219.194 76.1455 219.659 76.4755 220.07C76.8031 220.475 77.2156 220.789 77.7131 221.01L78.8485 221.516C79.5146 221.812 80.1333 221.948 80.7044 221.922C81.2775 221.892 81.7817 221.72 82.217 221.406C82.6479 221.09 82.9895 220.649 83.2418 220.082C83.4055 219.714 83.5029 219.356 83.5339 219.007C83.5605 218.656 83.517 218.323 83.4033 218.008C83.2895 217.693 83.103 217.408 82.8435 217.153L83.9919 215.464C84.4671 215.851 84.8233 216.326 85.0604 216.888C85.2952 217.443 85.3979 218.057 85.3686 218.728C85.3369 219.393 85.1593 220.088 84.8358 220.815ZM91.2339 215.961L77.5307 209.86L78.3742 207.966L79.9898 208.685L80.062 208.523C79.9045 208.318 79.7366 208.049 79.5585 207.715C79.3803 207.382 79.2734 206.982 79.2376 206.515C79.1976 206.046 79.3152 205.503 79.5906 204.884C79.9488 204.08 80.4718 203.452 81.1596 203.002C81.8473 202.551 82.654 202.317 83.5794 202.299C84.5068 202.276 85.509 202.505 86.5861 202.984C87.6631 203.464 88.5067 204.054 89.1168 204.756C89.7226 205.456 90.0934 206.212 90.2294 207.024C90.3611 207.834 90.2479 208.642 89.8896 209.446C89.62 210.052 89.2979 210.502 88.9232 210.796C88.5504 211.086 88.1796 211.279 87.8108 211.374C87.442 211.469 87.1256 211.528 86.8617 211.55L86.8097 211.667L92.0976 214.021L91.2339 215.961ZM83.3601 210.178C84.0608 210.49 84.7203 210.661 85.3385 210.693C85.9567 210.725 86.5008 210.614 86.9706 210.362C87.4362 210.108 87.7932 209.702 88.0416 209.144C88.2997 208.565 88.3618 208.012 88.228 207.486C88.0899 206.958 87.7991 206.476 87.3557 206.04C86.9142 205.6 86.3603 205.232 85.6942 204.935C85.0367 204.642 84.402 204.479 83.79 204.445C83.18 204.407 82.6359 204.517 82.1579 204.776C81.6818 205.03 81.3137 205.449 81.0538 206.033C80.8034 206.596 80.7365 207.136 80.8529 207.654C80.9713 208.168 81.2458 208.64 81.6763 209.07C82.1067 209.5 82.668 209.869 83.3601 210.178ZM84.6226 193.931L86.1798 194.625L83.7561 200.068L82.1989 199.375L84.6226 193.931ZM80.4612 196.852L81.325 194.912L90.7524 199.11C91.1287 199.277 91.4371 199.347 91.6775 199.319C91.9135 199.29 92.1056 199.202 92.2538 199.055C92.3996 198.902 92.5196 198.72 92.614 198.508C92.6833 198.352 92.7332 198.211 92.7636 198.085C92.7939 197.958 92.8171 197.86 92.833 197.789L94.5916 198.152C94.5848 198.284 94.5568 198.463 94.5076 198.69C94.4627 198.919 94.3731 199.19 94.2388 199.503C94.0202 200.018 93.7175 200.453 93.3307 200.809C92.944 201.166 92.491 201.392 91.9717 201.487C91.4524 201.582 90.8922 201.496 90.2909 201.229L80.4612 196.852ZM97.0559 193.421C96.7747 194.052 96.4037 194.571 95.9429 194.977C95.4777 195.382 94.9538 195.633 94.3711 195.731C93.7902 195.825 93.1733 195.727 92.5201 195.436C91.9578 195.186 91.5431 194.871 91.2761 194.493C91.009 194.115 90.8514 193.695 90.8031 193.233C90.7549 192.771 90.7778 192.289 90.8718 191.787C90.9659 191.284 91.0898 190.785 91.2435 190.288C91.44 189.661 91.5995 189.151 91.7219 188.76C91.8399 188.367 91.8846 188.063 91.8559 187.848C91.8272 187.633 91.696 187.473 91.4625 187.369L91.417 187.349C90.8504 187.097 90.3401 187.062 89.8862 187.243C89.4341 187.42 89.0685 187.822 88.7893 188.449C88.4985 189.103 88.4142 189.682 88.5364 190.187C88.6563 190.686 88.8596 191.085 89.1465 191.384L87.9195 193.022C87.4102 192.536 87.062 192.003 86.8749 191.422C86.6854 190.835 86.6276 190.231 86.7016 189.611C86.7712 188.989 86.9399 188.378 87.2075 187.776C87.3847 187.378 87.6201 186.978 87.9136 186.575C88.2047 186.165 88.5602 185.821 88.9801 185.541C89.4019 185.257 89.8979 185.092 90.4681 185.045C91.034 184.997 91.6803 185.134 92.4069 185.458L99.025 188.404L98.1814 190.299L96.8189 189.692L96.7842 189.77C96.9793 190.007 97.1421 190.305 97.2726 190.664C97.4031 191.023 97.4608 191.434 97.4456 191.899C97.4304 192.364 97.3005 192.871 97.0559 193.421ZM95.6865 192.305C95.9253 191.769 96.0234 191.263 95.981 190.788C95.9404 190.309 95.7936 189.894 95.5404 189.543C95.2849 189.185 94.9603 188.919 94.5667 188.744L93.2821 188.172C93.3204 188.272 93.3256 188.435 93.2976 188.661C93.2672 188.88 93.2177 189.125 93.1493 189.396C93.0765 189.664 93.0045 189.924 92.9332 190.178C92.8575 190.429 92.7949 190.64 92.7453 190.809C92.6253 191.207 92.5522 191.586 92.526 191.948C92.5017 192.305 92.5542 192.624 92.6833 192.904C92.81 193.178 93.0464 193.392 93.3925 193.546C93.8726 193.76 94.3149 193.745 94.7194 193.5C95.1195 193.253 95.4419 192.855 95.6865 192.305ZM100.245 185.665L86.9568 179.748L87.8205 177.808L92.7581 180.007L92.8101 179.89C92.6525 179.685 92.4847 179.416 92.3066 179.083C92.1284 178.749 92.0215 178.349 91.9857 177.883C91.9456 177.414 92.0633 176.87 92.3387 176.252C92.6969 175.447 93.2199 174.819 93.9077 174.369C94.5954 173.919 95.402 173.684 96.3275 173.666C97.2549 173.644 98.2571 173.872 99.3341 174.352C100.411 174.831 101.255 175.422 101.865 176.124C102.471 176.824 102.842 177.58 102.978 178.392C103.109 179.202 102.996 180.009 102.638 180.814C102.368 181.419 102.046 181.869 101.671 182.164C101.298 182.454 100.928 182.646 100.559 182.741C100.19 182.836 99.8737 182.895 99.6098 182.917L99.5376 183.08L101.088 183.77L100.245 185.665ZM96.1082 181.545C96.8089 181.857 97.4684 182.029 98.0866 182.06C98.7048 182.092 99.2489 181.982 99.7187 181.73C100.184 181.476 100.541 181.07 100.79 180.512C101.048 179.932 101.11 179.379 100.976 178.853C100.838 178.325 100.547 177.843 100.104 177.408C99.6622 176.967 99.1084 176.599 98.4423 176.302C97.7848 176.01 97.1501 175.846 96.5381 175.812C95.9281 175.774 95.384 175.884 94.906 176.143C94.4299 176.397 94.0618 176.817 93.8018 177.401C93.5515 177.963 93.4845 178.503 93.601 179.022C93.7194 179.536 93.9939 180.008 94.4243 180.438C94.8548 180.868 95.4161 181.237 96.1082 181.545ZM92.8434 166.527L106.131 172.443L105.268 174.383L91.9796 168.467L92.8434 166.527ZM109.407 165.628C108.97 166.609 108.383 167.362 107.648 167.884C106.91 168.401 106.073 168.681 105.136 168.725C104.196 168.763 103.21 168.552 102.176 168.091C101.155 167.637 100.34 167.046 99.731 166.319C99.1238 165.587 98.7549 164.78 98.6242 163.898C98.4954 163.011 98.6371 162.105 99.0493 161.179C99.2996 160.617 99.6353 160.113 100.056 159.669C100.477 159.224 100.98 158.88 101.565 158.638C102.15 158.395 102.814 158.294 103.557 158.335C104.297 158.374 105.119 158.595 106.023 158.997L106.71 159.304L103.183 167.226L101.73 166.579L104.411 160.558C103.9 160.33 103.402 160.233 102.916 160.265C102.425 160.296 101.982 160.448 101.585 160.722C101.19 160.992 100.881 161.378 100.658 161.88C100.415 162.425 100.337 162.96 100.424 163.486C100.509 164.006 100.717 164.472 101.047 164.883C101.374 165.288 101.787 165.601 102.284 165.823L103.42 166.328C104.086 166.625 104.704 166.76 105.275 166.735C105.849 166.705 106.353 166.533 106.788 166.219C107.219 165.903 107.561 165.461 107.813 164.895C107.977 164.527 108.074 164.169 108.105 163.82C108.132 163.469 108.088 163.136 107.974 162.821C107.861 162.506 107.674 162.221 107.415 161.965L108.563 160.276C109.038 160.664 109.394 161.139 109.631 161.7C109.866 162.256 109.969 162.869 109.94 163.54C109.908 164.205 109.73 164.901 109.407 165.628Z"
        fill="white" />
    <path
        d="M518.941 181.834L518.039 179.809C518.437 179.539 518.753 179.224 518.988 178.866C519.222 178.508 519.386 178.124 519.478 177.715C519.571 177.306 519.59 176.885 519.538 176.452C519.487 176.024 519.367 175.598 519.179 175.174C518.838 174.408 518.34 173.808 517.685 173.374C517.033 172.944 516.256 172.72 515.356 172.701C514.458 172.686 513.473 172.917 512.4 173.395C511.319 173.876 510.483 174.456 509.893 175.133C509.305 175.815 508.956 176.543 508.845 177.318C508.734 178.093 508.847 178.859 509.184 179.616C509.371 180.036 509.604 180.408 509.884 180.735C510.17 181.063 510.494 181.331 510.856 181.538C511.218 181.745 511.608 181.882 512.027 181.95C512.452 182.02 512.894 182.001 513.355 181.895L514.25 183.922C513.548 184.105 512.854 184.163 512.166 184.096C511.484 184.031 510.836 183.845 510.223 183.538C509.615 183.233 509.066 182.82 508.574 182.298C508.082 181.775 507.674 181.149 507.348 180.418C506.836 179.267 506.652 178.121 506.797 176.978C506.945 175.834 507.415 174.775 508.204 173.801C508.996 172.832 510.099 172.033 511.513 171.403C512.932 170.771 514.265 170.489 515.513 170.555C516.765 170.62 517.864 170.981 518.809 171.638C519.759 172.293 520.489 173.193 521 174.34C521.314 175.045 521.505 175.747 521.573 176.448C521.647 177.151 521.599 177.833 521.427 178.495C521.26 179.155 520.968 179.77 520.553 180.338C520.142 180.905 519.604 181.403 518.941 181.834ZM510.973 188.069L520.939 183.632L521.773 185.507L520.19 186.212L520.237 186.316C520.854 186.259 521.418 186.391 521.929 186.713C522.447 187.037 522.836 187.491 523.096 188.075C523.149 188.196 523.209 188.341 523.273 188.509C523.34 188.681 523.388 188.818 523.417 188.919L521.561 189.745C521.548 189.658 521.51 189.509 521.448 189.298C521.39 189.086 521.316 188.88 521.227 188.681C521.023 188.223 520.744 187.857 520.39 187.585C520.041 187.315 519.65 187.152 519.216 187.097C518.786 187.039 518.355 187.107 517.922 187.299L511.836 190.009L510.973 188.069ZM514.095 195.081L524.061 190.644L524.924 192.584L514.958 197.021L514.095 195.081ZM525.472 190.234L529.139 190.42L530.049 192.464L526.162 191.784L525.472 190.234ZM528.158 199.846L526.6 200.539L524.177 195.096L525.734 194.402L528.158 199.846ZM528.772 194.799L529.635 196.739L520.208 200.937C519.832 201.104 519.573 201.287 519.433 201.484C519.297 201.679 519.234 201.881 519.244 202.089C519.26 202.299 519.315 202.511 519.409 202.723C519.479 202.878 519.55 203.01 519.624 203.117C519.697 203.224 519.755 203.307 519.797 203.366L518.35 204.43C518.257 204.337 518.143 204.196 518.007 204.008C517.867 203.821 517.725 203.573 517.582 203.264C517.346 202.757 517.225 202.241 517.219 201.715C517.213 201.189 517.348 200.701 517.625 200.252C517.902 199.802 518.341 199.443 518.942 199.176L528.772 194.799ZM519.147 206.429L529.113 201.992L529.977 203.932L520.011 208.369L519.147 206.429ZM531.087 202.287C530.937 201.95 530.92 201.61 531.037 201.268C531.161 200.928 531.38 200.687 531.696 200.547C532.016 200.404 532.341 200.402 532.672 200.54C533.009 200.68 533.253 200.919 533.403 201.256C533.554 201.593 533.567 201.932 533.444 202.272C533.327 202.614 533.108 202.857 532.788 202.999C532.472 203.14 532.146 203.14 531.809 203C531.478 202.862 531.237 202.625 531.087 202.287ZM522.841 215.267C522.411 214.302 522.26 213.374 522.387 212.483C522.52 211.595 522.891 210.792 523.499 210.075C524.108 209.359 524.912 208.778 525.911 208.333C526.923 207.882 527.901 207.675 528.845 207.711C529.793 207.745 530.64 208.011 531.385 208.508C532.13 209.006 532.711 209.724 533.129 210.663C533.466 211.42 533.626 212.157 533.608 212.875C533.595 213.591 533.419 214.242 533.079 214.829C532.741 215.42 532.252 215.899 531.612 216.267L530.772 214.379C531.193 214.067 531.489 213.65 531.661 213.128C531.835 212.61 531.784 212.042 531.508 211.423C531.268 210.882 530.914 210.472 530.447 210.193C529.987 209.916 529.445 209.781 528.822 209.789C528.203 209.795 527.538 209.956 526.829 210.272C526.102 210.596 525.524 210.985 525.095 211.441C524.665 211.896 524.395 212.39 524.284 212.921C524.176 213.457 524.243 213.999 524.488 214.549C524.652 214.916 524.867 215.22 525.134 215.458C525.407 215.699 525.717 215.865 526.062 215.955C526.41 216.049 526.782 216.057 527.177 215.979L528.018 217.867C527.343 218.085 526.674 218.131 526.012 218.006C525.35 217.881 524.743 217.589 524.191 217.13C523.641 216.675 523.191 216.054 522.841 215.267ZM527.456 225.633C527.04 224.699 526.891 223.788 527.01 222.901C527.128 222.014 527.486 221.207 528.085 220.479C528.683 219.751 529.497 219.158 530.527 218.7C531.56 218.239 532.55 218.029 533.496 218.07C534.441 218.11 535.283 218.383 536.022 218.889C536.76 219.394 537.337 220.114 537.753 221.049C538.169 221.983 538.318 222.894 538.2 223.781C538.082 224.668 537.721 225.476 537.118 226.206C536.515 226.936 535.697 227.531 534.663 227.991C533.634 228.449 532.648 228.657 531.707 228.615C530.766 228.573 529.926 228.299 529.188 227.793C528.449 227.287 527.872 226.567 527.456 225.633ZM529.088 224.915C529.357 225.52 529.741 225.951 530.238 226.206C530.735 226.461 531.292 226.566 531.909 226.519C532.528 226.477 533.157 226.314 533.797 226.029C534.433 225.745 534.974 225.388 535.419 224.957C535.871 224.527 536.17 224.042 536.318 223.499C536.465 222.957 536.404 222.383 536.134 221.777C535.862 221.167 535.475 220.734 534.971 220.476C534.47 220.222 533.907 220.118 533.284 220.162C532.668 220.208 532.041 220.373 531.405 220.656C530.765 220.941 530.222 221.297 529.774 221.725C529.329 222.156 529.035 222.642 528.892 223.183C528.751 223.727 528.816 224.305 529.088 224.915Z"
        fill="white" />
    <path
        d="M302.778 292.179C301.935 292.179 301.183 292.034 300.522 291.744C299.866 291.455 299.344 291.052 298.956 290.536C298.572 290.016 298.364 289.413 298.33 288.727H299.94C299.974 289.149 300.119 289.513 300.375 289.82C300.631 290.123 300.965 290.357 301.379 290.523C301.792 290.69 302.25 290.773 302.753 290.773C303.315 290.773 303.814 290.675 304.249 290.479C304.683 290.283 305.024 290.01 305.271 289.661C305.518 289.311 305.642 288.906 305.642 288.446C305.642 287.964 305.523 287.54 305.284 287.174C305.045 286.803 304.696 286.513 304.236 286.305C303.776 286.096 303.213 285.991 302.548 285.991H301.5V284.585H302.548C303.068 284.585 303.524 284.491 303.916 284.304C304.313 284.116 304.621 283.852 304.843 283.511C305.069 283.17 305.182 282.77 305.182 282.31C305.182 281.866 305.084 281.481 304.888 281.153C304.692 280.825 304.415 280.569 304.057 280.386C303.703 280.202 303.286 280.111 302.804 280.111C302.352 280.111 301.926 280.194 301.526 280.36C301.129 280.522 300.805 280.759 300.554 281.07C300.303 281.376 300.166 281.747 300.145 282.182H298.611C298.636 281.496 298.843 280.895 299.231 280.379C299.619 279.859 300.126 279.455 300.752 279.165C301.383 278.875 302.075 278.73 302.83 278.73C303.639 278.73 304.334 278.894 304.913 279.222C305.493 279.546 305.938 279.974 306.249 280.507C306.56 281.04 306.716 281.615 306.716 282.233C306.716 282.97 306.522 283.599 306.134 284.119C305.751 284.638 305.229 284.999 304.568 285.199V285.301C305.395 285.437 306.04 285.789 306.505 286.356C306.969 286.918 307.202 287.615 307.202 288.446C307.202 289.158 307.008 289.797 306.62 290.364C306.237 290.926 305.712 291.369 305.048 291.693C304.383 292.017 303.626 292.179 302.778 292.179Z"
        fill="#090F47" />
    <path
        d="M290.878 98.1293L272.925 129.402C272.555 130.071 272.36 130.83 272.357 131.602C272.355 132.374 272.547 133.134 272.914 133.805C273.28 134.476 273.809 135.035 274.447 135.427C275.085 135.818 275.81 136.029 276.55 136.037H312.455C313.195 136.029 313.92 135.818 314.558 135.427C315.196 135.035 315.724 134.476 316.091 133.805C316.457 133.134 316.649 132.374 316.647 131.602C316.645 130.83 316.449 130.071 316.079 129.402L298.127 98.1293C297.749 97.4793 297.217 96.9419 296.582 96.5689C295.947 96.1959 295.231 96 294.502 96C293.774 96 293.057 96.1959 292.423 96.5689C291.788 96.9419 291.256 97.4793 290.878 98.1293Z"
        fill="#2D9CDB" stroke="#2D9CDB" stroke-width="2" stroke-linecap="round"
        stroke-linejoin="round" />
    <rect x="281" y="301" width="44" height="9" fill="#D9D9D9" fill-opacity="0.6" />
</svg>