<svg width="606" height="521" viewBox="0 0 606 521" fill="none" xmlns="http://www.w3.org/2000/svg">
<path d="M203.977 351.203H201.539C201.445 350.682 201.271 350.224 201.016 349.828C200.76 349.432 200.448 349.096 200.078 348.82C199.708 348.544 199.294 348.336 198.836 348.195C198.383 348.055 197.901 347.984 197.391 347.984C196.469 347.984 195.643 348.216 194.914 348.68C194.19 349.143 193.617 349.823 193.195 350.719C192.779 351.615 192.57 352.708 192.57 354C192.57 355.302 192.779 356.401 193.195 357.297C193.617 358.193 194.193 358.87 194.922 359.328C195.651 359.786 196.471 360.016 197.383 360.016C197.888 360.016 198.367 359.948 198.82 359.812C199.279 359.672 199.693 359.466 200.063 359.195C200.432 358.924 200.745 358.594 201 358.203C201.26 357.807 201.44 357.354 201.539 356.844L203.977 356.852C203.846 357.638 203.594 358.362 203.219 359.023C202.849 359.68 202.372 360.247 201.789 360.727C201.211 361.201 200.549 361.568 199.805 361.828C199.06 362.089 198.247 362.219 197.367 362.219C195.982 362.219 194.747 361.891 193.664 361.234C192.581 360.573 191.727 359.628 191.102 358.398C190.482 357.169 190.172 355.703 190.172 354C190.172 352.292 190.484 350.826 191.109 349.602C191.734 348.372 192.589 347.43 193.672 346.773C194.755 346.112 195.987 345.781 197.367 345.781C198.216 345.781 199.008 345.904 199.742 346.148C200.482 346.388 201.146 346.742 201.734 347.211C202.323 347.674 202.81 348.242 203.195 348.914C203.581 349.581 203.841 350.344 203.977 351.203ZM206.678 362V350H208.936V351.906H209.061C209.279 351.26 209.665 350.753 210.217 350.383C210.774 350.008 211.404 349.82 212.107 349.82C212.253 349.82 212.425 349.826 212.623 349.836C212.826 349.846 212.985 349.859 213.1 349.875V352.109C213.006 352.083 212.839 352.055 212.6 352.023C212.36 351.987 212.12 351.969 211.881 351.969C211.329 351.969 210.837 352.086 210.404 352.32C209.977 352.549 209.639 352.87 209.389 353.281C209.139 353.687 209.014 354.151 209.014 354.672V362H206.678ZM215.121 362V350H217.457V362H215.121ZM216.301 348.148C215.895 348.148 215.546 348.013 215.254 347.742C214.967 347.466 214.824 347.138 214.824 346.758C214.824 346.372 214.967 346.044 215.254 345.773C215.546 345.497 215.895 345.359 216.301 345.359C216.707 345.359 217.053 345.497 217.34 345.773C217.632 346.044 217.777 346.372 217.777 346.758C217.777 347.138 217.632 347.466 217.34 347.742C217.053 348.013 216.707 348.148 216.301 348.148ZM226.201 350V351.875H219.646V350H226.201ZM221.404 347.125H223.74V358.477C223.74 358.93 223.808 359.271 223.943 359.5C224.079 359.724 224.253 359.878 224.467 359.961C224.686 360.039 224.923 360.078 225.178 360.078C225.365 360.078 225.529 360.065 225.67 360.039C225.811 360.013 225.92 359.992 225.998 359.977L226.42 361.906C226.285 361.958 226.092 362.01 225.842 362.063C225.592 362.12 225.279 362.151 224.904 362.156C224.29 362.167 223.717 362.057 223.186 361.828C222.654 361.599 222.225 361.245 221.896 360.766C221.568 360.286 221.404 359.685 221.404 358.961V347.125ZM233.828 362.242C232.646 362.242 231.628 361.99 230.773 361.484C229.924 360.974 229.268 360.258 228.805 359.336C228.346 358.409 228.117 357.323 228.117 356.078C228.117 354.849 228.346 353.766 228.805 352.828C229.268 351.891 229.914 351.159 230.742 350.633C231.576 350.107 232.549 349.844 233.664 349.844C234.341 349.844 234.997 349.956 235.633 350.18C236.268 350.404 236.839 350.755 237.344 351.234C237.849 351.714 238.247 352.336 238.539 353.102C238.831 353.862 238.977 354.786 238.977 355.875V356.703H229.438V354.953H236.688C236.688 354.339 236.563 353.794 236.313 353.32C236.063 352.841 235.711 352.464 235.258 352.187C234.81 351.911 234.284 351.773 233.68 351.773C233.023 351.773 232.451 351.935 231.961 352.258C231.477 352.576 231.102 352.992 230.836 353.508C230.576 354.018 230.445 354.573 230.445 355.172V356.539C230.445 357.341 230.586 358.023 230.867 358.586C231.154 359.148 231.552 359.578 232.063 359.875C232.573 360.167 233.169 360.312 233.852 360.312C234.294 360.312 234.698 360.25 235.063 360.125C235.427 359.995 235.742 359.802 236.008 359.547C236.273 359.292 236.477 358.977 236.617 358.602L238.828 359C238.651 359.651 238.333 360.221 237.875 360.711C237.422 361.195 236.852 361.573 236.164 361.844C235.482 362.109 234.703 362.242 233.828 362.242ZM241.568 362V350H243.826V351.906H243.951C244.17 351.26 244.555 350.753 245.107 350.383C245.665 350.008 246.295 349.82 246.998 349.82C247.144 349.82 247.316 349.826 247.514 349.836C247.717 349.846 247.876 349.859 247.99 349.875V352.109C247.896 352.083 247.73 352.055 247.49 352.023C247.251 351.987 247.011 351.969 246.771 351.969C246.219 351.969 245.727 352.086 245.295 352.32C244.868 352.549 244.529 352.87 244.279 353.281C244.029 353.687 243.904 354.151 243.904 354.672V362H241.568ZM250.012 362V350H252.348V362H250.012ZM251.191 348.148C250.785 348.148 250.436 348.013 250.145 347.742C249.858 347.466 249.715 347.138 249.715 346.758C249.715 346.372 249.858 346.044 250.145 345.773C250.436 345.497 250.785 345.359 251.191 345.359C251.598 345.359 251.944 345.497 252.23 345.773C252.522 346.044 252.668 346.372 252.668 346.758C252.668 347.138 252.522 347.466 252.23 347.742C251.944 348.013 251.598 348.148 251.191 348.148ZM260.545 362.242C259.42 362.242 258.438 361.984 257.6 361.469C256.761 360.953 256.11 360.232 255.646 359.305C255.183 358.378 254.951 357.294 254.951 356.055C254.951 354.81 255.183 353.721 255.646 352.789C256.11 351.857 256.761 351.133 257.6 350.617C258.438 350.102 259.42 349.844 260.545 349.844C261.67 349.844 262.652 350.102 263.49 350.617C264.329 351.133 264.98 351.857 265.443 352.789C265.907 353.721 266.139 354.81 266.139 356.055C266.139 357.294 265.907 358.378 265.443 359.305C264.98 360.232 264.329 360.953 263.49 361.469C262.652 361.984 261.67 362.242 260.545 362.242ZM260.553 360.281C261.282 360.281 261.886 360.089 262.365 359.703C262.844 359.318 263.199 358.805 263.428 358.164C263.662 357.523 263.779 356.818 263.779 356.047C263.779 355.281 263.662 354.578 263.428 353.937C263.199 353.292 262.844 352.773 262.365 352.383C261.886 351.992 261.282 351.797 260.553 351.797C259.818 351.797 259.209 351.992 258.725 352.383C258.245 352.773 257.889 353.292 257.654 353.937C257.425 354.578 257.311 355.281 257.311 356.047C257.311 356.818 257.425 357.523 257.654 358.164C257.889 358.805 258.245 359.318 258.725 359.703C259.209 360.089 259.818 360.281 260.553 360.281ZM277.738 352.93L275.621 353.305C275.533 353.034 275.392 352.776 275.199 352.531C275.012 352.286 274.757 352.086 274.434 351.93C274.111 351.773 273.707 351.695 273.223 351.695C272.561 351.695 272.009 351.844 271.566 352.141C271.124 352.432 270.902 352.81 270.902 353.273C270.902 353.674 271.051 353.997 271.348 354.242C271.645 354.487 272.124 354.687 272.785 354.844L274.691 355.281C275.796 355.536 276.618 355.93 277.16 356.461C277.702 356.992 277.973 357.682 277.973 358.531C277.973 359.25 277.764 359.891 277.348 360.453C276.936 361.01 276.361 361.448 275.621 361.766C274.887 362.083 274.035 362.242 273.066 362.242C271.723 362.242 270.626 361.956 269.777 361.383C268.928 360.805 268.408 359.984 268.215 358.922L270.473 358.578C270.613 359.167 270.902 359.612 271.34 359.914C271.777 360.211 272.348 360.359 273.051 360.359C273.816 360.359 274.428 360.201 274.887 359.883C275.345 359.56 275.574 359.167 275.574 358.703C275.574 358.328 275.434 358.013 275.152 357.758C274.876 357.503 274.452 357.31 273.879 357.18L271.848 356.734C270.728 356.479 269.9 356.073 269.363 355.516C268.832 354.958 268.566 354.253 268.566 353.398C268.566 352.69 268.764 352.07 269.16 351.539C269.556 351.008 270.103 350.594 270.801 350.297C271.499 349.995 272.298 349.844 273.199 349.844C274.496 349.844 275.517 350.125 276.262 350.687C277.007 351.245 277.499 351.992 277.738 352.93ZM290.855 362.234C289.887 362.234 289.022 361.987 288.262 361.492C287.507 360.992 286.913 360.281 286.48 359.359C286.053 358.432 285.84 357.32 285.84 356.023C285.84 354.727 286.056 353.617 286.488 352.695C286.926 351.773 287.525 351.068 288.285 350.578C289.046 350.089 289.908 349.844 290.871 349.844C291.616 349.844 292.215 349.969 292.668 350.219C293.126 350.464 293.48 350.75 293.73 351.078C293.986 351.406 294.184 351.695 294.324 351.945H294.465V346H296.801V362H294.52V360.133H294.324C294.184 360.388 293.98 360.68 293.715 361.008C293.454 361.336 293.095 361.622 292.637 361.867C292.178 362.112 291.585 362.234 290.855 362.234ZM291.371 360.242C292.043 360.242 292.611 360.065 293.074 359.711C293.543 359.352 293.897 358.854 294.137 358.219C294.382 357.583 294.504 356.844 294.504 356C294.504 355.167 294.384 354.437 294.145 353.812C293.905 353.187 293.553 352.701 293.09 352.352C292.626 352.003 292.053 351.828 291.371 351.828C290.668 351.828 290.082 352.01 289.613 352.375C289.145 352.74 288.79 353.237 288.551 353.867C288.316 354.497 288.199 355.208 288.199 356C288.199 356.802 288.319 357.523 288.559 358.164C288.798 358.805 289.152 359.312 289.621 359.687C290.095 360.057 290.678 360.242 291.371 360.242ZM305.307 362.242C304.124 362.242 303.106 361.99 302.252 361.484C301.403 360.974 300.747 360.258 300.283 359.336C299.825 358.409 299.596 357.323 299.596 356.078C299.596 354.849 299.825 353.766 300.283 352.828C300.747 351.891 301.393 351.159 302.221 350.633C303.054 350.107 304.028 349.844 305.143 349.844C305.82 349.844 306.476 349.956 307.111 350.18C307.747 350.404 308.317 350.755 308.822 351.234C309.327 351.714 309.726 352.336 310.018 353.102C310.309 353.862 310.455 354.786 310.455 355.875V356.703H300.916V354.953H308.166C308.166 354.339 308.041 353.794 307.791 353.32C307.541 352.841 307.189 352.464 306.736 352.187C306.288 351.911 305.762 351.773 305.158 351.773C304.502 351.773 303.929 351.935 303.439 352.258C302.955 352.576 302.58 352.992 302.314 353.508C302.054 354.018 301.924 354.573 301.924 355.172V356.539C301.924 357.341 302.064 358.023 302.346 358.586C302.632 359.148 303.031 359.578 303.541 359.875C304.051 360.167 304.648 360.312 305.33 360.312C305.773 360.312 306.176 360.25 306.541 360.125C306.906 359.995 307.221 359.802 307.486 359.547C307.752 359.292 307.955 358.977 308.096 358.602L310.307 359C310.13 359.651 309.812 360.221 309.354 360.711C308.9 361.195 308.33 361.573 307.643 361.844C306.96 362.109 306.182 362.242 305.307 362.242ZM322.361 362.266C321.601 362.266 320.913 362.125 320.299 361.844C319.684 361.557 319.197 361.143 318.838 360.602C318.484 360.06 318.307 359.396 318.307 358.609C318.307 357.932 318.437 357.375 318.697 356.937C318.958 356.5 319.309 356.154 319.752 355.898C320.195 355.643 320.689 355.451 321.236 355.32C321.783 355.19 322.34 355.091 322.908 355.023C323.627 354.94 324.21 354.872 324.658 354.82C325.106 354.763 325.432 354.672 325.635 354.547C325.838 354.422 325.939 354.219 325.939 353.937V353.883C325.939 353.201 325.747 352.672 325.361 352.297C324.981 351.922 324.413 351.734 323.658 351.734C322.872 351.734 322.252 351.909 321.799 352.258C321.351 352.602 321.041 352.984 320.869 353.406L318.674 352.906C318.934 352.177 319.314 351.589 319.814 351.141C320.32 350.687 320.9 350.359 321.557 350.156C322.213 349.948 322.903 349.844 323.627 349.844C324.106 349.844 324.614 349.901 325.15 350.016C325.692 350.125 326.197 350.328 326.666 350.625C327.14 350.922 327.528 351.346 327.83 351.898C328.132 352.445 328.283 353.156 328.283 354.031V362H326.002V360.359H325.908C325.757 360.661 325.531 360.958 325.229 361.25C324.926 361.542 324.538 361.784 324.064 361.977C323.59 362.169 323.023 362.266 322.361 362.266ZM322.869 360.391C323.515 360.391 324.067 360.263 324.525 360.008C324.989 359.753 325.34 359.419 325.58 359.008C325.825 358.591 325.947 358.146 325.947 357.672V356.125C325.864 356.208 325.702 356.286 325.463 356.359C325.229 356.427 324.96 356.487 324.658 356.539C324.356 356.586 324.062 356.63 323.775 356.672C323.489 356.708 323.249 356.74 323.057 356.766C322.604 356.823 322.189 356.919 321.814 357.055C321.445 357.19 321.148 357.385 320.924 357.641C320.705 357.891 320.596 358.224 320.596 358.641C320.596 359.219 320.809 359.656 321.236 359.953C321.663 360.245 322.208 360.391 322.869 360.391ZM336.449 362.242C335.288 362.242 334.288 361.979 333.449 361.453C332.616 360.922 331.975 360.19 331.527 359.258C331.079 358.326 330.855 357.258 330.855 356.055C330.855 354.836 331.085 353.76 331.543 352.828C332.001 351.891 332.647 351.159 333.48 350.633C334.314 350.107 335.296 349.844 336.426 349.844C337.337 349.844 338.15 350.013 338.863 350.352C339.577 350.685 340.152 351.154 340.59 351.758C341.033 352.362 341.296 353.068 341.379 353.875H339.105C338.98 353.312 338.694 352.828 338.246 352.422C337.803 352.016 337.21 351.812 336.465 351.812C335.814 351.812 335.243 351.984 334.754 352.328C334.27 352.667 333.892 353.151 333.621 353.781C333.35 354.406 333.215 355.146 333.215 356C333.215 356.875 333.348 357.63 333.613 358.266C333.879 358.901 334.254 359.393 334.738 359.742C335.228 360.091 335.803 360.266 336.465 360.266C336.908 360.266 337.309 360.185 337.668 360.023C338.033 359.857 338.337 359.62 338.582 359.312C338.832 359.005 339.007 358.635 339.105 358.203H341.379C341.296 358.979 341.043 359.672 340.621 360.281C340.199 360.891 339.634 361.37 338.926 361.719C338.223 362.068 337.397 362.242 336.449 362.242ZM349.049 362.242C347.867 362.242 346.848 361.99 345.994 361.484C345.145 360.974 344.489 360.258 344.025 359.336C343.567 358.409 343.338 357.323 343.338 356.078C343.338 354.849 343.567 353.766 344.025 352.828C344.489 351.891 345.135 351.159 345.963 350.633C346.796 350.107 347.77 349.844 348.885 349.844C349.562 349.844 350.218 349.956 350.854 350.18C351.489 350.404 352.059 350.755 352.564 351.234C353.07 351.714 353.468 352.336 353.76 353.102C354.051 353.862 354.197 354.786 354.197 355.875V356.703H344.658V354.953H351.908C351.908 354.339 351.783 353.794 351.533 353.32C351.283 352.841 350.932 352.464 350.479 352.187C350.031 351.911 349.505 351.773 348.9 351.773C348.244 351.773 347.671 351.935 347.182 352.258C346.697 352.576 346.322 352.992 346.057 353.508C345.796 354.018 345.666 354.573 345.666 355.172V356.539C345.666 357.341 345.807 358.023 346.088 358.586C346.374 359.148 346.773 359.578 347.283 359.875C347.794 360.167 348.39 360.312 349.072 360.312C349.515 360.312 349.919 360.25 350.283 360.125C350.648 359.995 350.963 359.802 351.229 359.547C351.494 359.292 351.697 358.977 351.838 358.602L354.049 359C353.872 359.651 353.554 360.221 353.096 360.711C352.643 361.195 352.072 361.573 351.385 361.844C350.702 362.109 349.924 362.242 349.049 362.242ZM356.789 366.5V350H359.07V351.945H359.266C359.401 351.695 359.596 351.406 359.852 351.078C360.107 350.75 360.461 350.464 360.914 350.219C361.367 349.969 361.966 349.844 362.711 349.844C363.68 349.844 364.544 350.089 365.305 350.578C366.065 351.068 366.661 351.773 367.094 352.695C367.531 353.617 367.75 354.727 367.75 356.023C367.75 357.32 367.534 358.432 367.102 359.359C366.669 360.281 366.076 360.992 365.32 361.492C364.565 361.987 363.703 362.234 362.734 362.234C362.005 362.234 361.409 362.112 360.945 361.867C360.487 361.622 360.128 361.336 359.867 361.008C359.607 360.68 359.406 360.388 359.266 360.133H359.125V366.5H356.789ZM359.078 356C359.078 356.844 359.201 357.583 359.445 358.219C359.69 358.854 360.044 359.352 360.508 359.711C360.971 360.065 361.539 360.242 362.211 360.242C362.909 360.242 363.492 360.057 363.961 359.687C364.43 359.312 364.784 358.805 365.023 358.164C365.268 357.523 365.391 356.802 365.391 356C365.391 355.208 365.271 354.497 365.031 353.867C364.797 353.237 364.443 352.74 363.969 352.375C363.5 352.01 362.914 351.828 362.211 351.828C361.534 351.828 360.961 352.003 360.492 352.352C360.029 352.701 359.677 353.187 359.438 353.812C359.198 354.437 359.078 355.167 359.078 356ZM375.969 350V351.875H369.414V350H375.969ZM371.172 347.125H373.508V358.477C373.508 358.93 373.576 359.271 373.711 359.5C373.846 359.724 374.021 359.878 374.234 359.961C374.453 360.039 374.69 360.078 374.945 360.078C375.133 360.078 375.297 360.065 375.438 360.039C375.578 360.013 375.688 359.992 375.766 359.977L376.188 361.906C376.052 361.958 375.859 362.01 375.609 362.063C375.359 362.12 375.047 362.151 374.672 362.156C374.057 362.167 373.484 362.057 372.953 361.828C372.422 361.599 371.992 361.245 371.664 360.766C371.336 360.286 371.172 359.685 371.172 358.961V347.125ZM382.045 362.266C381.285 362.266 380.597 362.125 379.982 361.844C379.368 361.557 378.881 361.143 378.521 360.602C378.167 360.06 377.99 359.396 377.99 358.609C377.99 357.932 378.12 357.375 378.381 356.937C378.641 356.5 378.993 356.154 379.436 355.898C379.878 355.643 380.373 355.451 380.92 355.32C381.467 355.19 382.024 355.091 382.592 355.023C383.311 354.94 383.894 354.872 384.342 354.82C384.79 354.763 385.115 354.672 385.318 354.547C385.521 354.422 385.623 354.219 385.623 353.937V353.883C385.623 353.201 385.43 352.672 385.045 352.297C384.665 351.922 384.097 351.734 383.342 351.734C382.555 351.734 381.936 351.909 381.482 352.258C381.035 352.602 380.725 352.984 380.553 353.406L378.357 352.906C378.618 352.177 378.998 351.589 379.498 351.141C380.003 350.687 380.584 350.359 381.24 350.156C381.896 349.948 382.587 349.844 383.311 349.844C383.79 349.844 384.298 349.901 384.834 350.016C385.376 350.125 385.881 350.328 386.35 350.625C386.824 350.922 387.212 351.346 387.514 351.898C387.816 352.445 387.967 353.156 387.967 354.031V362H385.686V360.359H385.592C385.441 360.661 385.214 360.958 384.912 361.25C384.61 361.542 384.222 361.784 383.748 361.977C383.274 362.169 382.706 362.266 382.045 362.266ZM382.553 360.391C383.199 360.391 383.751 360.263 384.209 360.008C384.673 359.753 385.024 359.419 385.264 359.008C385.508 358.591 385.631 358.146 385.631 357.672V356.125C385.548 356.208 385.386 356.286 385.146 356.359C384.912 356.427 384.644 356.487 384.342 356.539C384.04 356.586 383.745 356.63 383.459 356.672C383.173 356.708 382.933 356.74 382.74 356.766C382.287 356.823 381.873 356.919 381.498 357.055C381.128 357.19 380.831 357.385 380.607 357.641C380.389 357.891 380.279 358.224 380.279 358.641C380.279 359.219 380.493 359.656 380.92 359.953C381.347 360.245 381.891 360.391 382.553 360.391ZM396.133 362.242C394.971 362.242 393.971 361.979 393.133 361.453C392.299 360.922 391.659 360.19 391.211 359.258C390.763 358.326 390.539 357.258 390.539 356.055C390.539 354.836 390.768 353.76 391.227 352.828C391.685 351.891 392.331 351.159 393.164 350.633C393.997 350.107 394.979 349.844 396.109 349.844C397.021 349.844 397.833 350.013 398.547 350.352C399.26 350.685 399.836 351.154 400.273 351.758C400.716 352.362 400.979 353.068 401.062 353.875H398.789C398.664 353.312 398.378 352.828 397.93 352.422C397.487 352.016 396.893 351.812 396.148 351.812C395.497 351.812 394.927 351.984 394.438 352.328C393.953 352.667 393.576 353.151 393.305 353.781C393.034 354.406 392.898 355.146 392.898 356C392.898 356.875 393.031 357.63 393.297 358.266C393.563 358.901 393.938 359.393 394.422 359.742C394.911 360.091 395.487 360.266 396.148 360.266C396.591 360.266 396.992 360.185 397.352 360.023C397.716 359.857 398.021 359.62 398.266 359.312C398.516 359.005 398.69 358.635 398.789 358.203H401.062C400.979 358.979 400.727 359.672 400.305 360.281C399.883 360.891 399.318 361.37 398.609 361.719C397.906 362.068 397.081 362.242 396.133 362.242ZM403.561 362V350H405.896V362H403.561ZM404.74 348.148C404.334 348.148 403.985 348.013 403.693 347.742C403.407 347.466 403.264 347.138 403.264 346.758C403.264 346.372 403.407 346.044 403.693 345.773C403.985 345.497 404.334 345.359 404.74 345.359C405.146 345.359 405.493 345.497 405.779 345.773C406.071 346.044 406.217 346.372 406.217 346.758C406.217 347.138 406.071 347.466 405.779 347.742C405.493 348.013 405.146 348.148 404.74 348.148ZM414.094 362.242C412.969 362.242 411.987 361.984 411.148 361.469C410.31 360.953 409.659 360.232 409.195 359.305C408.732 358.378 408.5 357.294 408.5 356.055C408.5 354.81 408.732 353.721 409.195 352.789C409.659 351.857 410.31 351.133 411.148 350.617C411.987 350.102 412.969 349.844 414.094 349.844C415.219 349.844 416.201 350.102 417.039 350.617C417.878 351.133 418.529 351.857 418.992 352.789C419.456 353.721 419.688 354.81 419.688 356.055C419.688 357.294 419.456 358.378 418.992 359.305C418.529 360.232 417.878 360.953 417.039 361.469C416.201 361.984 415.219 362.242 414.094 362.242ZM414.102 360.281C414.831 360.281 415.435 360.089 415.914 359.703C416.393 359.318 416.747 358.805 416.977 358.164C417.211 357.523 417.328 356.818 417.328 356.047C417.328 355.281 417.211 354.578 416.977 353.937C416.747 353.292 416.393 352.773 415.914 352.383C415.435 351.992 414.831 351.797 414.102 351.797C413.367 351.797 412.758 351.992 412.273 352.383C411.794 352.773 411.438 353.292 411.203 353.937C410.974 354.578 410.859 355.281 410.859 356.047C410.859 356.818 410.974 357.523 411.203 358.164C411.438 358.805 411.794 359.318 412.273 359.703C412.758 360.089 413.367 360.281 414.102 360.281ZM424.631 354.875V362H422.295V350H424.537V351.953H424.686C424.962 351.318 425.394 350.807 425.982 350.422C426.576 350.036 427.324 349.844 428.225 349.844C429.042 349.844 429.758 350.016 430.373 350.359C430.988 350.698 431.464 351.203 431.803 351.875C432.141 352.547 432.311 353.378 432.311 354.367V362H429.975V354.648C429.975 353.779 429.748 353.099 429.295 352.609C428.842 352.115 428.219 351.867 427.428 351.867C426.886 351.867 426.404 351.984 425.982 352.219C425.566 352.453 425.235 352.797 424.99 353.25C424.751 353.698 424.631 354.24 424.631 354.875Z" fill="#130F26"/>
<circle cx="78.2002" cy="406.887" r="14.2939" fill="#90BE6D"/>
<circle cx="78.2002" cy="456.564" r="14.2939" fill="#F9C74F"/>
<circle cx="78.2002" cy="506.241" r="14.2939" fill="#F94144"/>
<path d="M110.048 411.315V410.011L115.801 400.909H116.747V402.929H116.108L111.761 409.807V409.909H119.509V411.315H110.048ZM116.21 414V410.919V410.312V400.909H117.719V414H116.21ZM137.731 405H136.145C136.052 404.544 135.888 404.143 135.653 403.798C135.423 403.453 135.142 403.163 134.809 402.929C134.481 402.69 134.117 402.511 133.716 402.392C133.316 402.273 132.898 402.213 132.464 402.213C131.671 402.213 130.953 402.413 130.309 402.814C129.67 403.214 129.161 403.805 128.782 404.585C128.407 405.364 128.219 406.321 128.219 407.455C128.219 408.588 128.407 409.545 128.782 410.325C129.161 411.104 129.67 411.695 130.309 412.095C130.953 412.496 131.671 412.696 132.464 412.696C132.898 412.696 133.316 412.636 133.716 412.517C134.117 412.398 134.481 412.221 134.809 411.987C135.142 411.748 135.423 411.456 135.653 411.111C135.888 410.761 136.052 410.361 136.145 409.909H137.731C137.611 410.578 137.394 411.177 137.079 411.705C136.763 412.234 136.371 412.683 135.903 413.054C135.434 413.42 134.907 413.7 134.324 413.891C133.744 414.083 133.124 414.179 132.464 414.179C131.347 414.179 130.354 413.906 129.485 413.361C128.616 412.815 127.932 412.04 127.433 411.034C126.934 410.028 126.685 408.835 126.685 407.455C126.685 406.074 126.934 404.881 127.433 403.875C127.932 402.869 128.616 402.094 129.485 401.548C130.354 401.003 131.347 400.73 132.464 400.73C133.124 400.73 133.744 400.826 134.324 401.018C134.907 401.21 135.434 401.491 135.903 401.862C136.371 402.228 136.763 402.675 137.079 403.204C137.394 403.728 137.611 404.327 137.731 405ZM144.076 414.205C143.19 414.205 142.412 413.994 141.743 413.572C141.078 413.15 140.559 412.56 140.184 411.801C139.813 411.043 139.627 410.156 139.627 409.142C139.627 408.119 139.813 407.227 140.184 406.464C140.559 405.701 141.078 405.109 141.743 404.687C142.412 404.265 143.19 404.054 144.076 404.054C144.963 404.054 145.738 404.265 146.403 404.687C147.072 405.109 147.592 405.701 147.963 406.464C148.338 407.227 148.525 408.119 148.525 409.142C148.525 410.156 148.338 411.043 147.963 411.801C147.592 412.56 147.072 413.15 146.403 413.572C145.738 413.994 144.963 414.205 144.076 414.205ZM144.076 412.849C144.75 412.849 145.304 412.677 145.738 412.332C146.173 411.987 146.495 411.533 146.703 410.97C146.912 410.408 147.017 409.798 147.017 409.142C147.017 408.486 146.912 407.874 146.703 407.308C146.495 406.741 146.173 406.283 145.738 405.933C145.304 405.584 144.75 405.409 144.076 405.409C143.403 405.409 142.849 405.584 142.414 405.933C141.98 406.283 141.658 406.741 141.449 407.308C141.24 407.874 141.136 408.486 141.136 409.142C141.136 409.798 141.24 410.408 141.449 410.97C141.658 411.533 141.98 411.987 142.414 412.332C142.849 412.677 143.403 412.849 144.076 412.849ZM152.336 408.094V414H150.828V404.182H152.285V405.716H152.413C152.643 405.217 152.993 404.817 153.461 404.514C153.93 404.207 154.535 404.054 155.277 404.054C155.942 404.054 156.523 404.19 157.022 404.463C157.52 404.732 157.908 405.141 158.185 405.69C158.462 406.236 158.601 406.926 158.601 407.761V414H157.092V407.864C157.092 407.092 156.892 406.491 156.491 406.061C156.091 405.626 155.541 405.409 154.842 405.409C154.361 405.409 153.93 405.513 153.551 405.722C153.176 405.931 152.88 406.236 152.662 406.636C152.445 407.037 152.336 407.523 152.336 408.094ZM168.312 406.381L166.957 406.764C166.871 406.538 166.746 406.319 166.58 406.106C166.418 405.888 166.196 405.71 165.915 405.569C165.634 405.428 165.273 405.358 164.835 405.358C164.234 405.358 163.733 405.496 163.332 405.773C162.936 406.046 162.738 406.393 162.738 406.815C162.738 407.19 162.874 407.487 163.147 407.704C163.42 407.921 163.846 408.102 164.425 408.247L165.883 408.605C166.761 408.818 167.415 409.144 167.845 409.583C168.276 410.018 168.491 410.578 168.491 411.264C168.491 411.827 168.329 412.33 168.005 412.773C167.685 413.216 167.238 413.565 166.663 413.821C166.087 414.077 165.418 414.205 164.656 414.205C163.654 414.205 162.825 413.987 162.169 413.553C161.513 413.118 161.097 412.483 160.923 411.648L162.354 411.29C162.491 411.818 162.749 412.214 163.128 412.479C163.511 412.743 164.012 412.875 164.63 412.875C165.333 412.875 165.891 412.726 166.305 412.428C166.722 412.125 166.931 411.763 166.931 411.341C166.931 411 166.812 410.714 166.573 410.484C166.335 410.25 165.968 410.075 165.474 409.96L163.837 409.577C162.938 409.364 162.278 409.033 161.856 408.586C161.438 408.134 161.229 407.57 161.229 406.892C161.229 406.338 161.385 405.848 161.696 405.422C162.011 404.996 162.44 404.661 162.981 404.418C163.526 404.175 164.144 404.054 164.835 404.054C165.806 404.054 166.569 404.267 167.123 404.693C167.681 405.119 168.077 405.682 168.312 406.381ZM176.949 409.986V404.182H178.458V414H176.949V412.338H176.847C176.617 412.837 176.259 413.261 175.773 413.61C175.287 413.955 174.673 414.128 173.932 414.128C173.318 414.128 172.773 413.994 172.296 413.725C171.818 413.452 171.443 413.043 171.171 412.498C170.898 411.948 170.762 411.256 170.762 410.42V404.182H172.27V410.318C172.27 411.034 172.47 411.605 172.871 412.031C173.276 412.457 173.791 412.67 174.418 412.67C174.793 412.67 175.174 412.575 175.562 412.383C175.954 412.191 176.282 411.897 176.546 411.501C176.815 411.104 176.949 410.599 176.949 409.986ZM182.729 400.909V414H181.221V400.909H182.729ZM189.762 404.182V405.46H184.674V404.182H189.762ZM186.157 401.83H187.665V411.188C187.665 411.614 187.727 411.933 187.851 412.146C187.979 412.355 188.14 412.496 188.336 412.568C188.537 412.636 188.748 412.67 188.969 412.67C189.135 412.67 189.272 412.662 189.378 412.645C189.485 412.624 189.57 412.607 189.634 412.594L189.941 413.949C189.839 413.987 189.696 414.026 189.513 414.064C189.329 414.107 189.097 414.128 188.816 414.128C188.39 414.128 187.972 414.036 187.563 413.853C187.158 413.67 186.822 413.391 186.553 413.016C186.289 412.641 186.157 412.168 186.157 411.597V401.83ZM194.92 414.23C194.298 414.23 193.733 414.113 193.226 413.879C192.719 413.64 192.317 413.297 192.018 412.849C191.72 412.398 191.571 411.852 191.571 411.213C191.571 410.651 191.682 410.195 191.903 409.845C192.125 409.491 192.421 409.214 192.792 409.014C193.162 408.814 193.572 408.665 194.019 408.567C194.471 408.464 194.925 408.384 195.381 408.324C195.977 408.247 196.461 408.19 196.831 408.151C197.206 408.109 197.479 408.038 197.65 407.94C197.824 407.842 197.912 407.672 197.912 407.429V407.378C197.912 406.747 197.739 406.257 197.394 405.908C197.053 405.558 196.535 405.384 195.841 405.384C195.121 405.384 194.556 405.541 194.147 405.857C193.738 406.172 193.45 406.509 193.284 406.866L191.852 406.355C192.108 405.759 192.449 405.294 192.875 404.962C193.305 404.625 193.774 404.391 194.281 404.259C194.792 404.122 195.295 404.054 195.79 404.054C196.105 404.054 196.467 404.092 196.876 404.169C197.29 404.241 197.688 404.393 198.072 404.623C198.459 404.853 198.781 405.2 199.037 405.665C199.292 406.129 199.42 406.751 199.42 407.531V414H197.912V412.67H197.835C197.733 412.884 197.562 413.112 197.324 413.354C197.085 413.597 196.768 413.804 196.371 413.974C195.975 414.145 195.491 414.23 194.92 414.23ZM195.15 412.875C195.747 412.875 196.25 412.758 196.659 412.523C197.072 412.289 197.383 411.987 197.592 411.616C197.805 411.245 197.912 410.855 197.912 410.446V409.065C197.848 409.142 197.707 409.212 197.49 409.276C197.277 409.336 197.03 409.389 196.748 409.436C196.471 409.479 196.201 409.517 195.937 409.551C195.677 409.581 195.466 409.607 195.304 409.628C194.912 409.679 194.545 409.762 194.204 409.877C193.868 409.988 193.595 410.156 193.386 410.382C193.182 410.604 193.079 410.906 193.079 411.29C193.079 411.814 193.273 412.21 193.661 412.479C194.053 412.743 194.55 412.875 195.15 412.875ZM209.128 406.381L207.773 406.764C207.688 406.538 207.562 406.319 207.396 406.106C207.234 405.888 207.012 405.71 206.731 405.569C206.45 405.428 206.09 405.358 205.651 405.358C205.05 405.358 204.549 405.496 204.149 405.773C203.752 406.046 203.554 406.393 203.554 406.815C203.554 407.19 203.691 407.487 203.963 407.704C204.236 407.921 204.662 408.102 205.242 408.247L206.699 408.605C207.577 408.818 208.231 409.144 208.662 409.583C209.092 410.018 209.307 410.578 209.307 411.264C209.307 411.827 209.145 412.33 208.821 412.773C208.502 413.216 208.054 413.565 207.479 413.821C206.904 414.077 206.235 414.205 205.472 414.205C204.471 414.205 203.642 413.987 202.985 413.553C202.329 413.118 201.914 412.483 201.739 411.648L203.171 411.29C203.307 411.818 203.565 412.214 203.944 412.479C204.328 412.743 204.828 412.875 205.446 412.875C206.15 412.875 206.708 412.726 207.121 412.428C207.539 412.125 207.748 411.763 207.748 411.341C207.748 411 207.628 410.714 207.39 410.484C207.151 410.25 206.784 410.075 206.29 409.96L204.654 409.577C203.755 409.364 203.094 409.033 202.672 408.586C202.255 408.134 202.046 407.57 202.046 406.892C202.046 406.338 202.201 405.848 202.512 405.422C202.828 404.996 203.256 404.661 203.797 404.418C204.343 404.175 204.961 404.054 205.651 404.054C206.623 404.054 207.385 404.267 207.939 404.693C208.498 405.119 208.894 405.682 209.128 406.381ZM217.765 404.182L220.118 408.196L222.47 404.182H224.209L221.038 409.091L224.209 414H222.47L220.118 410.19L217.765 414H216.027L219.146 409.091L216.027 404.182H217.765ZM231.628 414V400.909H233.213V406.739H240.194V400.909H241.779V414H240.194V408.145H233.213V414H231.628ZM248.737 414.205C247.85 414.205 247.072 413.994 246.403 413.572C245.739 413.15 245.219 412.56 244.844 411.801C244.473 411.043 244.288 410.156 244.288 409.142C244.288 408.119 244.473 407.227 244.844 406.464C245.219 405.701 245.739 405.109 246.403 404.687C247.072 404.265 247.85 404.054 248.737 404.054C249.623 404.054 250.398 404.265 251.063 404.687C251.732 405.109 252.252 405.701 252.623 406.464C252.998 407.227 253.185 408.119 253.185 409.142C253.185 410.156 252.998 411.043 252.623 411.801C252.252 412.56 251.732 413.15 251.063 413.572C250.398 413.994 249.623 414.205 248.737 414.205ZM248.737 412.849C249.41 412.849 249.964 412.677 250.398 412.332C250.833 411.987 251.155 411.533 251.364 410.97C251.572 410.408 251.677 409.798 251.677 409.142C251.677 408.486 251.572 407.874 251.364 407.308C251.155 406.741 250.833 406.283 250.398 405.933C249.964 405.584 249.41 405.409 248.737 405.409C248.063 405.409 247.509 405.584 247.075 405.933C246.64 406.283 246.318 406.741 246.109 407.308C245.901 407.874 245.796 408.486 245.796 409.142C245.796 409.798 245.901 410.408 246.109 410.97C246.318 411.533 246.64 411.987 247.075 412.332C247.509 412.677 248.063 412.849 248.737 412.849ZM255.488 414V404.182H256.945V405.665H257.048C257.227 405.179 257.551 404.785 258.019 404.482C258.488 404.18 259.017 404.028 259.605 404.028C259.715 404.028 259.854 404.031 260.02 404.035C260.186 404.039 260.312 404.045 260.397 404.054V405.588C260.346 405.575 260.229 405.556 260.046 405.531C259.867 405.501 259.677 405.486 259.477 405.486C258.999 405.486 258.573 405.586 258.198 405.786C257.828 405.982 257.534 406.255 257.316 406.604C257.103 406.95 256.997 407.344 256.997 407.787V414H255.488ZM265.075 414.23C264.452 414.23 263.888 414.113 263.381 413.879C262.874 413.64 262.471 413.297 262.173 412.849C261.874 412.398 261.725 411.852 261.725 411.213C261.725 410.651 261.836 410.195 262.058 409.845C262.279 409.491 262.575 409.214 262.946 409.014C263.317 408.814 263.726 408.665 264.173 408.567C264.625 408.464 265.079 408.384 265.535 408.324C266.131 408.247 266.615 408.19 266.986 408.151C267.361 408.109 267.634 408.038 267.804 407.94C267.979 407.842 268.066 407.672 268.066 407.429V407.378C268.066 406.747 267.893 406.257 267.548 405.908C267.207 405.558 266.69 405.384 265.995 405.384C265.275 405.384 264.71 405.541 264.301 405.857C263.892 406.172 263.604 406.509 263.438 406.866L262.006 406.355C262.262 405.759 262.603 405.294 263.029 404.962C263.46 404.625 263.928 404.391 264.435 404.259C264.947 404.122 265.45 404.054 265.944 404.054C266.259 404.054 266.621 404.092 267.031 404.169C267.444 404.241 267.842 404.393 268.226 404.623C268.614 404.853 268.935 405.2 269.191 405.665C269.447 406.129 269.575 406.751 269.575 407.531V414H268.066V412.67H267.989C267.887 412.884 267.717 413.112 267.478 413.354C267.239 413.597 266.922 413.804 266.526 413.974C266.129 414.145 265.646 414.23 265.075 414.23ZM265.305 412.875C265.901 412.875 266.404 412.758 266.813 412.523C267.227 412.289 267.538 411.987 267.746 411.616C267.96 411.245 268.066 410.855 268.066 410.446V409.065C268.002 409.142 267.862 409.212 267.644 409.276C267.431 409.336 267.184 409.389 266.903 409.436C266.626 409.479 266.355 409.517 266.091 409.551C265.831 409.581 265.62 409.607 265.458 409.628C265.066 409.679 264.7 409.762 264.359 409.877C264.022 409.988 263.749 410.156 263.54 410.382C263.336 410.604 263.234 410.906 263.234 411.29C263.234 411.814 263.428 412.21 263.815 412.479C264.207 412.743 264.704 412.875 265.305 412.875Z" fill="black"/>
<path d="M114.778 463.856C113.935 463.856 113.183 463.711 112.522 463.422C111.866 463.132 111.344 462.729 110.956 462.213C110.572 461.694 110.364 461.091 110.33 460.405H111.94C111.974 460.826 112.119 461.191 112.375 461.498C112.631 461.8 112.965 462.034 113.379 462.201C113.792 462.367 114.25 462.45 114.753 462.45C115.315 462.45 115.814 462.352 116.249 462.156C116.683 461.96 117.024 461.687 117.271 461.338C117.518 460.988 117.642 460.583 117.642 460.123C117.642 459.642 117.523 459.218 117.284 458.851C117.045 458.481 116.696 458.191 116.236 457.982C115.776 457.773 115.213 457.669 114.548 457.669H113.5V456.262H114.548C115.068 456.262 115.524 456.169 115.916 455.981C116.313 455.794 116.621 455.53 116.843 455.189C117.069 454.848 117.182 454.447 117.182 453.987C117.182 453.544 117.084 453.158 116.888 452.83C116.692 452.502 116.415 452.246 116.057 452.063C115.703 451.88 115.286 451.788 114.804 451.788C114.352 451.788 113.926 451.871 113.526 452.037C113.129 452.199 112.805 452.436 112.554 452.747C112.303 453.054 112.166 453.424 112.145 453.859H110.611C110.636 453.173 110.843 452.572 111.231 452.057C111.619 451.537 112.126 451.132 112.752 450.842C113.383 450.552 114.075 450.407 114.83 450.407C115.639 450.407 116.334 450.571 116.913 450.9C117.493 451.223 117.938 451.652 118.249 452.184C118.56 452.717 118.716 453.292 118.716 453.91C118.716 454.647 118.522 455.276 118.134 455.796C117.751 456.316 117.229 456.676 116.568 456.876V456.978C117.395 457.115 118.04 457.466 118.505 458.033C118.969 458.596 119.202 459.292 119.202 460.123C119.202 460.835 119.008 461.474 118.62 462.041C118.237 462.603 117.712 463.047 117.048 463.37C116.383 463.694 115.626 463.856 114.778 463.856Z" fill="black"/>
<path d="M110.815 507.524V506.502L119.048 502.309V503.945L112.733 506.988L112.784 506.885V507.141L112.733 507.039L119.048 510.081V511.718L110.815 507.524ZM131.706 513.533C130.862 513.533 130.11 513.388 129.45 513.098C128.794 512.809 128.271 512.406 127.884 511.89C127.5 511.37 127.291 510.767 127.257 510.081H128.868C128.902 510.503 129.047 510.867 129.303 511.174C129.558 511.477 129.893 511.711 130.306 511.877C130.72 512.044 131.178 512.127 131.681 512.127C132.243 512.127 132.742 512.029 133.176 511.833C133.611 511.637 133.952 511.364 134.199 511.015C134.446 510.665 134.57 510.26 134.57 509.8C134.57 509.318 134.45 508.894 134.212 508.528C133.973 508.157 133.624 507.867 133.164 507.659C132.703 507.45 132.141 507.345 131.476 507.345H130.428V505.939H131.476C131.996 505.939 132.452 505.845 132.844 505.658C133.24 505.47 133.549 505.206 133.771 504.865C133.997 504.524 134.11 504.124 134.11 503.664C134.11 503.22 134.012 502.835 133.816 502.507C133.619 502.179 133.343 501.923 132.985 501.74C132.631 501.556 132.213 501.465 131.732 501.465C131.28 501.465 130.854 501.548 130.453 501.714C130.057 501.876 129.733 502.113 129.482 502.424C129.23 502.73 129.094 503.101 129.073 503.536H127.539C127.564 502.85 127.771 502.249 128.159 501.733C128.546 501.213 129.053 500.809 129.68 500.519C130.311 500.229 131.003 500.084 131.757 500.084C132.567 500.084 133.262 500.248 133.841 500.576C134.421 500.9 134.866 501.328 135.177 501.861C135.488 502.394 135.644 502.969 135.644 503.587C135.644 504.324 135.45 504.953 135.062 505.473C134.678 505.992 134.156 506.353 133.496 506.553V506.655C134.323 506.792 134.968 507.143 135.433 507.71C135.897 508.272 136.129 508.969 136.129 509.8C136.129 510.512 135.936 511.151 135.548 511.718C135.164 512.28 134.64 512.723 133.975 513.047C133.311 513.371 132.554 513.533 131.706 513.533Z" fill="black"/>
<path d="M-3.45461e-05 303C-3.10675e-05 263.209 7.83731 223.809 23.0645 187.047C38.2917 150.285 60.6105 116.883 88.7466 88.7467C116.883 60.6105 150.285 38.2917 187.047 23.0645C223.809 7.83737 263.209 3.10675e-05 303 3.45461e-05C342.791 3.80247e-05 382.191 7.83738 418.953 23.0646C455.715 38.2917 489.117 60.6105 517.253 88.7467C545.39 116.883 567.708 150.285 582.936 187.047C598.163 223.809 606 263.21 606 303L485.184 303C485.184 279.075 480.471 255.385 471.316 233.281C462.16 211.178 448.741 191.094 431.823 174.177C414.906 157.259 394.822 143.84 372.719 134.684C350.615 125.529 326.925 120.816 303 120.816C279.075 120.816 255.385 125.529 233.281 134.684C211.178 143.84 191.094 157.259 174.177 174.177C157.259 191.094 143.84 211.178 134.684 233.281C125.529 255.385 120.816 279.075 120.816 303L-3.45461e-05 303Z" fill="#F94144"/>
<path d="M-3.45461e-05 303C-2.96996e-05 247.563 15.2091 193.188 43.9714 145.796C72.7337 98.4035 113.947 59.8105 163.123 34.2185C212.3 8.62649 267.555 -2.98355 322.873 0.652441C378.191 4.28849 431.451 23.0312 476.855 54.8399L407.533 153.79C380.233 134.664 348.21 123.395 314.949 121.209C281.688 119.022 248.465 126.003 218.897 141.391C189.329 156.778 164.549 179.983 147.255 208.478C129.961 236.974 120.816 269.667 120.816 303L-3.45461e-05 303Z" fill="#F8961E"/>
<path d="M-3.45461e-05 303C-3.02002e-05 253.289 12.2307 204.342 35.6138 160.474C58.9969 116.606 92.8139 79.1653 134.083 51.4525C175.353 23.7397 222.807 6.60641 272.261 1.56333C321.715 -3.47982 371.651 3.72215 417.664 22.5342L371.944 134.365C344.277 123.054 314.253 118.724 284.518 121.756C254.782 124.788 226.25 135.09 201.436 151.753C176.622 168.416 156.289 190.928 142.23 217.304C128.17 243.68 120.816 273.111 120.816 303L-3.45461e-05 303Z" fill="#2D9CDB"/>
<path d="M-3.45461e-05 303C-3.10675e-05 263.209 7.83731 223.809 23.0645 187.047C38.2917 150.285 60.6105 116.883 88.7466 88.7467C116.883 60.6105 150.285 38.2917 187.047 23.0645C223.809 7.83737 263.209 3.10675e-05 303 3.45461e-05L303 120.816C279.075 120.816 255.385 125.529 233.281 134.684C211.178 143.84 191.094 157.259 174.177 174.177C157.259 191.094 143.84 211.178 134.684 233.281C125.529 255.385 120.816 279.075 120.816 303L-3.45461e-05 303Z" fill="#F3722C"/>
<path d="M-3.45461e-05 303C-2.97162e-05 247.753 15.1051 193.557 43.6817 146.274C72.2583 98.9913 113.219 60.4216 162.132 34.7366C211.046 9.05154 266.051 -2.77121 321.199 0.547094C376.347 3.86534 429.537 22.1984 475.018 53.5633L406.429 153.022C379.083 134.163 347.101 123.14 313.942 121.145C280.784 119.15 247.711 126.259 218.301 141.702C188.891 157.146 164.263 180.336 147.081 208.766C129.898 237.195 120.816 269.782 120.816 303L-3.45461e-05 303Z" fill="#90BE6D"/>
<path d="M109.183 70.0969C161.413 26.6319 226.737 1.98477 294.662 0.11478C362.586 -1.75515 429.167 19.2606 483.71 59.7861L411.655 156.764C378.86 132.397 338.827 119.761 297.986 120.885C257.146 122.01 217.868 136.829 186.464 162.963L109.183 70.0969Z" fill="#F9C74F"/>
<path d="M255.702 50.4545H258.365L262.996 61.7614H263.166L267.797 50.4545H270.46V65H268.372V54.4744H268.237L263.947 64.9787H262.214L257.925 54.4673H257.79V65H255.702V50.4545ZM278.075 65.2202C277.053 65.2202 276.16 64.9858 275.398 64.517C274.636 64.0483 274.044 63.3925 273.622 62.5497C273.201 61.7069 272.99 60.7221 272.99 59.5952C272.99 58.4635 273.201 57.474 273.622 56.6264C274.044 55.7789 274.636 55.1207 275.398 54.652C276.16 54.1832 277.053 53.9489 278.075 53.9489C279.098 53.9489 279.991 54.1832 280.753 54.652C281.515 55.1207 282.107 55.7789 282.529 56.6264C282.95 57.474 283.161 58.4635 283.161 59.5952C283.161 60.7221 282.95 61.7069 282.529 62.5497C282.107 63.3925 281.515 64.0483 280.753 64.517C279.991 64.9858 279.098 65.2202 278.075 65.2202ZM278.083 63.4375C278.745 63.4375 279.295 63.2623 279.73 62.9119C280.166 62.5616 280.488 62.0952 280.696 61.5128C280.909 60.9304 281.016 60.2888 281.016 59.5881C281.016 58.892 280.909 58.2528 280.696 57.6705C280.488 57.0833 280.166 56.6122 279.73 56.2571C279.295 55.902 278.745 55.7244 278.083 55.7244C277.415 55.7244 276.861 55.902 276.421 56.2571C275.985 56.6122 275.661 57.0833 275.448 57.6705C275.239 58.2528 275.135 58.892 275.135 59.5881C275.135 60.2888 275.239 60.9304 275.448 61.5128C275.661 62.0952 275.985 62.5616 276.421 62.9119C276.861 63.2623 277.415 63.4375 278.083 63.4375ZM289.615 65.2131C288.734 65.2131 287.948 64.9882 287.257 64.5384C286.57 64.0838 286.031 63.4375 285.638 62.5994C285.249 61.7566 285.055 60.7457 285.055 59.5668C285.055 58.3878 285.252 57.3793 285.645 56.5412C286.042 55.7031 286.587 55.0616 287.278 54.6165C287.97 54.1714 288.753 53.9489 289.629 53.9489C290.306 53.9489 290.851 54.0625 291.263 54.2898C291.679 54.5123 292.001 54.7727 292.229 55.071C292.461 55.3693 292.64 55.6321 292.768 55.8594H292.896V50.4545H295.02V65H292.946V63.3026H292.768C292.64 63.5346 292.456 63.7997 292.214 64.098C291.978 64.3963 291.651 64.6567 291.234 64.8793C290.818 65.1018 290.278 65.2131 289.615 65.2131ZM290.084 63.402C290.694 63.402 291.211 63.241 291.632 62.919C292.058 62.5923 292.38 62.1402 292.598 61.5625C292.82 60.9848 292.932 60.3125 292.932 59.5455C292.932 58.7879 292.823 58.125 292.605 57.5568C292.387 56.9886 292.068 56.5459 291.646 56.2287C291.225 55.9115 290.704 55.7528 290.084 55.7528C289.444 55.7528 288.912 55.9186 288.486 56.25C288.059 56.5814 287.738 57.0336 287.52 57.6065C287.307 58.1795 287.2 58.8258 287.2 59.5455C287.2 60.2746 287.309 60.9304 287.527 61.5128C287.745 62.0952 288.067 62.5568 288.493 62.8977C288.924 63.2339 289.454 63.402 290.084 63.402ZM302.752 65.2202C301.677 65.2202 300.752 64.9905 299.975 64.5312C299.204 64.0672 298.607 63.4162 298.186 62.5781C297.769 61.7353 297.561 60.7481 297.561 59.6165C297.561 58.4991 297.769 57.5142 298.186 56.6619C298.607 55.8097 299.194 55.1444 299.947 54.6662C300.704 54.188 301.59 53.9489 302.603 53.9489C303.219 53.9489 303.815 54.0507 304.393 54.2543C304.971 54.4579 305.489 54.7775 305.948 55.2131C306.408 55.6487 306.77 56.2145 307.035 56.9105C307.3 57.6018 307.433 58.4422 307.433 59.4318V60.1847H298.761V58.5938H305.352C305.352 58.035 305.238 57.5402 305.011 57.1094C304.784 56.6738 304.464 56.3305 304.052 56.0795C303.645 55.8286 303.167 55.7031 302.617 55.7031C302.021 55.7031 301.5 55.8499 301.055 56.1435C300.615 56.4323 300.274 56.8111 300.032 57.2798C299.795 57.7438 299.677 58.2481 299.677 58.7926V60.0355C299.677 60.7647 299.805 61.3849 300.061 61.8963C300.321 62.4077 300.683 62.7983 301.147 63.0682C301.611 63.3333 302.153 63.4659 302.774 63.4659C303.176 63.4659 303.543 63.4091 303.874 63.2955C304.206 63.1771 304.492 63.0019 304.734 62.7699C304.975 62.5379 305.16 62.2514 305.288 61.9105L307.298 62.2727C307.137 62.8646 306.848 63.383 306.431 63.8281C306.019 64.2685 305.501 64.6117 304.876 64.858C304.256 65.0994 303.548 65.2202 302.752 65.2202ZM309.789 65V54.0909H311.841V55.8239H311.955C312.154 55.2367 312.504 54.7751 313.006 54.4389C313.513 54.098 314.086 53.9276 314.725 53.9276C314.858 53.9276 315.014 53.9323 315.194 53.9418C315.378 53.9512 315.523 53.9631 315.627 53.9773V56.0085C315.542 55.9848 315.39 55.9588 315.172 55.9304C314.955 55.8973 314.737 55.8807 314.519 55.8807C314.017 55.8807 313.57 55.9872 313.177 56.2003C312.788 56.4086 312.481 56.6998 312.253 57.0739C312.026 57.4432 311.912 57.8646 311.912 58.3381V65H309.789ZM320.542 65.2415C319.85 65.2415 319.225 65.1136 318.667 64.858C318.108 64.5975 317.665 64.2211 317.339 63.7287C317.017 63.2363 316.856 62.6326 316.856 61.9176C316.856 61.3021 316.974 60.7955 317.211 60.3977C317.448 60 317.767 59.6851 318.17 59.4531C318.572 59.2211 319.022 59.0459 319.519 58.9276C320.016 58.8092 320.523 58.7192 321.039 58.6577C321.692 58.5819 322.223 58.5204 322.63 58.473C323.037 58.4209 323.333 58.3381 323.518 58.2244C323.702 58.1108 323.795 57.9261 323.795 57.6705V57.6207C323.795 57.0005 323.619 56.5199 323.269 56.179C322.923 55.8381 322.407 55.6676 321.721 55.6676C321.006 55.6676 320.442 55.8262 320.03 56.1435C319.623 56.456 319.341 56.804 319.185 57.1875L317.189 56.733C317.426 56.0701 317.772 55.535 318.226 55.1278C318.686 54.7159 319.214 54.4176 319.81 54.233C320.407 54.0436 321.034 53.9489 321.692 53.9489C322.128 53.9489 322.59 54.0009 323.077 54.1051C323.57 54.2045 324.029 54.3892 324.455 54.6591C324.886 54.929 325.239 55.3149 325.513 55.8168C325.788 56.3139 325.925 56.9602 325.925 57.7557V65H323.851V63.5085H323.766C323.629 63.7831 323.423 64.053 323.148 64.3182C322.874 64.5833 322.521 64.8035 322.09 64.9787C321.659 65.1539 321.143 65.2415 320.542 65.2415ZM321.003 63.5369C321.59 63.5369 322.092 63.4209 322.509 63.1889C322.93 62.9569 323.25 62.6539 323.468 62.2798C323.69 61.901 323.802 61.4962 323.802 61.0653V59.6591C323.726 59.7348 323.579 59.8059 323.361 59.8722C323.148 59.9337 322.904 59.9882 322.63 60.0355C322.355 60.0781 322.088 60.1184 321.827 60.1562C321.567 60.1894 321.349 60.2178 321.174 60.2415C320.762 60.2936 320.385 60.3812 320.045 60.5043C319.708 60.6274 319.439 60.8049 319.235 61.0369C319.036 61.2642 318.937 61.5672 318.937 61.946C318.937 62.4716 319.131 62.8693 319.519 63.1392C319.907 63.4044 320.402 63.5369 321.003 63.5369ZM332.838 65.2131C331.957 65.2131 331.171 64.9882 330.48 64.5384C329.793 64.0838 329.253 63.4375 328.86 62.5994C328.472 61.7566 328.278 60.7457 328.278 59.5668C328.278 58.3878 328.474 57.3793 328.867 56.5412C329.265 55.7031 329.81 55.0616 330.501 54.6165C331.192 54.1714 331.976 53.9489 332.852 53.9489C333.529 53.9489 334.073 54.0625 334.485 54.2898C334.902 54.5123 335.224 54.7727 335.451 55.071C335.683 55.3693 335.863 55.6321 335.991 55.8594H336.119V50.4545H338.242V65H336.169V63.3026H335.991C335.863 63.5346 335.678 63.7997 335.437 64.098C335.2 64.3963 334.874 64.6567 334.457 64.8793C334.04 65.1018 333.5 65.2131 332.838 65.2131ZM333.306 63.402C333.917 63.402 334.433 63.241 334.855 62.919C335.281 62.5923 335.603 62.1402 335.82 61.5625C336.043 60.9848 336.154 60.3125 336.154 59.5455C336.154 58.7879 336.045 58.125 335.828 57.5568C335.61 56.9886 335.29 56.5459 334.869 56.2287C334.447 55.9115 333.927 55.7528 333.306 55.7528C332.667 55.7528 332.134 55.9186 331.708 56.25C331.282 56.5814 330.96 57.0336 330.742 57.6065C330.529 58.1795 330.423 58.8258 330.423 59.5455C330.423 60.2746 330.532 60.9304 330.749 61.5128C330.967 62.0952 331.289 62.5568 331.715 62.8977C332.146 63.2339 332.677 63.402 333.306 63.402ZM345.868 65.2202C344.846 65.2202 343.953 64.9858 343.191 64.517C342.429 64.0483 341.837 63.3925 341.415 62.5497C340.994 61.7069 340.783 60.7221 340.783 59.5952C340.783 58.4635 340.994 57.474 341.415 56.6264C341.837 55.7789 342.429 55.1207 343.191 54.652C343.953 54.1832 344.846 53.9489 345.868 53.9489C346.891 53.9489 347.784 54.1832 348.546 54.652C349.308 55.1207 349.9 55.7789 350.322 56.6264C350.743 57.474 350.954 58.4635 350.954 59.5952C350.954 60.7221 350.743 61.7069 350.322 62.5497C349.9 63.3925 349.308 64.0483 348.546 64.517C347.784 64.9858 346.891 65.2202 345.868 65.2202ZM345.876 63.4375C346.538 63.4375 347.088 63.2623 347.523 62.9119C347.959 62.5616 348.281 62.0952 348.489 61.5128C348.702 60.9304 348.809 60.2888 348.809 59.5881C348.809 58.892 348.702 58.2528 348.489 57.6705C348.281 57.0833 347.959 56.6122 347.523 56.2571C347.088 55.902 346.538 55.7244 345.876 55.7244C345.208 55.7244 344.654 55.902 344.214 56.2571C343.778 56.6122 343.454 57.0833 343.241 57.6705C343.032 58.2528 342.928 58.892 342.928 59.5881C342.928 60.2888 343.032 60.9304 343.241 61.5128C343.454 62.0952 343.778 62.5616 344.214 62.9119C344.654 63.2623 345.208 63.4375 345.876 63.4375Z" fill="white"/>
<path d="M73.0514 246.742L72.1039 248.87L60.945 238.172L61.9763 235.856L77.3932 236.99L76.4457 239.118L63.8988 238.033L63.8526 238.137L73.0514 246.742ZM68.0067 244.068L71.0804 237.165L72.7673 237.916L69.6937 244.819L68.0067 244.068ZM80.1769 231.279C79.7475 232.243 79.1593 232.977 78.4123 233.479C77.663 233.974 76.8184 234.236 75.8785 234.263C74.9386 234.29 73.9691 234.081 72.9699 233.637C71.9577 233.186 71.1492 232.598 70.5444 231.873C69.9353 231.145 69.5664 230.338 69.4377 229.452C69.3089 228.565 69.4535 227.653 69.8714 226.714C70.2084 225.957 70.6494 225.345 71.1944 224.877C71.7351 224.408 72.3372 224.103 73.0007 223.963C73.6662 223.819 74.3495 223.862 75.0508 224.091L74.2102 225.979C73.6968 225.875 73.1886 225.934 72.6856 226.155C72.1845 226.373 71.7963 226.791 71.5209 227.409C71.2802 227.95 71.212 228.487 71.3165 229.021C71.4185 229.548 71.6812 230.041 72.1044 230.499C72.5233 230.955 73.0875 231.341 73.7969 231.657C74.5235 231.98 75.1999 232.149 75.8258 232.164C76.4517 232.178 76.9991 232.049 77.468 231.775C77.9389 231.498 78.2966 231.084 78.5412 230.535C78.7049 230.167 78.7861 229.804 78.7849 229.446C78.7813 229.082 78.6971 228.741 78.5325 228.424C78.3697 228.103 78.1271 227.821 77.8047 227.579L78.6453 225.691C79.259 226.047 79.7409 226.513 80.091 227.089C80.4411 227.665 80.63 228.311 80.6579 229.029C80.6878 229.742 80.5274 230.492 80.1769 231.279ZM84.8358 220.815C84.3986 221.797 83.8123 222.549 83.0769 223.072C82.3391 223.588 81.5017 223.868 80.5647 223.912C79.6252 223.95 78.6386 223.739 77.6048 223.279C76.584 222.824 75.7691 222.233 75.1599 221.506C74.5528 220.774 74.1838 219.967 74.0532 219.085C73.9244 218.199 74.0661 217.292 74.4782 216.367C74.7286 215.804 75.0643 215.301 75.4852 214.856C75.9062 214.411 76.409 214.067 76.9938 213.825C77.5785 213.583 78.2427 213.482 78.9864 213.523C79.7258 213.562 80.5475 213.782 81.4515 214.185L82.1393 214.491L78.6121 222.413L77.1587 221.766L79.8395 215.745C79.3291 215.518 78.8309 215.42 78.3448 215.453C77.8544 215.483 77.4108 215.636 77.014 215.91C76.6191 216.18 76.31 216.566 76.0866 217.067C75.844 217.612 75.7662 218.148 75.8534 218.674C75.9381 219.194 76.1455 219.659 76.4755 220.07C76.8031 220.475 77.2156 220.789 77.7131 221.01L78.8485 221.516C79.5146 221.812 80.1333 221.948 80.7044 221.922C81.2775 221.892 81.7817 221.72 82.217 221.406C82.6479 221.09 82.9895 220.649 83.2418 220.082C83.4055 219.714 83.5029 219.356 83.5339 219.007C83.5605 218.656 83.517 218.323 83.4033 218.008C83.2895 217.693 83.103 217.408 82.8435 217.153L83.9919 215.464C84.4671 215.851 84.8233 216.326 85.0604 216.888C85.2952 217.443 85.3979 218.057 85.3686 218.728C85.3369 219.393 85.1593 220.088 84.8358 220.815ZM91.2339 215.961L77.5307 209.86L78.3742 207.966L79.9898 208.685L80.062 208.523C79.9045 208.318 79.7366 208.049 79.5585 207.715C79.3803 207.382 79.2734 206.982 79.2376 206.515C79.1976 206.046 79.3152 205.503 79.5906 204.884C79.9488 204.08 80.4718 203.452 81.1596 203.002C81.8473 202.551 82.654 202.317 83.5794 202.299C84.5068 202.276 85.509 202.505 86.5861 202.984C87.6631 203.464 88.5067 204.054 89.1168 204.756C89.7226 205.456 90.0934 206.212 90.2294 207.024C90.3611 207.834 90.2479 208.642 89.8896 209.446C89.62 210.052 89.2979 210.502 88.9232 210.796C88.5504 211.086 88.1796 211.279 87.8108 211.374C87.442 211.469 87.1256 211.528 86.8617 211.55L86.8097 211.667L92.0976 214.021L91.2339 215.961ZM83.3601 210.178C84.0608 210.49 84.7203 210.661 85.3385 210.693C85.9567 210.725 86.5008 210.614 86.9706 210.362C87.4362 210.108 87.7932 209.702 88.0416 209.144C88.2997 208.565 88.3618 208.012 88.228 207.486C88.0899 206.958 87.7991 206.476 87.3557 206.04C86.9142 205.6 86.3603 205.232 85.6942 204.935C85.0367 204.642 84.402 204.479 83.79 204.445C83.18 204.407 82.6359 204.517 82.1579 204.776C81.6818 205.03 81.3137 205.449 81.0538 206.033C80.8034 206.596 80.7365 207.136 80.8529 207.654C80.9713 208.168 81.2458 208.64 81.6763 209.07C82.1067 209.5 82.668 209.869 83.3601 210.178ZM84.6226 193.931L86.1798 194.625L83.7561 200.068L82.1989 199.375L84.6226 193.931ZM80.4612 196.852L81.325 194.912L90.7524 199.11C91.1287 199.277 91.4371 199.347 91.6775 199.319C91.9135 199.29 92.1056 199.202 92.2538 199.055C92.3996 198.902 92.5196 198.72 92.614 198.508C92.6833 198.352 92.7332 198.211 92.7636 198.085C92.7939 197.958 92.8171 197.86 92.833 197.789L94.5916 198.152C94.5848 198.284 94.5568 198.463 94.5076 198.69C94.4627 198.919 94.3731 199.19 94.2388 199.503C94.0202 200.018 93.7175 200.453 93.3307 200.809C92.944 201.166 92.491 201.392 91.9717 201.487C91.4524 201.582 90.8922 201.496 90.2909 201.229L80.4612 196.852ZM97.0559 193.421C96.7747 194.052 96.4037 194.571 95.9429 194.977C95.4777 195.382 94.9538 195.633 94.3711 195.731C93.7902 195.825 93.1733 195.727 92.5201 195.436C91.9578 195.186 91.5431 194.871 91.2761 194.493C91.009 194.115 90.8514 193.695 90.8031 193.233C90.7549 192.771 90.7778 192.289 90.8718 191.787C90.9659 191.284 91.0898 190.785 91.2435 190.288C91.44 189.661 91.5995 189.151 91.7219 188.76C91.8399 188.367 91.8846 188.063 91.8559 187.848C91.8272 187.633 91.696 187.473 91.4625 187.369L91.417 187.349C90.8504 187.097 90.3401 187.062 89.8862 187.243C89.4341 187.42 89.0685 187.822 88.7893 188.449C88.4985 189.103 88.4142 189.682 88.5364 190.187C88.6563 190.686 88.8596 191.085 89.1465 191.384L87.9195 193.022C87.4102 192.536 87.062 192.003 86.8749 191.422C86.6854 190.835 86.6276 190.231 86.7016 189.611C86.7712 188.989 86.9399 188.378 87.2075 187.776C87.3847 187.378 87.6201 186.978 87.9136 186.575C88.2047 186.165 88.5602 185.821 88.9801 185.541C89.4019 185.257 89.8979 185.092 90.4681 185.045C91.034 184.997 91.6803 185.134 92.4069 185.458L99.025 188.404L98.1814 190.299L96.8189 189.692L96.7842 189.77C96.9793 190.007 97.1421 190.305 97.2726 190.664C97.4031 191.023 97.4608 191.434 97.4456 191.899C97.4304 192.364 97.3005 192.871 97.0559 193.421ZM95.6865 192.305C95.9253 191.769 96.0234 191.263 95.981 190.788C95.9404 190.309 95.7936 189.894 95.5404 189.543C95.2849 189.185 94.9603 188.919 94.5667 188.744L93.2821 188.172C93.3204 188.272 93.3256 188.435 93.2976 188.661C93.2672 188.88 93.2177 189.125 93.1493 189.396C93.0765 189.664 93.0045 189.924 92.9332 190.178C92.8575 190.429 92.7949 190.64 92.7453 190.809C92.6253 191.207 92.5522 191.586 92.526 191.948C92.5017 192.305 92.5542 192.624 92.6833 192.904C92.81 193.178 93.0464 193.392 93.3925 193.546C93.8726 193.76 94.3149 193.745 94.7194 193.5C95.1195 193.253 95.4419 192.855 95.6865 192.305ZM100.245 185.665L86.9568 179.748L87.8205 177.808L92.7581 180.007L92.8101 179.89C92.6525 179.685 92.4847 179.416 92.3066 179.083C92.1284 178.749 92.0215 178.349 91.9857 177.883C91.9456 177.414 92.0633 176.87 92.3387 176.252C92.6969 175.447 93.2199 174.819 93.9077 174.369C94.5954 173.919 95.402 173.684 96.3275 173.666C97.2549 173.644 98.2571 173.872 99.3341 174.352C100.411 174.831 101.255 175.422 101.865 176.124C102.471 176.824 102.842 177.58 102.978 178.392C103.109 179.202 102.996 180.009 102.638 180.814C102.368 181.419 102.046 181.869 101.671 182.164C101.298 182.454 100.928 182.646 100.559 182.741C100.19 182.836 99.8737 182.895 99.6098 182.917L99.5376 183.08L101.088 183.77L100.245 185.665ZM96.1082 181.545C96.8089 181.857 97.4684 182.029 98.0866 182.06C98.7048 182.092 99.2489 181.982 99.7187 181.73C100.184 181.476 100.541 181.07 100.79 180.512C101.048 179.932 101.11 179.379 100.976 178.853C100.838 178.325 100.547 177.843 100.104 177.408C99.6622 176.967 99.1084 176.599 98.4423 176.302C97.7848 176.01 97.1501 175.846 96.5381 175.812C95.9281 175.774 95.384 175.884 94.906 176.143C94.4299 176.397 94.0618 176.817 93.8018 177.401C93.5515 177.963 93.4845 178.503 93.601 179.022C93.7194 179.536 93.9939 180.008 94.4243 180.438C94.8548 180.868 95.4161 181.237 96.1082 181.545ZM92.8434 166.527L106.131 172.443L105.268 174.383L91.9796 168.467L92.8434 166.527ZM109.407 165.628C108.97 166.609 108.383 167.362 107.648 167.884C106.91 168.401 106.073 168.681 105.136 168.725C104.196 168.763 103.21 168.552 102.176 168.091C101.155 167.637 100.34 167.046 99.731 166.319C99.1238 165.587 98.7549 164.78 98.6242 163.898C98.4954 163.011 98.6371 162.105 99.0493 161.179C99.2996 160.617 99.6353 160.113 100.056 159.669C100.477 159.224 100.98 158.88 101.565 158.638C102.15 158.395 102.814 158.294 103.557 158.335C104.297 158.374 105.119 158.595 106.023 158.997L106.71 159.304L103.183 167.226L101.73 166.579L104.411 160.558C103.9 160.33 103.402 160.233 102.916 160.265C102.425 160.296 101.982 160.448 101.585 160.722C101.19 160.992 100.881 161.378 100.658 161.88C100.415 162.425 100.337 162.96 100.424 163.486C100.509 164.006 100.717 164.472 101.047 164.883C101.374 165.288 101.787 165.601 102.284 165.823L103.42 166.328C104.086 166.625 104.704 166.76 105.275 166.735C105.849 166.705 106.353 166.533 106.788 166.219C107.219 165.903 107.561 165.461 107.813 164.895C107.977 164.527 108.074 164.169 108.105 163.82C108.132 163.469 108.088 163.136 107.974 162.821C107.861 162.506 107.674 162.221 107.415 161.965L108.563 160.276C109.038 160.664 109.394 161.139 109.631 161.7C109.866 162.256 109.969 162.869 109.94 163.54C109.908 164.205 109.73 164.901 109.407 165.628Z" fill="white"/>
<path d="M518.941 181.834L518.039 179.809C518.437 179.539 518.753 179.224 518.988 178.866C519.222 178.508 519.386 178.124 519.478 177.715C519.571 177.306 519.59 176.885 519.538 176.452C519.487 176.024 519.367 175.598 519.179 175.174C518.838 174.408 518.34 173.808 517.685 173.374C517.033 172.944 516.256 172.72 515.356 172.701C514.458 172.686 513.473 172.917 512.4 173.395C511.319 173.876 510.483 174.456 509.893 175.133C509.305 175.815 508.956 176.543 508.845 177.318C508.734 178.093 508.847 178.859 509.184 179.616C509.371 180.036 509.604 180.408 509.884 180.735C510.17 181.063 510.494 181.331 510.856 181.538C511.218 181.745 511.608 181.882 512.027 181.95C512.452 182.02 512.894 182.001 513.355 181.895L514.25 183.922C513.548 184.105 512.854 184.163 512.166 184.096C511.484 184.031 510.836 183.845 510.223 183.538C509.615 183.233 509.066 182.82 508.574 182.298C508.082 181.775 507.674 181.149 507.348 180.418C506.836 179.267 506.652 178.121 506.797 176.978C506.945 175.834 507.415 174.775 508.204 173.801C508.996 172.832 510.099 172.033 511.513 171.403C512.932 170.771 514.265 170.489 515.513 170.555C516.765 170.62 517.864 170.981 518.809 171.638C519.759 172.293 520.489 173.193 521 174.34C521.314 175.045 521.505 175.747 521.573 176.448C521.647 177.151 521.599 177.833 521.427 178.495C521.26 179.155 520.968 179.77 520.553 180.338C520.142 180.905 519.604 181.403 518.941 181.834ZM510.973 188.069L520.939 183.632L521.773 185.507L520.19 186.212L520.237 186.316C520.854 186.259 521.418 186.391 521.929 186.713C522.447 187.037 522.836 187.491 523.096 188.075C523.149 188.196 523.209 188.341 523.273 188.509C523.34 188.681 523.388 188.818 523.417 188.919L521.561 189.745C521.548 189.658 521.51 189.509 521.448 189.298C521.39 189.086 521.316 188.88 521.227 188.681C521.023 188.223 520.744 187.857 520.39 187.585C520.041 187.315 519.65 187.152 519.216 187.097C518.786 187.039 518.355 187.107 517.922 187.299L511.836 190.009L510.973 188.069ZM514.095 195.081L524.061 190.644L524.924 192.584L514.958 197.021L514.095 195.081ZM525.472 190.234L529.139 190.42L530.049 192.464L526.162 191.784L525.472 190.234ZM528.158 199.846L526.6 200.539L524.177 195.096L525.734 194.402L528.158 199.846ZM528.772 194.799L529.635 196.739L520.208 200.937C519.832 201.104 519.573 201.287 519.433 201.484C519.297 201.679 519.234 201.881 519.244 202.089C519.26 202.299 519.315 202.511 519.409 202.723C519.479 202.878 519.55 203.01 519.624 203.117C519.697 203.224 519.755 203.307 519.797 203.366L518.35 204.43C518.257 204.337 518.143 204.196 518.007 204.008C517.867 203.821 517.725 203.573 517.582 203.264C517.346 202.757 517.225 202.241 517.219 201.715C517.213 201.189 517.348 200.701 517.625 200.252C517.902 199.802 518.341 199.443 518.942 199.176L528.772 194.799ZM519.147 206.429L529.113 201.992L529.977 203.932L520.011 208.369L519.147 206.429ZM531.087 202.287C530.937 201.95 530.92 201.61 531.037 201.268C531.161 200.928 531.38 200.687 531.696 200.547C532.016 200.404 532.341 200.402 532.672 200.54C533.009 200.68 533.253 200.919 533.403 201.256C533.554 201.593 533.567 201.932 533.444 202.272C533.327 202.614 533.108 202.857 532.788 202.999C532.472 203.14 532.146 203.14 531.809 203C531.478 202.862 531.237 202.625 531.087 202.287ZM522.841 215.267C522.411 214.302 522.26 213.374 522.387 212.483C522.52 211.595 522.891 210.792 523.499 210.075C524.108 209.359 524.912 208.778 525.911 208.333C526.923 207.882 527.901 207.675 528.845 207.711C529.793 207.745 530.64 208.011 531.385 208.508C532.13 209.006 532.711 209.724 533.129 210.663C533.466 211.42 533.626 212.157 533.608 212.875C533.595 213.591 533.419 214.242 533.079 214.829C532.741 215.42 532.252 215.899 531.612 216.267L530.772 214.379C531.193 214.067 531.489 213.65 531.661 213.128C531.835 212.61 531.784 212.042 531.508 211.423C531.268 210.882 530.914 210.472 530.447 210.193C529.987 209.916 529.445 209.781 528.822 209.789C528.203 209.795 527.538 209.956 526.829 210.272C526.102 210.596 525.524 210.985 525.095 211.441C524.665 211.896 524.395 212.39 524.284 212.921C524.176 213.457 524.243 213.999 524.488 214.549C524.652 214.916 524.867 215.22 525.134 215.458C525.407 215.699 525.717 215.865 526.062 215.955C526.41 216.049 526.782 216.057 527.177 215.979L528.018 217.867C527.343 218.085 526.674 218.131 526.012 218.006C525.35 217.881 524.743 217.589 524.191 217.13C523.641 216.675 523.191 216.054 522.841 215.267ZM527.456 225.633C527.04 224.699 526.891 223.788 527.01 222.901C527.128 222.014 527.486 221.207 528.085 220.479C528.683 219.751 529.497 219.158 530.527 218.7C531.56 218.239 532.55 218.029 533.496 218.07C534.441 218.11 535.283 218.383 536.022 218.889C536.76 219.394 537.337 220.114 537.753 221.049C538.169 221.983 538.318 222.894 538.2 223.781C538.082 224.668 537.721 225.476 537.118 226.206C536.515 226.936 535.697 227.531 534.663 227.991C533.634 228.449 532.648 228.657 531.707 228.615C530.766 228.573 529.926 228.299 529.188 227.793C528.449 227.287 527.872 226.567 527.456 225.633ZM529.088 224.915C529.357 225.52 529.741 225.951 530.238 226.206C530.735 226.461 531.292 226.566 531.909 226.519C532.528 226.477 533.157 226.314 533.797 226.029C534.433 225.745 534.974 225.388 535.419 224.957C535.871 224.527 536.17 224.042 536.318 223.499C536.465 222.957 536.404 222.383 536.134 221.777C535.862 221.167 535.475 220.734 534.971 220.476C534.47 220.222 533.907 220.118 533.284 220.162C532.668 220.208 532.041 220.373 531.405 220.656C530.765 220.941 530.222 221.297 529.774 221.725C529.329 222.156 529.035 222.642 528.892 223.183C528.751 223.727 528.816 224.305 529.088 224.915Z" fill="white"/>
<path d="M302.778 292.179C301.935 292.179 301.183 292.034 300.522 291.744C299.866 291.455 299.344 291.052 298.956 290.536C298.572 290.016 298.364 289.413 298.33 288.727H299.94C299.974 289.149 300.119 289.513 300.375 289.82C300.631 290.123 300.965 290.357 301.379 290.523C301.792 290.69 302.25 290.773 302.753 290.773C303.315 290.773 303.814 290.675 304.249 290.479C304.683 290.283 305.024 290.01 305.271 289.661C305.518 289.311 305.642 288.906 305.642 288.446C305.642 287.964 305.523 287.54 305.284 287.174C305.045 286.803 304.696 286.513 304.236 286.305C303.776 286.096 303.213 285.991 302.548 285.991H301.5V284.585H302.548C303.068 284.585 303.524 284.491 303.916 284.304C304.313 284.116 304.621 283.852 304.843 283.511C305.069 283.17 305.182 282.77 305.182 282.31C305.182 281.866 305.084 281.481 304.888 281.153C304.692 280.825 304.415 280.569 304.057 280.386C303.703 280.202 303.286 280.111 302.804 280.111C302.352 280.111 301.926 280.194 301.526 280.36C301.129 280.522 300.805 280.759 300.554 281.07C300.303 281.376 300.166 281.747 300.145 282.182H298.611C298.636 281.496 298.843 280.895 299.231 280.379C299.619 279.859 300.126 279.455 300.752 279.165C301.383 278.875 302.075 278.73 302.83 278.73C303.639 278.73 304.334 278.894 304.913 279.222C305.493 279.546 305.938 279.974 306.249 280.507C306.56 281.04 306.716 281.615 306.716 282.233C306.716 282.97 306.522 283.599 306.134 284.119C305.751 284.638 305.229 284.999 304.568 285.199V285.301C305.395 285.437 306.04 285.789 306.505 286.356C306.969 286.918 307.202 287.615 307.202 288.446C307.202 289.158 307.008 289.797 306.62 290.364C306.237 290.926 305.712 291.369 305.048 291.693C304.383 292.017 303.626 292.179 302.778 292.179Z" fill="#090F47"/>
<path d="M290.878 98.1293L272.925 129.402C272.555 130.071 272.36 130.83 272.357 131.602C272.355 132.374 272.547 133.134 272.914 133.805C273.28 134.476 273.809 135.035 274.447 135.427C275.085 135.818 275.81 136.029 276.55 136.037H312.455C313.195 136.029 313.92 135.818 314.558 135.427C315.196 135.035 315.724 134.476 316.091 133.805C316.457 133.134 316.649 132.374 316.647 131.602C316.645 130.83 316.449 130.071 316.079 129.402L298.127 98.1293C297.749 97.4793 297.217 96.9419 296.582 96.5689C295.947 96.1959 295.231 96 294.502 96C293.774 96 293.057 96.1959 292.423 96.5689C291.788 96.9419 291.256 97.4793 290.878 98.1293Z" fill="#2D9CDB" stroke="#2D9CDB" stroke-width="2" stroke-linecap="round" stroke-linejoin="round"/>
<rect x="281" y="301" width="44" height="9" fill="#D9D9D9" fill-opacity="0.6"/>
</svg>
